<svg xmlns="http://www.w3.org/2000/svg" data-name="Layer 1" width="753.9" height="703.8"><path d="m355.4 5.9-23 12.6L48 173.5l-23 12.6a48.2 48.2 0 0 0-19.2 65.3l211.6 387.9a48.2 48.2 0 0 0 65.3 19.2l330.3-180.2a48.2 48.2 0 0 0 19.3-65.3L420.7 25A48.2 48.2 0 0 0 355.4 6Z" fill="#f2f2f2"/><path d="m362 18-27.3 15L59 183.3l-27.3 14.9A34.3 34.3 0 0 0 18 244.8l211.7 387.9a34.3 34.3 0 0 0 46.5 13.6l330.3-180.2a34.3 34.3 0 0 0 13.7-46.5L408.5 31.7A34.3 34.3 0 0 0 362 18Z" fill="#fff"/><path d="m366.6 138.4-123.2 67.2a8 8 0 1 1-7.6-14l123.1-67.2a8 8 0 1 1 7.7 14ZM408.6 146.3l-152.2 83a8 8 0 0 1-7.7-14l152.2-83a8 8 0 1 1 7.7 14ZM192.8 177.7l-113.5 62a3.8 3.8 0 0 0-1.6 5.1l48.4 88.6a3.8 3.8 0 0 0 5.2 1.6l113.5-62a3.8 3.8 0 0 0 1.6-5.2L198 179.2a3.8 3.8 0 0 0-5.2-1.5ZM427.7 250.9l-167 91.1a8 8 0 1 1-7.7-14l167-91.2a8 8 0 1 1 7.7 14ZM469.7 258.8l-196 107a8 8 0 0 1-7.8-14.1l196.1-107a8 8 0 1 1 7.7 14Z" fill="#f2f2f2"/><circle cx="197" cy="382.7" r="34" fill="#f2f2f2"/><path d="M705.7 165.7H329.4a48.2 48.2 0 0 0-48 48.1v441.9a48.2 48.2 0 0 0 48 48.1h376.3a48.2 48.2 0 0 0 48.2-48.1V213.8a48.2 48.2 0 0 0-48.2-48.1Z" fill="#e6e6e6"/><path d="M705.8 179.6H329.4a34.3 34.3 0 0 0-34.2 34.2v441.9a34.3 34.3 0 0 0 34.2 34.3h376.4a34.3 34.3 0 0 0 34.2-34.3V213.8a34.3 34.3 0 0 0-34.2-34.2Z" fill="#fff"/><path d="M652 287.4H511.9a8 8 0 0 1 0-16H652a8 8 0 1 1 0 16ZM685.1 314.5H511.8a8 8 0 1 1 0-16H685a8 8 0 0 1 0 16Z" fill="#0096b1"/><path d="M480.7 238.6H351.4a3.8 3.8 0 0 0-3.9 3.9v101a3.8 3.8 0 0 0 3.9 3.8h129.3a3.8 3.8 0 0 0 3.9-3.9v-101a3.8 3.8 0 0 0-3.9-3.8Z" fill="#e6e6e6"/><path d="M386.9 300.6a34 34 0 0 1-8.8 23c-5.7 6.3-14.1 10.4-22.6 8.7-7.8-1.6-14.2-8.4-13.4-16.7a12.4 12.4 0 0 1 15.3-11c7.4 1.9 10.4 12.6 4.2 17.6-1.5 1.2-3.7-.9-2.2-2.1 4.1-3.3 2.9-10.6-2-12.4-5.8-2.2-12 2.4-12.3 8.3-.5 7 4.8 12.2 11.4 13.5 7 1.3 14-2.3 18.9-7.3a31 31 0 0 0 8.5-21.6 1.5 1.5 0 0 1 3 0Z" fill="#2f2e41"/><circle cx="416.2" cy="266.2" r="53.5" fill="#0096b1"/><path d="M413.4 289v-2c3.7-.1 7-.3 9.4-2.1a6.1 6.1 0 0 0 2.4-4.6 3.5 3.5 0 0 0-1.1-2.9c-1.7-1.3-4.3-.9-6.2 0l-1.7.7 3.2-23.1 2 .2-2.7 19.8c2.6-.8 5-.5 6.6 1a5.5 5.5 0 0 1 2 4.4 8.1 8.1 0 0 1-3.3 6c-3.2 2.4-7.3 2.5-10.6 2.6ZM431.2 256.9H442v2h-10.8zM397.2 256.9H408v2h-10.8zM386.5 347.3a53 53 0 0 1 12.9-6 8.6 8.6 0 0 1 0-4.7 9.4 9.4 0 0 1 9.1-6.6h13a9.5 9.5 0 0 1 9.2 6.6 8.5 8.5 0 0 1 0 4.7 53.2 53.2 0 0 1 13 6Z" fill="#2f2e41"/><path d="M477.5 246.3a11.6 11.6 0 0 0-3.6-2.9 8.4 8.4 0 0 0-3.8-1 8.8 8.8 0 0 0-5.1 1.8c-4.1 2.9-7 9-7 16.3 0 9 4.5 16.5 10.3 17.8a8.3 8.3 0 0 0 1.8.2c6.6 0 12-8 12-18 0-5.8-1.8-11-4.6-14.2ZM367.5 243.8a8.6 8.6 0 0 0-4.4-1.3 8.4 8.4 0 0 0-3.9 1 11.6 11.6 0 0 0-3.5 2.8 22.1 22.1 0 0 0-4.6 14.2c0 7.7 3.3 14.4 7.9 16.9a8.5 8.5 0 0 0 4 1 7.7 7.7 0 0 0 1 0c6.2-.7 11-8.5 11-18 0-7.5-3-14-7.5-16.6Z" fill="#3f3d56"/><path d="M359.7 275.7a1.5 1.5 0 0 0 1.4-2 58.5 58.5 0 1 1 112.7-6.6 1.5 1.5 0 0 0 3 .6 61.5 61.5 0 1 0-118.5 7 1.5 1.5 0 0 0 1.4 1Z" fill="#3f3d56"/><path d="M443 231.5c2.2 2.9 1.1 6.8-1.1 9.3-3 3.2-7.6 3.4-11.6 2.8-4.5-.7-9.3-2.8-13.9-1.3-3.8 1.2-6.6 4.7-10.7 5.6-3.6.8-7.9-.3-9.1-4-.6-2 2.3-2.7 2.9-.9.8 2.5 4.3 2.4 6.3 1.8 3.2-1.1 5.7-3.8 9-5 3.6-1.6 7.7-1 11.5 0 3.6.7 7.7 2 11.3.4 2.6-1 4.8-4.6 2.9-7.2-1.2-1.6 1.4-3 2.5-1.5Z" fill="#2f2e41"/><path d="M651.9 415.4H461.6a8 8 0 1 1 0-16h190.3a8 8 0 0 1 0 16ZM685 442.5H461.5a8 8 0 1 1 0-16h223.3a8 8 0 1 1 0 16ZM651.9 512.6H461.6a8 8 0 1 1 0-16h190.3a8 8 0 1 1 0 16ZM685 539.7H461.5a8 8 0 1 1 0-16h223.3a8 8 0 1 1 0 16Z" fill="#e6e6e6"/><circle cx="386.2" cy="420.6" r="34" fill="#e6e6e6"/><circle cx="386.2" cy="518.6" r="34" fill="#e6e6e6"/><path d="M651.9 610.6H461.6a8 8 0 1 1 0-16h190.3a8 8 0 1 1 0 16ZM685 637.7H461.5a8 8 0 1 1 0-16h223.3a8 8 0 1 1 0 16Z" fill="#e6e6e6"/><circle cx="386.2" cy="616.6" r="34" fill="#e6e6e6"/></svg>