<?xml version="1.0" encoding="UTF-8"?>
<svg width="570" height="511.7" data-name="Layer 1" version="1.1" xmlns="http://www.w3.org/2000/svg">
 <path d="m7.4877 194.36 277.34-194.05 284.25 197.34 0.0168 307.26-1.5229 3.8708-4.1563 2.1257h-556.69l-3.8139-1.7966-1.9743-4.1953v-304.97l1.6911-3.7756z" fill="#fff"/>
 <path d="M565 195.7a1 1 0 0 1-.6-.2L288 2.9a5 5 0 0 0-5.8 0L7.6 195.5a1 1 0 0 1-1.2-1.6L281 1.3a7 7 0 0 1 8 0l276.6 192.6a1 1 0 0 1-.6 1.8Z" fill="#3f3d56"/>
 <path d="m23.3 202.5 262-194.2 264 208-250.5 148.5-136-31L23.3 202.5z" fill="#e6e6e6"/>
 <path d="m174.3 456.5h-129.5a6 6 0 1 1 0-12h129.5a6 6 0 1 1 0 12zm-83-26h-46.5a6 6 0 1 1 0-12h46.5a6 6 0 1 1 0 12z" fill="#0096b1"/>
 <path d="M289 310.7a7.6 7.6 0 0 1-3-.6l-161.5-67V33a7 7 0 0 1 7-7h310a7 7 0 0 1 7 7v210.1l-.3.1-156.3 66.8a7.6 7.6 0 0 1-3 .6Z" fill="#fff"/>
 <path d="M289 311.2a8 8 0 0 1-3.1-.6L124 243.4V33.2a7.5 7.5 0 0 1 7.5-7.5h310a7.5 7.5 0 0 1 7.5 7.5v210.3l-156.9 67a8.1 8.1 0 0 1-3.1.7ZM126 242l160.7 66.7a6.1 6.1 0 0 0 4.6 0L447 242.2v-209a5.5 5.5 0 0 0-5.5-5.5h-310a5.5 5.5 0 0 0-5.5 5.5Z" fill="#3f3d56"/>
 <path d="M563 193.7h-.2l-114.8 49-157 67a5 5 0 0 1-4 0l-162-67.1L7.4 193.8l-.2-.1H7a7 7 0 0 0-7 7v304a7 7 0 0 0 7 7h556a7 7 0 0 0 7-7v-304a7 7 0 0 0-7-7Zm5 311a5 5 0 0 1-5 5H7a5 5 0 0 1-5-5v-304a5 5 0 0 1 4.8-5l118.2 49 161.3 67a7.1 7.1 0 0 0 5.4-.1L448 244.9l115.2-49.2a5 5 0 0 1 4.8 5Z" fill="#3f3d56"/>
 <path d="M287.3 251.1a27.5 27.5 0 0 1-16.5-5.4l-.3-.3-62.3-47.7a27.7 27.7 0 1 1 33.7-44l40.3 31 95.4-124.4a27.7 27.7 0 0 1 38.8-5l-.6.7.6-.8a27.7 27.7 0 0 1 5.2 38.8L309.4 240.3a27.7 27.7 0 0 1-22 10.8Z" fill="#0096b1"/>
</svg>
