<svg xmlns="http://www.w3.org/2000/svg" clip-rule="evenodd" fill-rule="evenodd" stroke-linejoin="round" stroke-miterlimit="2" viewBox="58 155 444 90"><g fill-rule="nonzero"><path d="M89.2 198.3a67.5 67.5 0 0 1-31.2 25v-21.6c13-5.2 23.8-14 31.2-25zm0-21.6a67.6 67.6 0 0 0 31.3 25V180c-13-5.1-23.9-14-31.3-25zm0 43.3a67.5 67.5 0 0 0 31.3 25v-21.7c-13-5.1-23.9-14-31.3-25zm0 25v-25A67.6 67.6 0 0 1 58 245z" fill="#00a851"/><path d="M234.1 31.9h2.8c2.7 0 6.2-.7 6.2-4.8 0-3.6-3.4-4.1-5.5-4.1H234zm0 12h2.6c3.4 0 7.2-.9 7.2-4.9 0-4.5-4-5-7.6-5H234zm-2.5-23.1h6c4.1 0 8 1.4 8 6.2 0 3.3-1.5 5.2-4.6 5.8 3.2.7 5.4 2.8 5.4 6 0 5.6-4.5 7.3-9.8 7.3h-5V20.8zm28.8 16h-.6c-4 0-8.7.4-8.7 4.4 0 2.5 1.8 3.4 3.9 3.4 5.3 0 5.4-4.7 5.4-6.7zm.3 6.3h-.1c-1 2.3-3.6 3.4-5.9 3.4-5.2 0-6-3.5-6-5.2 0-6.2 6.5-6.5 11.3-6.5h.4v-1c0-3-1-4.7-4.2-4.7-1.9 0-3.7.5-5.4 1.6v-2.2c1.4-.7 3.8-1.3 5.4-1.3 4.6 0 6.5 2 6.5 6.9v8.1c0 1.5 0 2.6.2 4h-2.2v-3zm5.5-11.1-.1-4.4h2.2V31c.8-1.7 2.2-3.7 6-3.7 4.6 0 6.3 3 6.3 7v12h-2.3V34.8c0-3.5-1.2-5.8-4.4-5.8-4.1 0-5.4 3.7-5.4 6.8V46h-2.3V32zm18.7-12.8h2.3v16l8.3-7.6h3l-9.1 8.2 10.1 10.3h-3.1l-9.2-9.5v9.5H285zM62.6 25.4h-.1L58.7 36h7.6zm-2.9-5.2h5.9l10.1 25.9H70l-2.2-6H57.3l-2.3 6h-5.4zm57 22.5c3.9 0 4.9-3.4 4.9-6.6 0-3-1.6-5.7-4.8-5.7-3.3 0-4.8 2.8-4.8 5.7 0 3.1 1 6.6 4.8 6.6m0-16.2c5.6 0 10 3.9 10 10.2 0 5.5-3.7 9.8-10 9.8-6.4 0-10-4.3-10-9.8 0-6.3 4.3-10.2 10-10.2M146 19h5v4.8h-5zm0 8h5v19.2h-5zm53.3 7.8c-.2-2.4-1.3-4.5-4-4.5-2.9 0-4.3 2-4.5 4.5zm3.3 10c-1.7 1-3.9 1.8-6.6 1.8-6.3 0-10-3.6-10-9.9 0-5.5 3-10 9-10 7 0 9 4.8 9 11.5h-13.2c.2 3 2.4 4.8 5.5 4.8a13 13 0 0 0 6.3-2v3.8zm12.6-2c3.3 0 4.3-3.5 4.3-6.2s-1.2-6-4.4-6-4.1 3.4-4.1 6 .9 6.2 4.2 6.2m4.7 2.4-.2-1.1a7.1 7.1 0 0 1-6 2.6c-5.8 0-8-4.9-8-10.1 0-5.3 2.2-10 8-10 2.6 0 4.3.9 5.8 2.7V19h5v27.2H220zm-35 1c-1 .3-2.1.5-3.6.5-4 0-6-2.5-6-6.2v-9.8h-3.7V27h3.6v-2.6c2-.9 3.7-2.1 5-3.6V27h4.4v3.6h-4.4v9c0 1.6.5 3 2.4 3 .8 0 1.7-.1 2.2-.4zm-48.6-4c.7.4 1.6.6 2.5.6 1.4 0 2.6-.3 3.8-.8v3.8c-1.2.4-2.9.9-4.8.9-1.6 0-3-.3-4.2-.9-2.3-1-3.8-2.9-4.6-5.3-.4-1.2-.6-2.4-.6-3.8v-.1c0-1.4.2-2.6.6-3.8a8.2 8.2 0 0 1 4.6-5.3c1.2-.6 2.6-.8 4.2-.8 2 0 3.7.4 4.8.8v3.8c-1-.4-2.4-.8-3.8-.8-1 0-1.8.2-2.5.6-.5.3-1 .7-1.4 1.2a7.2 7.2 0 0 0-1.3 4.4c0 1.7.5 3.2 1.3 4.3.4.5.9.9 1.4 1.2m-54.4-9.8c0 3 8.6 1.1 8.6 8 0 4.5-4 6.3-8 6.3-1.8 0-4-.7-5.3-1.1v-3.8c1.5.7 3.1 1.2 4.8 1.2 1.3 0 3.3-.5 3.3-2.3 0-3.8-8.6-1.2-8.6-8.1 0-4.1 3.6-6 7.5-6 2.1 0 4.2.8 5 1V31c-1.5-.5-2.6-.8-4.4-.8-1.3 0-3 .5-3 2.1m15 0c0 3 8.7 1.1 8.7 8 0 4.5-4 6.3-8 6.3-1.8 0-4-.7-5.3-1.1v-3.8c1.5.7 3.2 1.2 4.9 1.2 1.2 0 3.2-.5 3.2-2.3 0-3.8-8.6-1.2-8.6-8.1 0-4.1 3.6-6 7.5-6 2.1 0 4.2.8 5 1V31c-1.5-.5-2.6-.8-4.4-.8-1.3 0-3 .5-3 2.1m68.1 8.9c-.8 1-2 1.7-3.5 1.7-1.8 0-3.1-.7-3.1-2.3 0-3 3.3-3.3 5.5-3.3h2.2c0 1.5-.3 2.8-1 3.9m5.6.6-.1-4.8v-2.4c0-5.6-2.4-8-8.2-8-2.1 0-4.5.7-6.5 1.6v4a10 10 0 0 1 5.9-2c2.9 0 4.3 1 4.3 4.1h-2.8c-2 0-4.5.2-6.4 1.1s-3.3 2.6-3.3 5.5c0 3.6 3.3 5.7 6.7 5.7 2.3 0 4.8-1.2 6-3.3 0 .6.2 2.4.4 2.8h4.2l-.2-4.3" fill="#00461c" style="fill:#fff" transform="translate(57.3 154.9) scale(1.4849)"/></g></svg>