<?xml version="1.0" standalone="no"?>
<!DOCTYPE svg PUBLIC "-//W3C//DTD SVG 20010904//EN"
 "http://www.w3.org/TR/2001/REC-SVG-20010904/DTD/svg10.dtd">
<svg version="1.0" xmlns="http://www.w3.org/2000/svg"
 width="2000.000000pt" height="2000.000000pt" viewBox="0 0 2000.000000 2000.000000"
 preserveAspectRatio="xMidYMid meet">

<g transform="translate(0.000000,2000.000000) scale(0.100000,-0.100000)"
fill="#775be5" stroke="none">
<path d="M7903 17228 c-6 -7 -13 -43 -17 -79 -12 -129 -64 -237 -156 -329 -87
-87 -188 -133 -323 -148 -108 -12 -108 -72 0 -84 135 -15 236 -61 324 -149 92
-91 141 -197 156 -333 6 -49 13 -72 26 -80 32 -21 51 4 60 80 30 276 225 461
511 486 36 4 56 31 40 56 -6 9 -24 18 -40 20 -284 25 -484 213 -510 481 -7 71
-17 91 -44 91 -10 0 -22 -6 -27 -12z m67 -326 c46 -88 154 -197 237 -237 34
-16 62 -32 62 -35 0 -3 -28 -18 -62 -35 -83 -40 -191 -149 -237 -237 -19 -38
-37 -68 -40 -68 -3 0 -21 30 -40 68 -46 88 -154 197 -237 237 -34 17 -62 32
-62 35 0 3 28 19 62 35 83 40 191 149 237 237 19 38 37 68 40 68 3 0 21 -30
40 -68z"/>
<path d="M16022 15468 c-5 -7 -13 -39 -17 -72 -32 -267 -221 -454 -489 -483
-76 -9 -101 -28 -80 -60 8 -13 31 -20 80 -26 185 -20 335 -117 423 -271 37
-65 63 -155 63 -218 0 -49 16 -78 43 -78 27 0 43 29 43 78 0 63 26 153 63 218
87 154 239 251 423 271 49 6 72 13 80 26 20 31 -4 51 -71 59 -179 20 -320 105
-414 250 -47 73 -68 134 -78 228 -7 68 -18 89 -47 90 -6 0 -16 -6 -22 -12z
m46 -290 c48 -108 165 -225 280 -281 23 -12 42 -23 42 -26 0 -4 -28 -19 -63
-36 -83 -40 -204 -158 -246 -242 -17 -35 -33 -63 -36 -63 -2 0 -19 28 -36 63
-45 85 -165 203 -246 242 -35 17 -63 33 -63 36 0 3 28 19 62 35 86 40 203 156
249 246 19 38 35 68 36 68 1 0 11 -19 21 -42z"/>
<path d="M7398 15419 c-175 -26 -286 -167 -244 -312 31 -104 90 -149 272 -207
138 -44 176 -66 193 -116 12 -36 12 -44 -4 -77 -29 -62 -79 -82 -200 -81 -82
0 -114 5 -179 28 -44 15 -85 25 -93 22 -23 -9 -16 -84 11 -111 44 -44 218 -81
326 -70 188 20 302 123 301 272 0 136 -52 188 -252 254 -158 52 -196 72 -216
115 -15 31 -16 39 -3 76 11 31 25 46 55 62 56 29 195 28 280 -2 32 -12 65 -22
71 -22 18 0 26 34 18 75 -5 28 -14 40 -43 54 -67 34 -206 53 -293 40z"/>
<path d="M5252 15404 c-131 -35 -162 -58 -162 -124 0 -52 11 -55 96 -25 45 16
110 30 151 33 189 13 253 -41 253 -213 l0 -67 -32 6 c-207 42 -342 24 -434
-57 -61 -54 -85 -109 -85 -199 0 -111 40 -186 125 -231 35 -19 57 -22 146 -22
96 0 110 3 158 28 29 15 71 44 94 65 23 20 43 32 45 26 2 -6 17 -32 33 -58 22
-33 36 -46 53 -46 25 0 107 53 107 69 0 5 -10 30 -22 57 -21 46 -23 67 -28
304 -6 239 -7 258 -29 308 -32 71 -94 125 -169 146 -72 20 -226 20 -300 0z
m298 -493 c35 -7 35 -7 38 -64 4 -75 -23 -136 -77 -175 -74 -54 -195 -66 -255
-27 -27 18 -56 82 -56 123 1 46 36 109 72 128 56 30 169 36 278 15z"/>
<path d="M5854 15387 c-5 -15 242 -835 258 -854 7 -8 37 -13 83 -13 46 0 76 5
83 13 5 6 45 159 88 340 43 180 81 327 84 327 3 0 41 -147 84 -327 44 -181 83
-334 89 -340 14 -18 151 -17 166 1 16 19 261 809 261 840 0 25 -2 26 -69 26
-44 0 -72 -5 -79 -13 -6 -7 -51 -167 -99 -355 -48 -188 -90 -342 -94 -342 -3
0 -40 150 -83 333 -43 182 -85 342 -92 355 -13 19 -23 22 -83 22 -43 0 -72 -5
-79 -12 -6 -7 -44 -159 -86 -338 -42 -179 -80 -334 -85 -344 -5 -14 -34 85
-93 323 -48 188 -92 348 -98 356 -16 20 -148 21 -156 2z"/>
<path d="M11425 15384 c-127 -11 -384 -47 -520 -74 -1260 -252 -2348 -1085
-2926 -2240 -42 -86 -94 -196 -114 -245 -21 -50 -39 -93 -41 -97 -3 -4 -42 23
-87 59 -259 210 -556 345 -902 410 -111 21 -429 29 -552 14 -364 -45 -668
-167 -964 -387 -478 -355 -779 -952 -779 -1547 l0 -113 -127 -18 c-614 -88
-1201 -385 -1654 -836 -452 -450 -741 -1021 -841 -1661 -31 -199 -33 -678 -4
-864 77 -497 278 -953 597 -1355 161 -204 439 -462 646 -601 43 -29 83 -58 88
-65 19 -23 252 -156 425 -243 606 -303 1276 -508 1926 -590 163 -21 429 -41
541 -41 l63 0 0 40 0 40 -77 0 c-118 0 -350 18 -526 40 -639 82 -1311 290
-1907 590 -162 82 -387 210 -399 228 -4 4 -53 41 -110 81 -568 403 -966 969
-1132 1610 -56 218 -71 334 -76 611 -6 283 7 445 53 665 169 811 667 1498
1390 1920 317 185 718 320 1086 365 48 6 95 13 103 16 12 5 15 31 15 150 0
357 90 689 265 979 278 460 728 776 1265 886 102 21 142 24 355 24 274 0 370
-14 588 -85 229 -76 486 -222 656 -375 49 -44 80 -65 94 -63 16 2 32 31 74
133 207 505 507 957 893 1346 686 692 1571 1111 2538 1204 199 19 575 19 773
0 774 -74 1492 -354 2112 -823 276 -208 589 -523 804 -807 500 -663 794 -1486
820 -2300 3 -99 9 -187 14 -196 4 -8 66 -36 137 -62 952 -349 1686 -1172 1926
-2161 65 -267 86 -446 86 -740 0 -455 -85 -849 -273 -1273 -117 -263 -335
-594 -521 -791 l-49 -52 23 -25 c13 -14 28 -25 33 -25 26 0 221 244 349 435
117 176 265 468 334 660 61 171 126 433 154 620 28 189 38 543 20 737 -100
1105 -755 2060 -1755 2560 -90 46 -363 158 -382 158 -6 0 -12 65 -16 168 -49
1318 -752 2563 -1867 3307 -552 368 -1128 583 -1810 676 -124 16 -219 21 -470
24 -173 1 -337 1 -365 -1z"/>
<path d="M7521 14280 c-79 -21 -155 -60 -164 -84 -5 -13 17 -15 171 -10 195 7
226 1 243 -43 13 -35 -10 -144 -57 -267 -19 -48 -34 -94 -34 -102 0 -28 29
-13 75 38 80 89 141 234 152 363 6 81 -2 97 -65 115 -62 17 -238 11 -321 -10z"/>
<path d="M4910 14226 c0 -26 196 -182 335 -266 515 -314 1122 -402 1725 -250
151 38 258 77 405 150 162 79 259 146 263 183 4 34 -17 44 -61 29 -18 -6 -96
-33 -173 -61 -558 -197 -1145 -219 -1732 -66 -195 51 -365 116 -558 211 -173
85 -204 96 -204 70z"/>
<path d="M3130 12751 c-5 -11 -10 -39 -10 -64 0 -24 -7 -68 -16 -98 -63 -210
-225 -352 -438 -382 -63 -9 -92 -18 -100 -30 -19 -31 5 -51 70 -59 135 -17
261 -76 341 -160 75 -79 143 -232 143 -325 0 -57 14 -83 45 -83 30 0 45 26 45
77 0 105 63 245 150 333 89 90 194 140 334 158 65 8 89 29 70 59 -7 12 -36 21
-98 30 -216 31 -387 182 -441 388 -8 33 -15 77 -15 98 0 51 -15 77 -45 77 -14
0 -29 -8 -35 -19z m68 -310 c55 -103 148 -195 249 -249 29 -15 53 -29 53 -32
0 -3 -26 -18 -58 -34 -81 -42 -209 -173 -247 -253 l-29 -62 -30 62 c-40 80
-169 212 -248 253 -32 16 -58 32 -58 35 0 3 19 15 42 25 93 42 201 147 261
255 17 31 33 56 34 55 1 -1 15 -26 31 -55z"/>
<path d="M17162 12758 c-6 -6 -12 -28 -12 -47 -1 -168 -124 -363 -279 -445
-71 -37 -171 -66 -232 -66 -39 0 -63 -19 -57 -46 4 -24 22 -31 110 -42 160
-20 317 -129 391 -270 40 -76 55 -128 65 -215 8 -67 28 -91 60 -71 12 8 19 31
24 80 14 127 57 221 143 313 94 100 199 153 335 168 52 6 76 13 84 26 20 31
-5 51 -71 59 -87 10 -139 25 -215 65 -141 74 -250 231 -270 391 -6 42 -13 84
-18 92 -9 19 -42 24 -58 8z m57 -305 c50 -104 161 -214 269 -266 23 -12 42
-24 42 -27 0 -4 -19 -15 -42 -26 -98 -44 -222 -166 -268 -265 -13 -27 -26 -49
-30 -49 -3 0 -15 19 -27 43 -52 106 -165 221 -264 267 -27 13 -49 26 -49 29 0
3 24 18 53 34 103 53 201 151 254 254 16 29 30 53 34 53 3 0 15 -21 28 -47z"/>
<path d="M7190 9588 c0 -1229 -1 -1197 60 -1317 63 -126 167 -193 329 -214
103 -13 233 -1 336 31 l60 18 3 172 2 172 -87 -2 c-104 -3 -146 11 -171 56
-16 29 -17 116 -20 1119 l-2 1087 -255 0 -255 0 0 -1122z"/>
<path d="M13740 10250 c0 -284 -4 -460 -9 -460 -6 0 -31 14 -57 31 -115 78
-264 119 -433 119 -190 0 -338 -55 -466 -172 -189 -173 -281 -405 -292 -738
-17 -492 170 -843 510 -957 75 -25 95 -27 237 -28 122 0 168 4 215 18 85 26
191 79 253 127 29 22 54 40 56 40 5 0 20 -44 36 -107 l11 -43 224 0 225 0 0
1315 0 1315 -255 0 -255 0 0 -460z m-183 -711 c29 -7 81 -26 115 -43 l63 -31
3 -467 2 -468 -39 -25 c-96 -64 -273 -98 -386 -75 -154 31 -241 124 -292 310
-25 93 -25 407 0 500 49 180 131 276 264 310 46 11 199 5 270 -11z"/>
<path d="M6060 10579 c-398 -26 -705 -188 -895 -474 -94 -140 -150 -291 -187
-495 -27 -152 -29 -454 -4 -613 85 -542 374 -848 891 -943 137 -25 487 -26
625 -1 97 18 253 57 303 76 l27 11 0 206 0 207 -32 -7 c-400 -81 -602 -92
-797 -46 -229 55 -386 212 -445 445 -38 150 -47 500 -16 645 50 236 152 385
321 471 105 52 189 70 359 76 161 5 290 -7 481 -46 l89 -18 0 208 0 208 -71
21 c-39 12 -115 30 -169 40 -87 17 -138 23 -315 34 -27 1 -102 -1 -165 -5z"/>
<path d="M8950 9934 c-307 -55 -510 -200 -630 -448 -90 -188 -123 -466 -85
-716 59 -390 291 -651 646 -724 236 -48 484 -23 674 69 274 133 422 375 456
746 20 215 -13 446 -86 605 -77 168 -205 304 -359 379 -142 70 -221 87 -421
91 -93 1 -181 0 -195 -2z m317 -413 c103 -46 175 -151 209 -307 23 -109 23
-350 0 -459 -54 -248 -192 -361 -413 -335 -202 25 -306 188 -320 505 -15 337
70 543 250 607 72 26 202 20 274 -11z"/>
<path d="M10420 9173 c0 -788 0 -784 61 -905 40 -79 118 -157 193 -192 220
-104 566 -47 840 137 38 26 72 47 75 47 4 0 18 -40 30 -90 l24 -90 213 0 214
0 0 905 0 905 -260 0 -260 0 -2 -682 -3 -683 -75 -37 c-97 -49 -176 -69 -276
-70 -96 -1 -153 20 -201 75 -58 66 -57 56 -61 755 l-3 642 -254 0 -255 0 0
-717z"/>
<path d="M9422 6253 l3 -1148 23 -65 c48 -132 125 -217 239 -261 106 -41 322
-38 471 6 l52 16 0 172 0 173 -92 -4 c-85 -4 -96 -2 -128 20 -26 17 -38 35
-47 68 -8 33 -12 331 -12 1108 l-1 1062 -255 0 -255 0 2 -1147z"/>
<path d="M12720 6085 l0 -1315 213 0 214 0 12 53 c6 30 16 71 22 92 l11 37 36
-35 c161 -154 460 -224 697 -162 213 56 395 230 489 468 105 264 113 636 21
907 -70 207 -205 365 -379 445 -76 35 -211 65 -295 65 -151 0 -344 -64 -474
-156 -26 -19 -49 -34 -52 -34 -3 0 -5 214 -5 475 l0 475 -255 0 -255 0 0
-1315z m1035 137 c99 -45 158 -126 197 -270 28 -104 31 -398 5 -512 -32 -143
-98 -239 -195 -287 -54 -26 -65 -28 -187 -28 -138 0 -161 5 -277 57 l-68 31 0
472 0 472 68 31 c104 48 172 62 297 59 89 -2 120 -7 160 -25z"/>
<path d="M8186 7265 c-278 -40 -500 -146 -670 -319 -174 -178 -280 -418 -316
-718 -16 -130 -8 -474 14 -593 80 -430 317 -717 691 -838 301 -98 738 -94
1063 9 l82 26 0 208 0 208 -63 -14 c-234 -49 -313 -58 -507 -58 -223 -1 -271
8 -406 74 -223 109 -334 356 -334 748 0 213 37 401 103 527 41 77 145 181 222
222 144 75 324 104 539 85 115 -11 308 -40 384 -59 l22 -5 0 206 0 206 -27 11
c-192 73 -564 107 -797 74z"/>
<path d="M15355 6630 c-276 -39 -471 -173 -536 -367 -17 -52 -23 -91 -23 -163
1 -160 45 -272 146 -365 80 -74 156 -114 398 -211 248 -98 280 -114 313 -154
68 -80 37 -209 -61 -253 -103 -46 -378 -30 -648 38 -77 19 -142 35 -146 35 -5
0 -8 -76 -8 -169 l0 -169 103 -40 c133 -52 252 -79 409 -92 330 -28 590 56
741 238 71 85 106 178 114 302 14 211 -66 363 -246 470 -38 23 -165 80 -283
129 -332 136 -360 155 -360 249 0 66 27 104 90 129 40 15 75 18 227 17 184 -1
188 -1 443 -61 l22 -5 0 169 0 169 -87 32 c-49 18 -131 42 -183 52 -108 23
-334 33 -425 20z"/>
<path d="M10564 6576 c-3 -8 -4 -335 -2 -727 5 -784 3 -760 67 -887 88 -175
246 -251 495 -239 190 9 381 76 546 191 36 25 68 42 71 38 3 -4 12 -29 18 -57
7 -27 16 -67 22 -87 l10 -38 209 0 210 0 0 910 0 910 -255 0 -255 0 0 -685 0
-684 -84 -41 c-189 -91 -370 -94 -461 -6 -76 73 -75 61 -75 783 l0 633 -255 0
c-209 0 -257 -3 -261 -14z"/>
</g>
</svg>
