<?xml version="1.0" encoding="utf-8"?>
<!-- Generator: Adobe Illustrator 25.0.1, SVG Export Plug-In . SVG Version: 6.00 Build 0)  -->
<svg version="1.1" id="katman_1" xmlns="http://www.w3.org/2000/svg" xmlns:xlink="http://www.w3.org/1999/xlink" x="0px" y="0px"
	 viewBox="0 0 2987.8 1691.3" style="enable-background:new 0 0 2987.8 1691.3;" xml:space="preserve">
<style type="text/css">
	.st0{fill:#F6D33C;}
</style>
<path d="M874.7,1292.1c50.3-41.9,59-93.9,59-140.4V955.8H660.3v265.7c0,38-30.8,68.8-68.8,68.8c-38,0-66.2-30.8-66.2-68.8V468.8
	c0-38,28.2-68.8,66.2-68.8c37.9,0,68.8,30.7,68.8,68.8v267.4h273V458.8c0-153.2-100.2-279.3-344.1-279.7
	C338.7,179.1,244,305.8,244,459.1V1245c0,151.9,120.6,266.9,274.8,266.8h84.7L874.7,1292.1 M1952.4,1322.9V459.3h-188.6V204.9h682.8
	v254.4H2257v1051h-80.9L1952.4,1322.9"/>
<path class="st0" d="M2074.8,1512.1l-665-557.1l-689.1,557.1H2074.8"/>
<path d="M1599.7,206.3h-381l-222,995.8L1410,868.6l430.9,361.1L1599.7,206.3z M1336.3,804.7l73.7-376.3l73.1,376.3H1336.3z
	 M2654.1,246.3c21.3,0,39.4,7.5,54.4,22.6c14.9,15,22.4,33.1,22.4,54.4c0,21.4-7.5,39.7-22.4,54.7c-15,15.1-33.1,22.6-54.4,22.6
	c-21.4,0-39.6-7.5-54.4-22.6c-14.6-14.4-22.7-34.2-22.3-54.7c0-21.2,7.5-39.4,22.4-54.4C2613.9,254.2,2633.6,246,2654.1,246.3z
	 M2743.8,323.2c0-24.6-8.7-45.6-26.2-63c-17.5-17.3-38.5-26-63.3-26c-23.7-0.4-46.4,9-63,26c-17.1,16.5-26.5,39.3-26.2,63
	c0,24.8,8.6,45.9,25.9,63.4c17.4,17.5,38.5,26.3,63.2,26.3s45.9-8.7,63.3-26.3C2735,369.1,2743.8,347.9,2743.8,323.2L2743.8,323.2z
	 M2678,304c0,7.5-3.4,12.6-10.2,15.2c-5.4,1.7-11,2.4-16.6,2.2h-15.7v-35.3h14.9C2669.7,286.1,2678,289.8,2678,304L2678,304z
	 M2618.1,274v98h17.3v-38.5h13.7c9.2,0,15.6,1,19.3,3.1c6.2,3.6,9.3,11.1,9.3,22.3v7.8l0.4,3.1c0,0.4,0.1,0.7,0.2,1.1l0.3,0.9h16.1
	l-0.6-1.2c-1-7.7-1.1-19.5-1.1-19.5c-0.2-12.5-9.4-23-21.8-24.7c17.4-2.9,23.6-10.7,23.6-24.1c0-12.4-5.1-20.6-15.2-24.9
	c-5.7-2.4-14.7-3.5-26.8-3.5L2618.1,274L2618.1,274z"/>
</svg>
