<svg version="1.1" id="Layer_1" xmlns="http://www.w3.org/2000/svg" xmlns:xlink="http://www.w3.org/1999/xlink" x="0px" y="0px"
	 width="100%" viewBox="0 0 2500 1547" enable-background="new 0 0 2500 1547" xml:space="preserve">
<path fill="#CE1443" opacity="1.000000" stroke="none" 
	d="
M554.532104,1102.743652 
	C544.381348,1105.011841 534.738953,1107.335327 524.518433,1107.135986 
	C502.041779,1106.697632 479.550720,1107.000000 457.065552,1107.000000 
	C455.262787,1107.000000 453.460052,1107.000000 451.330353,1107.000000 
	C451.330353,1044.938354 451.330353,983.256958 451.330353,921.000183 
	C453.235443,921.000183 455.013275,921.000183 456.791107,921.000183 
	C477.277618,921.000122 497.764648,921.093384 518.250427,920.972595 
	C536.913147,920.862549 554.885376,924.216980 571.214355,933.281616 
	C585.346558,941.126831 596.336975,952.565063 602.929749,967.578796 
	C606.035767,974.652100 609.705872,981.908691 610.665039,989.396729 
	C612.266724,1001.900818 612.314880,1014.661987 612.176758,1027.305786 
	C612.109985,1033.417480 610.428833,1039.580200 608.965210,1045.594849 
	C605.037476,1061.735840 596.541992,1075.046387 584.053406,1086.082642 
	C575.428162,1093.705078 565.430237,1098.510376 554.532104,1102.743652 
M482.000000,1054.500000 
	C482.000000,1063.582397 482.000000,1072.664673 482.000000,1082.000000 
	C492.740936,1082.000000 502.723602,1081.782227 512.692810,1082.056519 
	C524.527222,1082.382324 535.902222,1080.496338 546.801086,1075.943726 
	C562.767029,1069.274292 572.309448,1056.637695 577.811462,1040.878540 
	C581.314697,1030.844604 581.162292,1020.196228 581.101135,1009.595154 
	C581.019043,995.371338 577.028137,982.532837 568.955750,970.977783 
	C560.375488,958.695801 548.621094,950.788452 533.709290,949.150513 
	C520.271179,947.674438 506.674164,947.623535 493.143707,947.024109 
	C489.549225,946.864807 485.941711,947.000000 482.000000,947.000000 
	C482.000000,982.948425 482.000000,1018.224182 482.000000,1054.500000 
z"/>
<path fill="#CE1443" opacity="1.000000" stroke="none" 
	d="
M666.000122,1326.000000 
	C666.000122,1308.833374 666.113770,1292.165649 665.951172,1275.500610 
	C665.872253,1267.419800 663.493286,1260.172852 657.239990,1254.454712 
	C652.449585,1250.074341 640.582153,1248.775513 634.825256,1251.431641 
	C622.598206,1257.072632 618.922852,1267.063599 618.971252,1279.512573 
	C619.067871,1304.345459 618.999878,1329.179077 618.999878,1354.012329 
	C618.999878,1355.808838 618.999817,1357.605469 618.999817,1359.698608 
	C609.308228,1359.698608 600.047791,1359.698608 590.000244,1359.698608 
	C590.000244,1358.002075 590.000183,1356.251831 590.000183,1354.501587 
	C590.000122,1327.168335 590.301636,1299.830078 589.855042,1272.504028 
	C589.670776,1261.232300 584.996155,1254.080200 575.334534,1250.845093 
	C568.419250,1248.529419 561.783447,1249.889526 555.692688,1253.845337 
	C554.098999,1254.880493 552.531433,1255.961670 551.004333,1257.092529 
	C544.597534,1261.836792 542.622498,1267.974121 542.794800,1276.083496 
	C543.346802,1302.071777 542.999878,1328.078979 542.999878,1354.078979 
	C542.999878,1355.869507 542.999817,1357.660156 542.999817,1359.722168 
	C533.258911,1359.722168 523.999451,1359.722168 514.368774,1359.722168 
	C514.368774,1315.987183 514.368774,1272.276855 514.368774,1228.009155 
	C521.246826,1228.009155 528.068665,1227.597656 534.781494,1228.271729 
	C536.679138,1228.462402 538.609619,1231.623413 539.870667,1233.801025 
	C540.860168,1235.510010 540.841187,1237.802856 541.473511,1240.799805 
	C551.864441,1230.764282 563.209900,1225.519653 577.420654,1225.775513 
	C592.499756,1226.047119 601.817566,1233.707275 608.729919,1246.852661 
	C613.668274,1237.594849 621.289062,1232.630249 629.750366,1228.937744 
	C633.273132,1227.400513 637.242615,1226.315430 641.061035,1226.136353 
	C651.566101,1225.643677 662.319458,1225.003174 671.989746,1230.152222 
	C681.195740,1235.054077 687.561523,1242.371704 691.294373,1252.598755 
	C694.454529,1261.256958 693.910034,1269.829346 693.954407,1278.513794 
	C694.082947,1303.679810 693.999878,1328.846924 693.999878,1354.013550 
	C693.999878,1355.809937 693.999817,1357.606323 693.999817,1359.698975 
	C684.640930,1359.698975 675.713806,1359.698975 666.000122,1359.698975 
	C666.000122,1348.673706 666.000122,1337.586914 666.000122,1326.000000 
z"/>
<path fill="#CE1443" opacity="1.000000" stroke="none" 
	d="
M1302.000000,1101.852539 
	C1302.000000,1077.875488 1302.239990,1054.379761 1301.860352,1030.894043 
	C1301.739502,1023.419983 1300.401123,1015.880859 1298.833740,1008.539368 
	C1297.309570,1001.401123 1285.621460,995.821167 1278.244873,996.698242 
	C1268.622681,997.842224 1262.285889,1003.606140 1256.220093,1010.057617 
	C1255.217163,1011.124207 1255.052246,1013.283264 1255.048340,1014.938721 
	C1254.981323,1043.595337 1255.000000,1072.252197 1255.000000,1100.908936 
	C1255.000000,1102.714478 1255.000000,1104.519897 1255.000000,1106.661377 
	C1245.264282,1106.661377 1235.889648,1106.661377 1226.256226,1106.661377 
	C1226.256226,1062.889893 1226.256226,1019.308167 1226.256226,975.116882 
	C1233.219238,975.116882 1240.160645,974.851501 1247.049438,975.335449 
	C1248.466309,975.435059 1250.173340,978.147278 1250.875977,979.987732 
	C1251.785278,982.368958 1251.820679,985.083923 1252.215698,987.551819 
	C1256.680176,984.347229 1260.766602,980.673523 1265.490356,978.233521 
	C1270.129883,975.836853 1275.344727,973.604553 1280.437134,973.268250 
	C1287.205444,972.821289 1294.199463,973.760132 1300.915161,975.048950 
	C1309.963379,976.785461 1314.698730,983.718262 1318.258301,991.578613 
	C1318.563477,992.252380 1319.048462,992.844666 1318.682129,992.269470 
	C1324.821167,987.297546 1330.740601,981.919495 1337.280518,977.448914 
	C1340.636719,975.154724 1345.042114,973.502502 1349.074951,973.261597 
	C1360.421509,972.583801 1372.105835,971.544617 1382.773560,976.511230 
	C1393.122314,981.329346 1399.482178,989.991882 1403.049683,1000.861511 
	C1405.776367,1009.169556 1406.088623,1017.630005 1406.047119,1026.245972 
	C1405.918457,1052.893311 1406.000000,1079.541748 1406.000000,1106.594482 
	C1396.404297,1106.594482 1387.027466,1106.594482 1377.000000,1106.594482 
	C1377.000000,1104.844849 1377.000000,1103.076050 1377.000000,1101.307373 
	C1377.000000,1074.816528 1377.278564,1048.320435 1376.774902,1021.839050 
	C1376.668701,1016.252319 1374.733276,1010.093933 1371.834229,1005.288757 
	C1365.094116,994.116699 1348.397095,993.846619 1339.341797,1002.411621 
	C1332.768188,1008.629456 1329.885864,1016.527527 1329.941895,1025.715210 
	C1330.105347,1052.531860 1330.000000,1079.349976 1330.000000,1106.583496 
	C1320.761108,1106.583496 1311.717041,1106.583496 1302.296509,1106.583496 
	C1302.201050,1105.216187 1302.100586,1103.776978 1302.000000,1101.852539 
z"/>
<path fill="#CE1443" opacity="1.000000" stroke="none" 
	d="
M233.634140,1291.217163 
	C240.179199,1313.038330 253.912079,1327.608154 275.489288,1333.430054 
	C283.024323,1335.463257 291.483124,1334.113770 299.521210,1334.229736 
	C306.949249,1334.336792 313.602509,1331.652222 319.870056,1328.026978 
	C323.655273,1325.837524 327.275085,1323.314575 330.763428,1320.670044 
	C336.098724,1316.625732 341.246582,1316.739624 345.933655,1321.375000 
	C348.615631,1324.027466 351.816467,1326.398804 353.670807,1329.551392 
	C354.742218,1331.372681 354.618469,1335.739136 353.287598,1336.828613 
	C345.465057,1343.233276 337.773895,1350.383789 328.781982,1354.608765 
	C319.993561,1358.737793 309.794006,1360.250122 300.037292,1361.797974 
	C293.375580,1362.854614 286.408264,1362.117310 279.581787,1361.977295 
	C261.348145,1361.603271 245.038544,1355.646484 230.810898,1344.325439 
	C220.361465,1336.010864 212.773956,1325.529785 207.465530,1313.159302 
	C201.828079,1300.022217 198.859818,1286.586426 198.878464,1272.254028 
	C198.894196,1260.162354 198.595291,1247.997925 202.183014,1236.424683 
	C207.875717,1218.061279 216.961823,1201.743286 232.938812,1189.918213 
	C240.947174,1183.990845 249.680725,1179.657471 259.001556,1176.700928 
	C265.322418,1174.695923 272.089630,1173.404785 278.704285,1173.179688 
	C288.942535,1172.831665 299.372925,1172.679443 309.447021,1174.229858 
	C324.801758,1176.592896 338.525696,1183.370361 350.246826,1193.798706 
	C353.425537,1196.626953 352.270264,1199.899414 350.555420,1202.794067 
	C348.560333,1206.161865 346.428833,1209.574829 343.740143,1212.376587 
	C339.509003,1216.785645 334.840790,1218.306030 326.859222,1212.226685 
	C315.119965,1203.285034 301.851410,1199.597656 287.372437,1200.056274 
	C272.545868,1200.525879 259.329651,1206.155640 248.920013,1216.302734 
	C239.569092,1225.417725 234.464447,1237.363037 231.918594,1250.424927 
	C229.577682,1262.435425 229.154144,1274.213867 232.500854,1286.044067 
	C232.944946,1287.613770 233.107895,1289.263062 233.634140,1291.217163 
z"/>
<path fill="#CE1443" opacity="1.000000" stroke="none" 
	d="
M1397.190430,1355.959839 
	C1390.234741,1351.809448 1383.190552,1348.291992 1377.223511,1343.447998 
	C1370.159180,1337.713013 1370.438965,1335.338623 1376.056641,1327.979858 
	C1376.642334,1327.212646 1377.260620,1326.454224 1377.729614,1325.616699 
	C1382.196045,1317.640625 1390.281006,1316.328247 1397.661011,1322.087402 
	C1408.260376,1330.359009 1419.797974,1336.897339 1433.776367,1335.892090 
	C1449.394531,1334.769043 1460.404419,1329.340332 1465.542725,1311.937500 
	C1467.781250,1304.356079 1463.151489,1292.690430 1455.478760,1289.145996 
	C1445.635620,1284.599121 1435.483032,1280.620605 1425.218994,1277.113892 
	C1413.723877,1273.186768 1401.962402,1269.686890 1392.974365,1261.194458 
	C1386.387573,1254.970947 1381.303467,1247.320923 1381.038818,1237.674561 
	C1380.822998,1229.805542 1380.522217,1221.891968 1381.096313,1214.059570 
	C1381.856812,1203.683472 1387.116455,1195.113159 1394.583618,1188.255493 
	C1405.527222,1178.205200 1418.436646,1172.694214 1433.651489,1172.926514 
	C1444.386475,1173.090454 1455.193848,1172.396851 1465.502686,1176.088745 
	C1474.378662,1179.267700 1482.922241,1183.342285 1489.500732,1190.283447 
	C1490.917847,1191.778564 1491.227173,1195.437378 1490.514038,1197.592285 
	C1489.255981,1201.393799 1487.119873,1205.015503 1484.804688,1208.330688 
	C1481.283813,1213.372437 1476.848511,1215.571289 1467.752441,1209.265625 
	C1458.460083,1202.823853 1448.410034,1197.970703 1436.784668,1199.111450 
	C1425.985718,1200.171143 1416.286133,1203.818848 1411.145508,1214.607300 
	C1406.776489,1223.776489 1408.532104,1231.270020 1417.201782,1238.633667 
	C1423.509766,1243.991455 1431.259155,1246.451782 1438.985962,1249.108398 
	C1452.613037,1253.793579 1466.814331,1257.245850 1478.671997,1266.131104 
	C1488.758911,1273.689453 1494.770142,1283.731567 1494.787109,1296.273804 
	C1494.799927,1305.730103 1494.355103,1315.595703 1491.696167,1324.562134 
	C1486.053955,1343.587402 1472.355591,1355.205200 1453.189819,1359.921631 
	C1436.868896,1363.937866 1420.482056,1362.898193 1404.266235,1358.887695 
	C1401.941650,1358.312866 1399.803223,1356.984985 1397.190430,1355.959839 
z"/>
<path fill="#CE1443" opacity="1.000000" stroke="none" 
	d="
M781.966614,975.000122 
	C795.827698,975.000122 796.461121,975.608215 797.189148,989.432251 
	C802.686096,985.587769 807.726074,981.162415 813.530029,978.269897 
	C818.795227,975.645813 824.806396,974.217712 830.651001,973.156006 
	C835.005798,972.364990 839.646606,973.320190 844.113220,972.942871 
	C860.663635,971.544861 877.237549,987.361816 882.594727,1000.404480 
	C889.276550,1016.671753 889.622498,1033.260864 888.785889,1049.982666 
	C887.917969,1067.328125 882.429565,1083.218018 869.050049,1095.545166 
	C859.634583,1104.219971 848.593201,1108.406250 836.006592,1108.989380 
	C826.201782,1109.443604 816.562134,1108.760498 807.685608,1103.993408 
	C805.277893,1102.700317 803.029053,1101.111572 800.179993,1099.328613 
	C800.179993,1116.230591 800.179993,1132.750244 800.179993,1149.632080 
	C790.325623,1149.632080 780.950073,1149.632080 771.285522,1149.632080 
	C771.285522,1091.618774 771.285522,1033.707153 771.285522,975.000122 
	C774.645142,975.000122 778.062500,975.000122 781.966614,975.000122 
M807.017883,1006.476746 
	C800.902222,1010.662476 799.596985,1016.481140 799.844177,1023.666138 
	C800.359375,1038.641357 799.973389,1053.646606 800.039429,1068.639282 
	C800.046387,1070.213257 800.112427,1072.152100 800.976990,1073.299072 
	C807.410828,1081.834473 816.313782,1086.302002 826.792969,1085.830811 
	C842.840637,1085.109131 852.089172,1076.366577 856.682434,1062.085083 
	C862.212280,1044.891357 861.624023,1027.503174 854.067444,1010.648071 
	C850.639160,1003.001160 836.848389,994.654663 828.892395,996.128113 
	C820.969116,997.595581 813.357361,999.889465 807.017883,1006.476746 
z"/>
<path fill="#CE1443" opacity="1.000000" stroke="none" 
	d="
M788.906494,1362.000000 
	C780.027039,1362.055054 771.530640,1362.719360 763.641052,1358.951416 
	C759.554749,1356.999878 755.629333,1354.711548 751.102661,1352.293091 
	C751.102661,1369.584595 751.102661,1386.447388 751.102661,1403.652222 
	C741.620239,1403.652222 732.581665,1403.652222 723.270020,1403.652222 
	C723.270020,1345.275024 723.270020,1287.050537 723.270020,1228.082397 
	C730.097656,1228.082397 737.035767,1227.755493 743.896667,1228.337891 
	C745.404114,1228.465942 747.167053,1231.649414 747.867188,1233.742065 
	C748.818481,1236.585327 748.860291,1239.732910 749.406494,1243.548828 
	C761.734802,1230.770142 776.191895,1224.242310 793.196106,1225.120239 
	C811.526733,1226.066406 825.267761,1234.472534 833.428406,1251.625244 
	C838.244019,1261.747192 839.757324,1272.337402 841.157104,1283.236938 
	C843.092957,1298.310913 840.789673,1312.791870 835.782837,1326.708618 
	C829.039551,1345.451782 815.095276,1356.916748 795.867554,1361.867676 
	C793.832520,1362.391602 791.556152,1361.978394 788.906494,1362.000000 
M751.001221,1321.968506 
	C751.609558,1323.411865 751.982788,1325.021362 752.865540,1326.270752 
	C757.501465,1332.832031 763.998535,1336.253418 771.764648,1338.154297 
	C779.624146,1340.078003 786.746094,1338.653931 793.479858,1334.906494 
	C800.092957,1331.226074 804.624512,1325.272583 807.600708,1318.529175 
	C811.432068,1309.848389 811.874207,1300.287476 811.677124,1291.024902 
	C811.519897,1283.636230 809.534912,1276.240112 807.938843,1268.939819 
	C805.984009,1259.998901 796.406921,1251.038574 788.184082,1250.031982 
	C776.960815,1248.658447 767.305664,1251.922485 758.915710,1259.562866 
	C753.191528,1264.775635 750.311584,1270.432617 750.778870,1278.659058 
	C751.579468,1292.755127 751.000061,1306.929688 751.001221,1321.968506 
z"/>
<path fill="#CFB38D" opacity="1.000000" stroke="none" 
	d="
M991.378113,300.006775 
	C995.610291,277.650940 998.704956,255.004028 1004.334412,233.005768 
	C1013.356628,197.749115 1027.984985,164.745926 1050.513428,135.786453 
	C1072.197754,107.912170 1099.434326,87.905037 1134.165527,79.316048 
	C1149.322388,75.567757 1164.706787,74.761040 1180.206665,77.436798 
	C1211.542236,82.846283 1230.094116,110.533081 1234.798462,136.234512 
	C1235.337158,139.177277 1235.629272,142.165222 1235.537354,145.593018 
	C1225.116089,147.368164 1215.212036,148.867935 1205.258789,149.888458 
	C1202.105713,150.211761 1200.745972,151.086090 1200.932861,154.280762 
	C1200.984375,155.161819 1200.334961,156.083878 1200.007202,156.987091 
	C1198.325562,148.066757 1197.839722,138.700928 1194.716309,130.317795 
	C1187.979004,112.235123 1172.604980,103.533859 1153.353516,105.011345 
	C1120.189087,107.556625 1094.729126,124.102928 1073.984009,148.914612 
	C1050.208984,177.350235 1036.812378,210.889252 1027.052490,246.138596 
	C1026.386841,248.542450 1025.733032,250.949600 1024.751953,253.937195 
	C1024.322510,255.069504 1024.214844,255.619827 1024.107178,256.170166 
	C1024.107178,256.170166 1024.084839,256.095459 1023.768188,256.119080 
	C1022.159424,257.325317 1020.540466,258.298492 1019.626831,259.723785 
	C1012.330566,271.105804 1005.280640,282.647217 997.873840,293.955536 
	C996.299255,296.359467 993.573547,298.009460 991.378113,300.006775 
z"/>
<path fill="#CFB38D" opacity="1.000000" stroke="none" 
	d="
M1268.084839,147.003738 
	C1267.320068,110.728668 1297.732178,77.860916 1333.746826,76.172386 
	C1374.727905,74.250992 1408.697754,89.990982 1437.568115,118.021065 
	C1462.102295,141.841125 1477.829468,171.224426 1489.925659,202.760056 
	C1501.372559,232.603439 1508.155518,263.594696 1512.155396,295.242371 
	C1512.321899,296.560120 1512.568481,297.867798 1512.390991,299.519226 
	C1510.973755,298.834229 1509.712891,297.957642 1508.948608,296.763367 
	C1500.596680,283.715363 1492.384766,270.577271 1483.946045,257.586273 
	C1482.920410,256.007446 1480.787598,255.147903 1479.167847,253.955017 
	C1472.624756,234.968231 1467.141724,215.530273 1459.295776,197.098038 
	C1446.818970,167.786118 1429.096191,141.974792 1402.361816,123.453636 
	C1386.431030,112.416977 1368.820923,106.026924 1349.382446,104.889458 
	C1331.719727,103.855896 1318.931152,111.382545 1310.623535,126.822594 
	C1306.358765,134.748947 1304.614258,143.326355 1303.798828,152.362457 
	C1301.579712,151.728790 1299.853516,150.517319 1298.005737,150.289093 
	C1288.048706,149.059341 1278.061646,148.073639 1268.084839,147.003738 
z"/>
<path fill="#CE1443" opacity="1.000000" stroke="none" 
	d="
M1855.048584,1019.305359 
	C1858.714355,1011.147034 1861.535645,1002.885986 1866.162598,995.804810 
	C1872.886963,985.513916 1882.713135,979.225708 1894.891724,975.680908 
	C1907.871094,971.902954 1920.738770,972.062317 1933.565063,974.155334 
	C1950.395752,976.901855 1963.812622,986.039001 1972.051636,1000.980042 
	C1976.047363,1008.226196 1978.340698,1016.755066 1979.790405,1024.987549 
	C1982.593384,1040.905640 1981.915405,1056.922241 1975.960449,1072.166382 
	C1968.569702,1091.086060 1955.175537,1102.980957 1934.765137,1107.188599 
	C1921.839355,1109.853271 1909.074951,1109.864136 1896.574219,1106.768677 
	C1882.428345,1103.265991 1870.808960,1095.159302 1863.267700,1082.364990 
	C1857.094604,1071.891846 1853.294922,1060.608032 1853.964233,1048.139160 
	C1854.472046,1038.677979 1854.673340,1029.200317 1855.048584,1019.305359 
M1909.022583,997.484741 
	C1905.000122,999.340576 1900.591309,1000.649658 1897.034302,1003.163940 
	C1889.174194,1008.720154 1886.014282,1017.248718 1884.366089,1026.333618 
	C1881.468506,1042.304199 1882.089966,1057.720093 1890.955566,1072.141235 
	C1899.373047,1085.833618 1915.021484,1087.452637 1927.212524,1084.106079 
	C1942.635498,1079.872559 1948.709717,1066.717163 1950.552734,1052.801270 
	C1952.052124,1041.480347 1951.574951,1029.826782 1947.509033,1018.120911 
	C1941.791138,1001.659119 1923.658569,992.919861 1909.022583,997.484741 
z"/>
<path fill="#CE1443" opacity="1.000000" stroke="none" 
	d="
M365.997589,1309.083008 
	C363.605011,1289.187134 364.178070,1270.133423 374.723694,1252.803467 
	C380.980804,1242.520996 389.673859,1235.231201 401.223694,1230.680542 
	C417.482056,1224.274780 433.883575,1224.758179 450.187469,1228.387573 
	C461.945282,1231.005005 471.562317,1238.033691 479.139526,1247.825928 
	C487.867493,1259.105347 490.986450,1271.890869 492.181549,1285.804565 
	C493.327271,1299.142822 492.050232,1312.099365 487.794128,1324.523926 
	C483.065491,1338.327759 474.038330,1348.909912 460.709106,1355.765137 
	C446.355011,1363.147461 430.819672,1363.669556 415.826691,1361.578369 
	C395.957581,1358.807129 379.862640,1348.483887 371.659698,1329.022461 
	C369.050690,1322.832642 367.846527,1316.050659 365.997589,1309.083008 
M461.510651,1280.015869 
	C461.002930,1277.622803 460.892151,1275.051392 459.912506,1272.870361 
	C457.047791,1266.491821 454.427185,1260.221924 448.174103,1255.714966 
	C441.111755,1250.624634 433.691284,1249.836670 425.569275,1249.937744 
	C413.709167,1250.085205 405.107605,1256.298584 400.339447,1266.030762 
	C393.413910,1280.165894 392.044189,1295.299438 396.323181,1311.000977 
	C400.345917,1325.762085 407.932343,1335.922485 423.832306,1338.460938 
	C434.908875,1340.229126 444.150421,1336.907593 451.951294,1329.162109 
	C457.482117,1323.670532 460.475800,1316.631104 461.213013,1309.172607 
	C462.141602,1299.777832 461.734802,1290.251099 461.510651,1280.015869 
z"/>
<path fill="#CE1443" opacity="1.000000" stroke="none" 
	d="
M1525.955566,983.989685 
	C1538.411743,995.138794 1545.202393,1008.609070 1545.006592,1025.261719 
	C1544.961548,1029.092285 1545.004761,1032.924072 1544.998901,1036.755249 
	C1544.989502,1042.903442 1543.982910,1043.949829 1537.329468,1043.979248 
	C1522.671387,1044.043945 1508.012695,1043.999878 1493.354248,1044.000000 
	C1481.065674,1044.000122 1468.776978,1044.000000 1456.051270,1044.000000 
	C1456.368896,1054.700195 1458.898926,1064.281006 1465.075073,1072.362671 
	C1474.262695,1084.385132 1487.577393,1087.113037 1501.344360,1084.607422 
	C1509.164185,1083.184204 1516.437500,1078.369263 1523.747437,1074.667969 
	C1528.768433,1072.125488 1532.887939,1072.164185 1536.677734,1076.270264 
	C1539.113892,1078.909790 1541.550293,1081.746460 1543.090576,1084.928467 
	C1543.811768,1086.418823 1543.114380,1089.676392 1541.859253,1090.860352 
	C1535.579590,1096.784180 1528.614624,1101.395630 1520.138672,1104.308716 
	C1508.814209,1108.200684 1497.373535,1109.533813 1485.697754,1108.899414 
	C1467.671021,1107.920166 1452.215820,1101.653931 1440.644775,1086.737793 
	C1433.423096,1077.427979 1429.852173,1067.079590 1428.021362,1055.819336 
	C1425.849976,1042.463989 1425.619751,1028.831543 1429.380127,1016.015503 
	C1434.244507,999.436829 1443.961060,986.255493 1460.608276,978.427795 
	C1473.892090,972.181580 1487.577026,972.179504 1501.206787,973.382263 
	C1509.923218,974.151489 1518.671997,977.611633 1525.955566,983.989685 
M1504.386108,998.917847 
	C1500.897095,997.615601 1497.505005,995.644714 1493.902954,995.123047 
	C1475.051025,992.392456 1459.524780,1006.881348 1457.622559,1023.699585 
	C1477.997925,1023.699585 1498.373779,1023.699585 1519.255493,1023.699585 
	C1517.694824,1013.363281 1513.774658,1004.976624 1504.386108,998.917847 
z"/>
<path fill="#CE1443" opacity="1.000000" stroke="none" 
	d="
M659.929321,1050.128418 
	C661.493286,1060.725830 664.548584,1070.326904 673.040466,1076.789551 
	C677.463318,1080.155640 682.632996,1083.637695 687.903198,1084.556885 
	C697.836975,1086.289429 707.971130,1085.420044 717.177734,1080.287598 
	C721.159973,1078.067627 724.884216,1075.062256 729.137817,1073.763916 
	C732.017456,1072.885010 736.377380,1073.322876 738.708557,1075.033813 
	C741.952637,1077.414673 744.388245,1081.291504 746.317444,1084.974609 
	C749.028015,1090.149414 743.737061,1092.646606 741.082275,1094.690186 
	C723.780151,1108.008789 703.869995,1110.531372 682.684631,1108.175781 
	C667.352844,1106.471069 654.780518,1099.979980 645.052734,1088.375488 
	C636.585754,1078.275024 632.688232,1066.152466 630.861206,1053.085815 
	C629.186523,1041.108521 629.440063,1029.194214 632.277954,1017.704468 
	C635.079346,1006.362854 640.349548,995.989380 649.681580,987.897339 
	C657.160706,981.412048 665.381042,976.941895 674.825500,974.646484 
	C686.211975,971.879211 697.689758,972.051697 709.121338,974.570190 
	C718.954102,976.736389 727.510132,981.300598 734.262756,988.815979 
	C742.746033,998.257507 747.599243,1009.324829 747.966003,1022.117920 
	C748.157837,1028.808716 747.999878,1035.509644 747.999878,1042.856934 
	C745.010742,1043.249634 742.156250,1043.940796 739.299377,1043.950684 
	C714.467590,1044.036377 689.635315,1044.000000 664.803223,1044.000000 
	C663.007751,1044.000000 661.212341,1044.000000 658.731873,1044.000000 
	C659.196899,1046.308594 659.538208,1048.003174 659.929321,1050.128418 
M721.582825,1023.949036 
	C721.063538,1020.812073 720.710510,1017.636597 719.993652,1014.545471 
	C717.897583,1005.507263 706.360107,995.736267 697.378906,994.979614 
	C683.401550,993.802185 672.461548,998.876709 665.185791,1010.881104 
	C662.941040,1014.584839 661.901367,1019.018982 659.971191,1023.991333 
	C681.220825,1023.991333 700.979065,1023.991333 721.582825,1023.949036 
z"/>
<path fill="#CE1443" opacity="1.000000" stroke="none" 
	d="
M1085.935791,1274.953003 
	C1087.879883,1263.871826 1092.131104,1254.220947 1099.080322,1245.966064 
	C1104.705566,1239.283936 1111.648682,1234.347534 1119.826660,1230.811646 
	C1130.149414,1226.348389 1140.823120,1225.462158 1151.723267,1226.054199 
	C1169.941284,1227.043579 1184.766479,1233.969849 1194.769287,1250.185913 
	C1202.981934,1263.500122 1203.605957,1277.954712 1202.890015,1292.744019 
	C1202.692139,1296.829712 1199.052368,1297.005493 1195.796997,1297.004395 
	C1170.146729,1296.996094 1144.496582,1296.999878 1118.846313,1297.000000 
	C1117.041382,1297.000000 1115.236572,1297.000000 1113.254517,1297.000000 
	C1114.143799,1308.792358 1116.863281,1319.472534 1124.733032,1328.122192 
	C1129.839233,1333.734497 1136.470337,1336.714966 1143.930054,1338.001465 
	C1157.147339,1340.281006 1168.638428,1335.693359 1179.490234,1328.956909 
	C1185.027588,1325.519409 1192.999634,1326.599609 1196.887573,1331.857666 
	C1197.516968,1332.708740 1198.081177,1333.622070 1198.798462,1334.391968 
	C1201.888428,1337.708374 1201.961182,1341.661133 1198.645020,1344.824341 
	C1190.898071,1352.213501 1181.686768,1356.350342 1171.314941,1359.389038 
	C1160.433594,1362.576904 1149.590698,1362.670288 1138.884521,1361.750244 
	C1117.913940,1359.948242 1097.620117,1347.605103 1089.763916,1324.202759 
	C1085.605225,1311.814941 1083.750000,1299.361816 1084.081177,1286.480957 
	C1084.176758,1282.766968 1085.249634,1279.078125 1085.935791,1274.953003 
M1148.346191,1248.000244 
	C1128.664795,1247.900879 1115.669556,1262.897705 1115.355347,1277.556641 
	C1135.845581,1277.556641 1156.330688,1277.556641 1176.875854,1277.556641 
	C1174.244385,1259.614380 1165.564453,1250.029907 1148.346191,1248.000244 
z"/>
<path fill="#CE1443" opacity="1.000000" stroke="none" 
	d="
M1721.929443,1316.944824 
	C1727.674194,1331.316895 1739.114990,1337.600098 1753.173218,1338.681519 
	C1759.194580,1339.144775 1765.609985,1336.674438 1771.600586,1334.765747 
	C1778.291504,1332.633789 1784.593628,1329.286621 1791.277954,1327.127686 
	C1795.288818,1325.832397 1798.061646,1328.088501 1800.552124,1331.767212 
	C1807.387085,1341.863037 1807.852905,1341.994263 1798.345947,1348.991821 
	C1787.368408,1357.071655 1774.761108,1361.332153 1761.149536,1361.924683 
	C1750.116455,1362.405029 1738.980713,1362.760620 1728.328247,1358.925171 
	C1719.441650,1355.725464 1711.674438,1350.758179 1705.296509,1343.685669 
	C1697.632202,1335.186646 1692.655762,1325.029175 1690.880371,1314.069702 
	C1689.099365,1303.076050 1688.932129,1291.650391 1689.560303,1280.498779 
	C1689.960327,1273.396973 1692.554077,1266.242310 1695.130859,1259.479614 
	C1699.173706,1248.869385 1706.672974,1240.938232 1716.318237,1234.887817 
	C1733.567627,1224.067871 1752.366455,1223.649902 1771.018188,1228.419067 
	C1784.194214,1231.788086 1794.305298,1240.517700 1800.850220,1253.245850 
	C1807.273804,1265.738037 1807.199219,1278.895630 1806.899536,1292.207397 
	C1806.810181,1296.178589 1803.746216,1297.042603 1800.212891,1297.027832 
	C1784.554565,1296.962524 1768.895752,1296.999878 1753.237183,1297.000000 
	C1741.756348,1297.000122 1730.275513,1297.000000 1718.604980,1297.000000 
	C1716.383545,1304.235962 1719.915894,1310.270264 1721.929443,1316.944824 
M1763.498535,1278.000000 
	C1769.260498,1278.000000 1775.022461,1278.000000 1780.811035,1278.000000 
	C1779.658691,1261.939331 1770.587524,1249.763550 1754.196045,1248.117188 
	C1734.524536,1246.141479 1720.570557,1261.881714 1719.097046,1278.000000 
	C1733.572266,1278.000000 1748.035767,1278.000000 1763.498535,1278.000000 
z"/>
<path fill="#CE1443" opacity="1.000000" stroke="none" 
	d="
M2123.561768,1331.367188 
	C2132.858643,1338.653076 2143.144287,1340.312988 2153.828857,1337.414673 
	C2160.475098,1335.611694 2166.931641,1332.642578 2173.020996,1329.358276 
	C2182.524170,1324.232788 2193.707275,1328.566162 2195.737061,1339.101685 
	C2196.100830,1340.988525 2194.456543,1344.002808 2192.811768,1345.418579 
	C2180.362305,1356.134888 2165.782959,1361.543091 2149.353027,1362.009033 
	C2138.936768,1362.304321 2128.430664,1362.596802 2118.548340,1358.859863 
	C2109.566406,1355.463501 2101.417725,1350.519653 2094.970459,1343.059692 
	C2088.354248,1335.404297 2084.516113,1326.358887 2081.575684,1316.922852 
	C2080.177734,1312.436890 2079.432129,1307.634521 2079.159912,1302.931030 
	C2078.150635,1285.503906 2078.960449,1268.330444 2088.639404,1252.911743 
	C2096.021484,1241.151733 2106.105469,1232.544800 2119.590332,1228.902222 
	C2137.853027,1223.968872 2156.065186,1223.822998 2172.986328,1233.621826 
	C2183.650635,1239.797363 2189.996826,1249.493286 2194.326660,1261.153687 
	C2198.213867,1271.621704 2196.497559,1282.087891 2196.900879,1292.566284 
	C2197.073242,1297.040161 2193.262451,1296.981689 2190.074463,1296.985718 
	C2168.925537,1297.012695 2147.776367,1297.000000 2126.627441,1297.000000 
	C2120.653809,1297.000122 2114.680176,1297.000000 2107.877686,1297.000000 
	C2108.282959,1300.563354 2108.341064,1303.787720 2109.056641,1306.858887 
	C2111.275146,1316.380859 2114.147949,1325.606934 2123.561768,1331.367188 
M2128.500244,1278.000000 
	C2142.808594,1278.000000 2157.116943,1278.000000 2171.459473,1278.000000 
	C2168.682129,1254.921143 2153.530029,1246.409058 2137.694092,1248.207886 
	C2120.102539,1250.206055 2110.432129,1264.660278 2109.554932,1278.000000 
	C2115.548584,1278.000000 2121.524658,1278.000000 2128.500244,1278.000000 
z"/>
<path fill="#CE1443" opacity="1.000000" stroke="none" 
	d="
M967.045044,1104.057495 
	C960.211975,1105.739868 953.805237,1107.576416 947.300476,1108.947998 
	C939.102356,1110.676758 930.943542,1109.360474 923.161011,1106.876221 
	C914.677795,1104.168701 908.317444,1098.556519 904.955627,1090.051636 
	C900.729614,1079.360474 900.169739,1068.565430 905.127380,1058.005493 
	C908.617249,1050.572144 914.954285,1045.491089 922.135437,1042.229614 
	C930.215637,1038.559814 938.777893,1035.760254 947.366760,1033.467285 
	C953.338989,1031.872803 959.699646,1031.672485 965.905945,1031.035522 
	C970.658752,1030.547607 975.441528,1030.350830 980.131226,1030.029907 
	C983.236511,1018.891113 978.336121,1003.971375 968.678528,998.840393 
	C963.249023,995.955688 956.485596,994.729553 950.206543,997.456116 
	C944.156067,1000.083435 938.116028,1002.852539 932.430542,1006.174133 
	C924.393433,1010.869507 916.549866,1012.791931 910.839966,1001.504089 
	C910.249939,1000.337830 908.935730,999.324646 908.839661,998.167175 
	C908.652588,995.913391 908.179138,992.597778 909.414124,991.482666 
	C919.628967,982.259277 931.500549,974.872314 945.092773,973.473877 
	C958.032715,972.142456 971.853394,970.311584 984.233826,976.348511 
	C995.374634,981.781006 1002.454407,990.974792 1006.260925,1003.282104 
	C1009.608093,1014.104126 1008.871704,1024.874634 1008.948608,1035.721558 
	C1009.115112,1059.206543 1008.999878,1082.693726 1008.999878,1106.917114 
	C1002.558105,1106.917114 996.130432,1107.770752 990.146851,1106.512695 
	C987.620544,1105.981689 985.846924,1101.103760 984.111694,1097.989624 
	C983.497498,1096.887451 984.013428,1095.155640 984.013428,1093.478027 
	C978.229980,1097.148926 972.828918,1100.577026 967.045044,1104.057495 
M946.478699,1055.980225 
	C943.180481,1057.388550 939.172791,1058.063477 936.765198,1060.392456 
	C933.811523,1063.249634 931.051147,1067.250854 930.231689,1071.179932 
	C928.331787,1080.288086 937.440735,1087.380127 946.101074,1087.928833 
	C956.568176,1088.592163 965.615784,1084.252563 973.851990,1078.384766 
	C976.713013,1076.346436 980.159790,1073.227539 980.655884,1070.167236 
	C981.701172,1063.719482 980.973816,1056.984375 980.973816,1049.002686 
	C969.233032,1051.403076 958.257507,1053.646973 946.478699,1055.980225 
z"/>
<path fill="#CE1443" opacity="1.000000" stroke="none" 
	d="
M947.000122,1254.000000 
	C947.000122,1245.206177 947.000122,1236.912231 947.000122,1228.312012 
	C956.665161,1228.312012 965.921204,1228.312012 975.590210,1228.312012 
	C975.590210,1271.908081 975.590210,1315.597046 975.590210,1359.884766 
	C968.767822,1359.884766 961.835205,1360.108521 954.927856,1359.788452 
	C951.578003,1359.633301 950.201599,1357.038696 949.932190,1353.721191 
	C949.740234,1351.357178 949.021790,1349.035889 948.461243,1346.323120 
	C941.312195,1352.813110 933.648499,1358.148926 924.266968,1360.322021 
	C911.347778,1363.314941 898.312622,1363.790283 886.044250,1358.320190 
	C875.971680,1353.829102 869.266785,1345.280884 866.277161,1334.813110 
	C864.144409,1327.345337 863.253113,1319.314941 863.140625,1311.516357 
	C862.768250,1285.706421 863.000183,1259.887939 863.000183,1234.072632 
	C863.000183,1232.269287 863.000183,1230.465942 863.000183,1228.332764 
	C872.745361,1228.332764 882.117615,1228.332764 891.999817,1228.332764 
	C891.999817,1230.312866 891.999817,1232.099365 891.999817,1233.885864 
	C891.999878,1260.700439 891.632812,1287.522095 892.147827,1314.326782 
	C892.424072,1328.704468 899.821472,1337.231567 914.003601,1338.723145 
	C922.977966,1339.666992 930.723877,1334.770874 938.334717,1329.735352 
	C946.606384,1324.262817 947.324097,1317.109863 947.125061,1308.459351 
	C946.711426,1290.481445 947.000122,1272.487427 947.000122,1254.000000 
z"/>
<path fill="#CE1443" opacity="1.000000" stroke="none" 
	d="
M1858.000000,1289.000000 
	C1858.000000,1312.788940 1858.000000,1336.078003 1858.000000,1359.682373 
	C1848.344849,1359.682373 1839.087158,1359.682373 1829.413330,1359.682373 
	C1829.413330,1316.092163 1829.413330,1272.396362 1829.413330,1228.044800 
	C1836.085571,1228.044800 1842.873535,1227.693848 1849.596313,1228.203003 
	C1852.646484,1228.433960 1855.126343,1230.643555 1855.040894,1234.498413 
	C1854.991455,1236.741577 1855.366821,1238.994385 1855.536743,1241.067993 
	C1862.149536,1237.151733 1867.990723,1232.515503 1874.634155,1229.988770 
	C1891.497925,1223.574951 1908.438232,1223.256714 1924.124268,1233.660522 
	C1933.192749,1239.675171 1937.851685,1248.919922 1939.863770,1259.357300 
	C1941.040649,1265.462280 1941.851685,1271.735840 1941.906616,1277.941772 
	C1942.130981,1303.260864 1942.000000,1328.583252 1942.000000,1353.904419 
	C1942.000000,1355.712524 1942.000000,1357.520630 1942.000000,1359.659424 
	C1932.269043,1359.659424 1922.895264,1359.659424 1913.000000,1359.659424 
	C1913.000000,1357.699219 1913.000000,1355.913696 1913.000000,1354.128174 
	C1913.000000,1329.473389 1913.151611,1304.817017 1912.901367,1280.164795 
	C1912.832397,1273.363037 1911.833618,1266.744873 1908.417847,1260.303833 
	C1905.163452,1254.167480 1900.181763,1251.327271 1894.343994,1250.203735 
	C1884.367310,1248.283691 1875.438599,1251.994507 1867.227661,1257.520508 
	C1860.111084,1262.310181 1856.210083,1268.458252 1857.892334,1277.525391 
	C1858.549683,1281.068359 1858.000000,1284.835083 1858.000000,1289.000000 
z"/>
<path fill="#CE1443" opacity="1.000000" stroke="none" 
	d="
M1603.683838,981.687561 
	C1610.325806,978.678406 1616.473145,974.181030 1623.044067,973.440002 
	C1637.639648,971.794006 1652.640747,971.486694 1664.908081,982.029602 
	C1673.007568,988.990845 1678.322388,998.451599 1678.689697,1008.652954 
	C1679.844727,1040.718262 1679.647827,1072.832520 1679.960083,1104.927856 
	C1679.964722,1105.401245 1679.784058,1105.876343 1679.626831,1106.668579 
	C1670.372681,1106.668579 1661.113892,1106.668579 1651.000000,1106.668579 
	C1651.000000,1104.912109 1651.000000,1103.004883 1651.000000,1101.097656 
	C1651.000000,1074.106812 1651.046265,1047.115845 1650.979736,1020.125122 
	C1650.947998,1007.197510 1639.358154,995.290710 1626.880249,996.184937 
	C1618.128784,996.812134 1610.364868,1000.740295 1603.236328,1006.100159 
	C1597.934570,1010.086426 1595.706299,1014.481934 1595.820923,1021.358337 
	C1596.262451,1047.842041 1596.000000,1074.337402 1596.000000,1100.828491 
	C1596.000000,1102.641479 1596.000000,1104.454468 1596.000000,1106.632812 
	C1586.657227,1106.632812 1577.614990,1106.632812 1568.284424,1106.632812 
	C1568.284424,1062.946533 1568.284424,1019.364502 1568.284424,975.095276 
	C1574.820435,975.095276 1581.426025,974.783325 1587.980225,975.227722 
	C1591.225586,975.447815 1592.781494,978.195496 1593.084473,981.569824 
	C1593.269897,983.634094 1594.011475,985.648315 1594.579468,988.000977 
	C1597.580322,985.922241 1600.480835,983.913025 1603.683838,981.687561 
z"/>
<path fill="#E0CDB3" opacity="1.000000" stroke="none" 
	d="
M1045.800659,550.028137 
	C1040.539551,527.220703 1034.466309,504.564117 1030.194580,481.572876 
	C1022.428589,439.776245 1019.407227,397.494324 1020.216614,354.968628 
	C1020.314087,349.844330 1020.687622,344.725342 1020.909302,340.102112 
	C1033.805420,344.036987 1046.566772,347.930695 1059.671265,352.426849 
	C1059.160767,356.727509 1058.652588,360.547729 1057.397095,364.104126 
	C1049.349365,386.900391 1045.575562,410.385376 1046.076172,434.513062 
	C1046.240845,442.444489 1047.217651,450.364807 1047.958984,458.277435 
	C1050.045166,480.546509 1056.340210,501.771667 1066.542358,521.479187 
	C1073.674438,535.256165 1082.831055,548.026489 1091.594727,560.898376 
	C1095.486328,566.614380 1100.560547,571.544800 1105.299438,576.644653 
	C1106.065552,577.469116 1107.886353,577.313660 1109.219604,577.611084 
	C1117.577148,594.690063 1125.934692,611.768982 1134.564209,629.403687 
	C1133.505493,630.290100 1132.021362,631.532654 1129.894287,632.782349 
	C1126.534424,630.879883 1123.692627,629.124268 1121.122314,627.034607 
	C1108.892822,617.091858 1096.011597,607.805115 1084.745850,596.860718 
	C1071.767334,584.252563 1060.876953,569.671814 1051.339233,554.170776 
	C1050.215942,552.345154 1047.681152,551.387939 1045.800659,550.028137 
z"/>
<path fill="#CE1443" opacity="1.000000" stroke="none" 
	d="
M2270.628906,1226.009766 
	C2279.613770,1227.558228 2288.082275,1229.268677 2295.553711,1234.014160 
	C2297.059326,1234.970459 2298.529053,1235.985718 2299.994873,1237.003174 
	C2306.035156,1241.196411 2306.427246,1243.649658 2302.009033,1249.474365 
	C2294.952148,1258.777832 2293.203125,1258.913818 2282.651123,1254.055176 
	C2276.926025,1251.418945 2270.712646,1248.741211 2264.581299,1248.370605 
	C2257.064697,1247.916138 2249.303711,1249.496704 2244.077148,1256.378540 
	C2240.753174,1260.755249 2240.053467,1267.067993 2245.998291,1271.631470 
	C2251.033936,1275.497192 2256.827148,1277.100464 2262.618164,1279.153198 
	C2272.863281,1282.784424 2283.502197,1285.996460 2292.796875,1291.409424 
	C2301.051270,1296.216797 2307.221680,1303.908936 2306.067383,1315.047485 
	C2305.277100,1322.674072 2307.001953,1330.387817 2303.227539,1337.895508 
	C2297.772217,1348.747314 2289.495117,1355.190796 2278.134766,1359.288086 
	C2266.357666,1363.535889 2254.427002,1362.399658 2242.739014,1361.638794 
	C2231.550049,1360.910278 2221.159668,1355.841675 2212.175781,1348.660889 
	C2209.759277,1346.729370 2209.192871,1344.391479 2210.779297,1341.664673 
	C2212.588623,1338.554077 2214.226074,1335.315063 2216.317139,1332.404175 
	C2218.704590,1329.081177 2228.479248,1328.712280 2232.410645,1332.052734 
	C2241.695068,1339.941162 2252.630859,1340.971924 2263.961182,1339.908569 
	C2273.554932,1339.008179 2281.248779,1327.485107 2277.968262,1319.166382 
	C2277.043457,1316.820679 2275.092529,1314.132324 2272.916260,1313.162231 
	C2265.239746,1309.740112 2257.307861,1306.865112 2249.386719,1304.022583 
	C2234.873779,1298.814697 2218.557373,1294.674438 2214.964844,1277.095093 
	C2210.994385,1257.665405 2213.985596,1241.197388 2235.855469,1230.838623 
	C2246.952148,1225.582642 2258.512939,1226.038574 2270.628906,1226.009766 
z"/>
<path fill="#CE1443" opacity="1.000000" stroke="none" 
	d="
M2046.806396,944.602966 
	C2039.547241,947.722473 2037.536499,954.238892 2036.223022,960.483276 
	C2035.155273,965.559509 2036.005981,971.039368 2036.005981,976.930420 
	C2048.071045,976.930420 2059.783691,976.930420 2071.742188,976.930420 
	C2071.742188,984.111267 2071.742188,990.699707 2071.742188,997.885986 
	C2059.973145,997.885986 2048.260742,997.885986 2036.161621,997.885986 
	C2036.161621,1034.383423 2036.161621,1070.289429 2036.161621,1106.596924 
	C2026.736328,1106.596924 2017.696045,1106.596924 2008.000000,1106.596924 
	C2008.000000,1104.685059 2008.000000,1102.751099 2008.000000,1100.817139 
	C2008.000000,1068.511108 2007.910156,1036.204590 2008.098877,1003.899597 
	C2008.126587,999.167419 2006.317749,997.682556 2002.029907,997.981201 
	C2000.372681,998.096619 1998.698242,998.056519 1997.035767,997.987793 
	C1990.615112,997.722351 1987.042114,994.034790 1987.003662,987.660217 
	C1986.983765,984.349182 1987.000122,981.037964 1987.000122,977.130493 
	C1994.003296,977.130493 2000.723511,977.130493 2008.000000,977.130493 
	C2008.000000,970.603149 2007.907715,964.658630 2008.017700,958.717773 
	C2008.320312,942.371277 2020.008545,924.764221 2037.285767,920.678284 
	C2049.441162,917.803528 2061.059570,916.848450 2073.000000,921.601562 
	C2073.000000,925.403992 2073.003906,929.056152 2072.999268,932.708313 
	C2072.990479,939.627502 2070.990234,941.632690 2063.963623,942.014160 
	C2059.361572,942.264038 2054.761475,942.604309 2050.175781,943.058167 
	C2049.120605,943.162598 2048.127930,943.898132 2046.806396,944.602966 
z"/>
<path fill="#CFB38D" opacity="1.000000" stroke="none" 
	d="
M1081.354858,663.891479 
	C1092.142700,681.066956 1102.161499,698.788147 1113.881958,715.301636 
	C1136.686401,747.431519 1164.475342,774.502075 1199.406128,793.493652 
	C1207.567627,797.930969 1216.176147,801.546021 1223.985352,805.257141 
	C1226.105103,815.305298 1228.183960,825.159668 1230.348633,835.420715 
	C1227.147827,834.417969 1223.547974,833.401550 1220.023560,832.169250 
	C1171.994751,815.374207 1134.185669,784.710693 1102.670776,745.546204 
	C1073.936768,709.837585 1052.190186,670.106140 1035.369751,627.389404 
	C1037.472412,628.168579 1039.407471,629.104431 1040.927002,630.494568 
	C1050.430786,639.188843 1059.673950,648.176819 1069.373413,656.643555 
	C1072.836914,659.666931 1077.331177,661.509766 1081.354858,663.891479 
z"/>
<path fill="#CFB38D" opacity="1.000000" stroke="none" 
	d="
M1467.766724,629.992432 
	C1458.826660,653.387878 1447.545044,675.652649 1434.746216,697.129822 
	C1413.362793,733.012695 1388.027222,765.651794 1355.330078,792.101990 
	C1331.763550,811.166016 1305.665161,825.552246 1276.688354,834.605774 
	C1275.597412,834.946594 1274.461548,835.143066 1273.238525,835.432373 
	C1274.914795,828.553467 1277.756104,821.892578 1277.860596,815.188965 
	C1277.988770,806.963989 1281.634644,803.933533 1288.713867,800.988220 
	C1322.502930,786.930481 1349.695312,763.891968 1373.455078,736.519897 
	C1392.329956,714.775208 1407.878296,690.759521 1422.109375,665.203369 
	C1425.345581,663.615784 1428.330566,662.702759 1430.477661,660.829346 
	C1440.909180,651.727356 1451.057983,642.302063 1461.460205,633.165588 
	C1463.171265,631.662659 1465.645264,631.028259 1467.766724,629.992432 
z"/>
<path fill="#CE1443" opacity="1.000000" stroke="none" 
	d="
M1742.000000,950.001648 
	C1742.000000,959.130859 1742.000000,967.760315 1742.000000,976.809937 
	C1754.006714,976.809937 1765.603027,976.809937 1777.597168,976.809937 
	C1777.597168,983.933289 1777.597168,990.644409 1777.597168,997.787537 
	C1766.014893,997.787537 1754.418579,997.787537 1742.000000,997.787537 
	C1742.000000,999.947815 1742.000000,1001.691528 1742.000000,1003.435303 
	C1742.000000,1026.595215 1741.994507,1049.755127 1742.002930,1072.915039 
	C1742.006226,1082.317993 1750.666504,1087.527344 1758.837769,1083.046143 
	C1760.638672,1082.058472 1762.409668,1081.014771 1764.177612,1079.968384 
	C1767.720093,1077.871704 1771.417236,1078.725830 1773.779785,1082.262207 
	C1775.779053,1085.255127 1777.908936,1088.182007 1779.647217,1091.322876 
	C1782.139771,1095.826782 1781.260864,1098.122559 1776.922119,1101.040527 
	C1767.948853,1107.075562 1757.660645,1109.727661 1747.307739,1109.685547 
	C1736.850464,1109.643066 1726.170532,1107.877930 1719.123413,1098.101562 
	C1714.836426,1092.154053 1713.112183,1085.490967 1713.064941,1078.450195 
	C1712.898438,1053.625366 1713.000122,1028.798462 1713.000000,1003.972412 
	C1713.000000,1002.177551 1713.000000,1000.382751 1713.000000,997.998901 
	C1707.626221,997.998901 1702.676636,997.865967 1697.738403,998.045593 
	C1694.429932,998.165894 1692.767456,997.229858 1692.946899,993.569397 
	C1693.173828,988.942139 1693.001831,984.295288 1693.001831,979.728088 
	C1698.837036,978.776001 1704.283691,977.780029 1709.764893,977.036682 
	C1712.653076,976.644897 1713.731323,975.537720 1714.128174,972.400024 
	C1715.565796,961.033142 1717.477051,949.724548 1719.310181,938.410217 
	C1719.929932,934.584534 1722.337158,932.864136 1726.268799,932.969360 
	C1731.250366,933.102600 1736.238159,933.001587 1742.000000,933.001587 
	C1742.000000,938.654480 1742.000000,944.078186 1742.000000,950.001648 
z"/>
<path fill="#CE1443" opacity="1.000000" stroke="none" 
	d="
M1210.811646,1092.646118 
	C1211.567139,1096.758911 1210.012329,1099.079712 1206.801025,1101.145874 
	C1199.172363,1106.054443 1190.931641,1108.267334 1181.953857,1109.156738 
	C1172.678101,1110.075684 1164.046875,1108.877930 1156.171875,1104.020630 
	C1149.096069,1099.656006 1144.287720,1093.232544 1144.097778,1084.748779 
	C1143.498657,1057.988037 1143.331787,1031.217407 1143.003052,1004.450623 
	C1142.979004,1002.491150 1143.000000,1000.531128 1143.000000,997.996887 
	C1137.439453,997.996887 1132.320801,997.856384 1127.214844,998.052246 
	C1124.374146,998.161255 1123.170044,996.710449 1123.086792,994.331604 
	C1122.913574,989.383850 1123.034424,984.425842 1123.034424,979.700989 
	C1129.039551,978.740784 1134.512939,977.817810 1140.003174,977.008667 
	C1142.607788,976.624817 1143.750610,975.633667 1144.126953,972.654053 
	C1145.500732,961.774963 1147.269531,950.940918 1149.116699,940.128723 
	C1149.889893,935.603149 1152.482056,932.789856 1157.582031,932.967041 
	C1162.202148,933.127625 1166.832275,933.000977 1171.870605,933.000977 
	C1171.870605,947.737122 1171.870605,961.999878 1171.870605,976.861023 
	C1183.996948,976.861023 1195.714966,976.861023 1207.711670,976.861023 
	C1207.711670,984.051880 1207.711670,990.643677 1207.711670,997.843262 
	C1196.019897,997.843262 1184.300171,997.843262 1172.296509,997.843262 
	C1172.174316,999.871094 1172.012207,1001.318970 1172.011108,1002.767029 
	C1171.995117,1025.429810 1172.008789,1048.092651 1171.993408,1070.755493 
	C1171.989990,1075.789673 1173.490723,1079.822021 1177.800903,1083.056396 
	C1183.505371,1087.337036 1188.111694,1083.991699 1192.712280,1081.536743 
	C1200.084473,1077.602905 1201.651733,1077.815430 1205.954712,1084.812012 
	C1207.497192,1087.320068 1209.109497,1089.785034 1210.811646,1092.646118 
z"/>
<path fill="#CE1443" opacity="1.000000" stroke="none" 
	d="
M1560.128174,1335.038818 
	C1567.086548,1338.403198 1573.890259,1340.093140 1581.278931,1338.327515 
	C1588.472900,1336.608276 1594.783813,1333.420776 1600.324341,1328.413208 
	C1603.878540,1325.200928 1612.155762,1326.760132 1614.906616,1330.680786 
	C1615.279907,1331.212769 1615.559326,1331.810181 1615.890503,1332.372314 
	C1617.613159,1335.294556 1622.610962,1337.237793 1620.735107,1341.061401 
	C1618.956543,1344.686890 1615.477783,1347.773560 1612.137207,1350.287109 
	C1596.693604,1361.907471 1578.609131,1363.820068 1560.398315,1361.728882 
	C1542.312744,1359.651978 1528.666626,1349.768555 1519.894775,1333.302246 
	C1511.765381,1318.041626 1509.698486,1301.677124 1511.202271,1284.999634 
	C1512.706177,1268.320801 1517.866699,1252.680176 1530.744019,1240.777710 
	C1538.960205,1233.183594 1548.703613,1228.787109 1559.737793,1226.987671 
	C1571.792480,1225.022217 1584.035156,1224.868408 1595.520264,1228.402710 
	C1603.311646,1230.800293 1610.131104,1236.470703 1617.206299,1240.959595 
	C1618.291748,1241.648438 1618.926392,1243.875122 1618.886597,1245.366821 
	C1618.718018,1251.700684 1609.922119,1259.528687 1603.679077,1258.915039 
	C1602.057373,1258.755615 1600.416016,1257.786255 1598.982910,1256.875366 
	C1586.489014,1248.932373 1573.223389,1245.932129 1559.745605,1253.333862 
	C1548.924927,1259.276733 1542.990967,1269.385376 1542.109497,1281.778931 
	C1541.529053,1289.940918 1541.241455,1298.265259 1542.177734,1306.360229 
	C1543.564575,1318.349731 1548.868896,1328.512085 1560.128174,1335.038818 
z"/>
<path fill="#CE1443" opacity="1.000000" stroke="none" 
	d="
M1071.363525,1356.309570 
	C1065.361938,1358.339600 1059.781738,1360.631592 1053.975952,1361.840576 
	C1049.984741,1362.671753 1045.676025,1361.872437 1041.517212,1362.022461 
	C1024.668335,1362.630493 1014.091614,1350.989746 1012.059814,1336.496216 
	C1011.352539,1331.450928 1011.069031,1326.310425 1011.045654,1321.211304 
	C1010.940979,1298.404175 1011.000122,1275.596313 1011.000122,1251.999756 
	C1006.849487,1251.999756 1002.932861,1252.030396 999.016968,1251.992676 
	C992.990784,1251.934570 992.023621,1250.972412 992.001160,1245.153198 
	C991.994751,1243.487549 992.000000,1241.821777 992.000122,1240.156128 
	C992.000732,1231.685181 992.183899,1231.615356 1000.792053,1230.977295 
	C1013.745544,1230.016968 1012.856567,1232.013672 1014.113464,1216.991943 
	C1014.833923,1208.380981 1016.414368,1199.805298 1018.251221,1191.353760 
	C1018.634888,1189.588379 1021.730225,1187.441772 1023.779541,1187.200439 
	C1028.861450,1186.602295 1034.061035,1187.004028 1039.807373,1187.004028 
	C1039.807373,1201.278931 1039.807373,1215.326416 1039.807373,1229.786621 
	C1051.984375,1229.786621 1063.578125,1229.786621 1075.583740,1229.786621 
	C1075.583740,1237.236328 1075.583740,1244.279541 1075.583740,1251.929199 
	C1063.929688,1251.929199 1052.215088,1251.929199 1040.217529,1251.929199 
	C1040.127930,1253.966553 1040.009033,1255.422974 1040.008301,1256.879517 
	C1039.996460,1279.199951 1039.982666,1301.520386 1040.010254,1323.840820 
	C1040.018799,1330.793457 1043.337280,1336.507446 1049.077271,1337.302734 
	C1052.640503,1337.796265 1056.938232,1336.780640 1060.173096,1335.062256 
	C1066.920532,1331.477905 1070.899048,1331.993896 1074.697144,1338.356445 
	C1075.368408,1339.480835 1075.728149,1340.807007 1076.477173,1341.866455 
	C1082.227661,1350.000488 1081.428345,1350.868408 1071.363525,1356.309570 
z"/>
<path fill="#CE1443" opacity="1.000000" stroke="none" 
	d="
M1986.364258,1237.283569 
	C2003.519165,1225.150513 2022.298706,1224.137695 2041.789062,1227.416992 
	C2051.762695,1229.095093 2060.302979,1233.720947 2067.950684,1240.297363 
	C2071.382080,1243.247681 2070.473877,1246.373291 2068.929932,1249.405273 
	C2067.610840,1251.995850 2065.596436,1254.248413 2063.782715,1256.566895 
	C2061.750977,1259.164429 2054.739502,1260.137573 2051.814941,1258.224976 
	C2045.401978,1254.030518 2038.838013,1250.256958 2030.985718,1249.475464 
	C2020.243896,1248.406738 2010.379639,1250.958374 2003.505249,1259.333984 
	C1992.223877,1273.079224 1990.167236,1289.120361 1993.537109,1306.376343 
	C1995.241821,1315.106445 1997.685303,1323.320435 2004.136841,1329.504150 
	C2017.147583,1341.975342 2032.423706,1341.432739 2046.880127,1332.329590 
	C2049.756836,1330.517944 2052.489258,1328.005249 2055.641357,1327.204712 
	C2061.545166,1325.704834 2071.099609,1332.804565 2071.859863,1338.903442 
	C2072.070557,1340.592041 2071.309570,1342.920044 2070.151611,1344.180664 
	C2059.349365,1355.939819 2045.296875,1360.957275 2029.869263,1361.832275 
	C2020.241455,1362.378418 2010.519775,1362.871582 2000.981689,1359.198486 
	C1985.433228,1353.211060 1974.874634,1342.805420 1968.632202,1327.398315 
	C1960.404419,1307.090942 1961.025513,1286.379639 1966.395630,1265.902344 
	C1969.371460,1254.554688 1976.224121,1244.694946 1986.364258,1237.283569 
z"/>
<path fill="#CFB38D" opacity="1.000000" stroke="none" 
	d="
M1244.479736,153.006439 
	C1243.926392,136.957581 1240.211548,121.796356 1232.205933,107.737015 
	C1220.428223,87.053207 1203.384277,73.635529 1179.756348,69.081009 
	C1178.143921,68.770195 1176.561035,68.305779 1174.351929,67.762024 
	C1180.818237,55.935410 1190.202637,48.146309 1203.023926,46.409542 
	C1227.277954,43.124069 1243.697998,53.654819 1251.917236,77.753151 
	C1260.506226,53.396141 1277.171997,42.588905 1302.053223,46.622311 
	C1314.315308,48.610065 1323.279175,56.293663 1329.628418,67.740837 
	C1325.988281,68.632683 1322.810791,69.385796 1319.646606,70.190285 
	C1289.016113,77.977768 1272.256958,99.482109 1263.334473,128.152100 
	C1260.947754,135.821213 1260.753906,144.172806 1258.964600,152.610901 
	C1253.743774,153.009293 1249.111816,153.007858 1244.479736,153.006439 
z"/>
<path fill="#D8C1A2" opacity="1.000000" stroke="none" 
	d="
M1516.013794,413.998840 
	C1514.356323,451.893646 1508.677124,489.233582 1500.520020,526.230835 
	C1499.912964,528.984436 1499.248291,531.725220 1498.333862,534.961426 
	C1498.057251,535.450867 1497.984985,535.940308 1497.984985,535.940308 
	C1497.950562,536.408325 1497.916260,536.876282 1497.397705,537.688599 
	C1495.705566,539.495667 1494.129272,540.784790 1493.345093,542.447449 
	C1483.684692,562.932800 1471.908325,582.102234 1457.492676,599.566956 
	C1455.043457,602.534363 1453.488770,607.161255 1448.363159,607.116333 
	C1448.617310,606.281982 1448.871460,605.447632 1449.476807,604.124512 
	C1449.945557,603.441162 1450.001343,603.230225 1449.995483,603.002930 
	C1455.788086,584.910400 1462.035156,566.948425 1467.279419,548.698303 
	C1478.523804,509.567108 1486.102661,469.660431 1488.994507,429.048462 
	C1490.777100,404.014618 1491.102539,378.861847 1491.521973,353.753113 
	C1491.704712,342.813721 1490.481689,331.850891 1490.336182,320.468994 
	C1491.970337,321.266815 1493.646484,322.287537 1494.278198,323.757233 
	C1497.286987,330.756042 1500.500000,337.726379 1502.738403,344.984924 
	C1507.746338,361.223419 1512.218750,377.627167 1516.909180,393.963593 
	C1516.754883,399.678009 1516.600586,405.392395 1516.087891,411.657776 
	C1515.824219,412.805450 1515.919067,413.402161 1516.013794,413.998840 
z"/>
<path fill="#D8C1A2" opacity="1.000000" stroke="none" 
	d="
M987.919312,412.978699 
	C987.615723,408.283783 987.312134,403.588867 987.440918,398.372528 
	C988.875183,396.051666 990.556641,394.330688 990.774780,392.440826 
	C993.199341,371.441345 999.909607,351.615356 1007.295227,332.005920 
	C1008.603333,328.532837 1011.622253,325.704132 1013.851074,322.577850 
	C1013.278503,343.202240 1011.919800,363.840485 1012.282166,384.448425 
	C1013.329407,444.011963 1022.721313,502.366974 1039.645142,559.487366 
	C1043.460815,572.365723 1047.581665,585.154907 1051.682129,597.946655 
	C1052.410400,600.218323 1053.731079,602.300049 1054.413086,604.784668 
	C1051.287598,602.782227 1048.014404,600.863647 1045.850952,598.081970 
	C1032.155151,580.472473 1020.158630,561.798096 1011.041260,541.344421 
	C1009.961670,538.922485 1007.580933,537.080566 1005.803345,534.969788 
	C1005.495667,533.977783 1005.187988,532.985779 1004.881470,531.387939 
	C1004.812683,530.501343 1004.670349,530.263977 1004.455688,530.069885 
	C1004.313843,529.572510 1004.171936,529.075134 1004.040283,528.107910 
	C1004.050476,527.638062 1003.942444,527.343201 1003.942444,527.343201 
	C1000.278015,507.578522 996.275330,487.868408 993.073669,468.029053 
	C991.090210,455.738708 990.323608,443.251984 989.233643,430.229340 
	C989.273010,429.062622 989.089539,428.519989 988.906006,427.977325 
	C988.581238,424.593903 988.256409,421.210510 988.227112,417.150085 
	C988.321533,415.308289 988.120422,414.143494 987.919312,412.978699 
z"/>
<path fill="#DECBB1" opacity="1.000000" stroke="none" 
	d="
M1371.012329,224.013672 
	C1366.603638,226.847977 1362.326416,229.929611 1357.713257,232.378922 
	C1356.153442,233.207108 1353.532837,232.986389 1351.755371,232.307236 
	C1336.320312,226.409958 1320.453125,222.515060 1303.906738,224.460144 
	C1289.559692,226.146713 1275.314209,228.857864 1261.119873,231.610825 
	C1254.925293,232.812241 1249.092407,232.821213 1242.887207,231.604309 
	C1228.699219,228.821869 1214.446045,226.153366 1200.098999,224.456818 
	C1183.729858,222.521149 1167.952759,226.182281 1152.782959,232.269577 
	C1149.648315,233.527435 1147.199097,233.466812 1144.463013,231.613541 
	C1140.467407,228.906937 1136.323242,226.419632 1132.150024,223.214722 
	C1133.014160,221.738998 1133.843750,220.638489 1134.947632,220.076157 
	C1142.150635,216.406662 1149.470215,212.961548 1156.608276,209.172729 
	C1158.046509,208.409302 1158.869751,206.487213 1159.976562,205.099365 
	C1182.293701,207.652863 1204.171753,207.391815 1224.923340,195.095001 
	C1229.444458,195.237137 1233.213379,195.481598 1236.982178,195.481461 
	C1246.763428,195.481094 1256.545044,195.398956 1266.325928,195.296158 
	C1270.580688,195.251450 1274.834229,195.076065 1279.088257,194.960037 
	C1288.994141,200.988571 1299.827637,204.248367 1311.780640,206.064575 
	C1312.854492,206.304276 1313.402344,206.215195 1313.950317,206.126099 
	C1321.339233,206.074524 1328.728271,206.022949 1336.794067,206.248734 
	C1338.318604,206.331970 1339.166382,206.137848 1340.014038,205.943710 
	C1340.722290,205.760788 1341.430542,205.577866 1342.562500,205.787567 
	C1344.385498,207.419067 1345.604248,209.011261 1347.215698,209.835510 
	C1354.087280,213.350037 1361.130615,216.530777 1367.972168,220.099976 
	C1369.303711,220.794586 1370.015015,222.678391 1371.012329,224.013672 
z"/>
<path fill="#D1B58F" opacity="1.000000" stroke="none" 
	d="
M1189.701294,705.821411 
	C1199.479980,714.594421 1209.292236,723.330750 1218.976440,732.206909 
	C1219.791504,732.954041 1220.407715,734.932922 1220.002808,735.845703 
	C1212.866943,751.935181 1201.135986,764.337830 1187.615723,775.166016 
	C1186.782349,775.833496 1183.961182,774.842407 1182.582031,773.881104 
	C1163.030640,760.252991 1146.245361,743.659790 1131.214233,725.256409 
	C1116.313110,707.012268 1103.487549,687.367065 1092.556152,666.351807 
	C1095.454224,667.136292 1098.235352,667.930969 1100.567139,669.426392 
	C1122.638916,683.582336 1146.229980,694.427490 1171.347290,701.877014 
	C1177.329102,703.651062 1183.576172,704.530457 1189.701294,705.821411 
z"/>
<path fill="#E5D5C0" opacity="1.000000" stroke="none" 
	d="
M1109.182251,577.252686 
	C1107.886353,577.313660 1106.065552,577.469116 1105.299438,576.644653 
	C1100.560547,571.544800 1095.486328,566.614380 1091.594727,560.898376 
	C1082.831055,548.026489 1073.674438,535.256165 1066.542358,521.479187 
	C1056.340210,501.771667 1050.045166,480.546509 1047.958984,458.277435 
	C1047.217651,450.364807 1046.240845,442.444489 1046.076172,434.513062 
	C1045.575562,410.385376 1049.349365,386.900391 1057.397095,364.104126 
	C1058.652588,360.547729 1059.160767,356.727509 1060.009766,352.617981 
	C1065.577148,352.972565 1071.149170,353.738464 1077.106201,354.557281 
	C1076.396606,361.853119 1075.561279,368.898102 1075.048462,375.966461 
	C1071.510010,424.744568 1076.553345,472.704926 1089.365967,519.835083 
	C1093.147095,533.743347 1097.670898,547.460449 1102.217407,561.144470 
	C1104.017822,566.563416 1106.806274,571.654114 1109.182251,577.252686 
z"/>
<path fill="#D1B58F" opacity="1.000000" stroke="none" 
	d="
M1409.541382,670.198730 
	C1387.258911,710.628418 1359.513184,746.409363 1321.792603,773.787598 
	C1318.614624,776.094177 1316.641357,775.899353 1313.735474,773.414795 
	C1299.102295,760.902954 1287.633789,746.234680 1283.453003,734.390625 
	C1293.326904,725.189697 1303.043213,716.135620 1313.528442,706.993713 
	C1317.575073,706.527710 1320.951904,706.531677 1324.114990,705.711426 
	C1351.968262,698.487976 1377.925415,686.822510 1402.569702,672.065308 
	C1404.554565,670.876770 1407.201904,670.794861 1409.541382,670.198730 
z"/>
<path fill="#CE1443" opacity="1.000000" stroke="none" 
	d="
M1225.000000,1294.000000 
	C1225.000000,1271.886230 1225.000000,1250.272461 1225.000000,1228.027832 
	C1232.293945,1228.027832 1239.298096,1227.466064 1246.102173,1228.385010 
	C1248.033203,1228.645874 1250.060059,1233.041504 1250.812988,1235.868408 
	C1251.625732,1238.919678 1250.996948,1242.354980 1250.996948,1246.142700 
	C1255.115845,1241.681519 1258.418213,1237.426392 1262.389648,1233.931519 
	C1273.814331,1223.876953 1286.824829,1222.651489 1300.701782,1228.056152 
	C1304.986328,1229.724976 1302.885010,1233.569580 1302.824097,1236.317871 
	C1302.727173,1240.699219 1301.566895,1245.047485 1301.028564,1249.431030 
	C1300.329834,1255.121094 1297.734497,1257.047729 1292.055298,1255.488281 
	C1282.272095,1252.801636 1273.112305,1253.257690 1265.542236,1260.844727 
	C1258.857178,1267.544678 1253.910522,1275.125000 1253.962524,1285.194092 
	C1254.081055,1308.168823 1254.000000,1331.144653 1254.000000,1354.119995 
	C1254.000000,1355.905396 1254.000000,1357.690796 1254.000000,1359.734497 
	C1244.240845,1359.734497 1234.988403,1359.734497 1225.000000,1359.734497 
	C1225.000000,1337.966675 1225.000000,1316.233398 1225.000000,1294.000000 
z"/>
<path fill="#CE1443" opacity="1.000000" stroke="none" 
	d="
M1095.004639,1000.999878 
	C1085.314697,999.502319 1073.974976,1008.820984 1069.705322,1017.553650 
	C1066.540283,1024.026978 1065.947876,1030.297607 1065.971924,1037.074341 
	C1066.047852,1058.400391 1066.000000,1079.726929 1066.000000,1101.053223 
	C1066.000000,1102.845581 1066.000000,1104.637939 1066.000000,1106.712402 
	C1056.281860,1106.712402 1047.023926,1106.712402 1037.381714,1106.712402 
	C1037.381714,1063.023560 1037.381714,1019.323364 1037.381714,975.023987 
	C1044.010498,975.023987 1050.628540,974.775085 1057.216675,975.112610 
	C1061.509521,975.332520 1062.401489,979.029968 1062.974243,982.518677 
	C1063.421997,985.244690 1063.690063,988.000244 1064.048706,990.827148 
	C1068.780396,986.311035 1072.817871,981.424500 1077.847778,977.992310 
	C1081.686401,975.373047 1086.675415,973.947449 1091.348022,973.178955 
	C1096.214478,972.378601 1101.322144,972.837585 1106.312012,973.044556 
	C1113.374634,973.337585 1115.718384,976.674866 1114.372192,983.396545 
	C1113.600464,987.249329 1113.268555,991.214172 1113.040283,995.146057 
	C1112.717773,1000.703125 1111.512329,1002.088806 1105.782837,1001.953125 
	C1102.339355,1001.871521 1098.906738,1001.333008 1095.004639,1000.999878 
z"/>
<path fill="#E2D0B8" opacity="1.000000" stroke="none" 
	d="
M1446.023438,351.831238 
	C1450.032715,350.716492 1454.041870,349.601715 1458.487061,348.915466 
	C1459.777832,352.882996 1460.347656,356.520630 1461.532471,359.945435 
	C1472.146729,390.625854 1474.971680,422.112335 1472.127319,454.337219 
	C1470.283691,475.223755 1465.074463,495.171234 1457.321899,514.557739 
	C1442.274780,552.185181 1418.572510,583.246155 1386.458984,607.888123 
	C1384.048218,609.738037 1381.012451,610.773132 1378.267334,612.187134 
	C1384.375366,598.972961 1390.483398,585.758789 1397.173096,572.217163 
	C1399.203735,570.864502 1400.914429,570.071838 1402.062012,568.779236 
	C1417.273926,551.644226 1429.654053,532.728210 1438.776245,511.618652 
	C1447.832275,490.661621 1453.169800,468.740356 1454.783203,446.164490 
	C1456.544189,421.525116 1454.042358,397.083984 1446.324463,373.389221 
	C1444.118164,366.615723 1442.106445,359.778900 1440.005615,352.971130 
	C1441.122803,352.667847 1442.239990,352.364563 1443.848022,352.267639 
	C1444.900391,352.259705 1445.461914,352.045471 1446.023438,351.831238 
z"/>
<path fill="#DDC8AD" opacity="1.000000" stroke="none" 
	d="
M1378.060059,612.389954 
	C1381.012451,610.773132 1384.048218,609.738037 1386.458984,607.888123 
	C1418.572510,583.246155 1442.274780,552.185181 1457.321899,514.557739 
	C1465.074463,495.171234 1470.283691,475.223755 1472.127319,454.337219 
	C1474.971680,422.112335 1472.146729,390.625854 1461.532471,359.945435 
	C1460.347656,356.520630 1459.777832,352.882996 1458.897827,348.893463 
	C1466.779053,345.415375 1474.685425,342.387878 1483.760620,338.912750 
	C1483.760620,345.075073 1483.693237,350.999634 1483.770874,356.922272 
	C1484.647827,423.802429 1475.894287,489.389587 1457.329224,553.651001 
	C1454.836426,562.279480 1452.032837,570.818115 1448.817871,579.753601 
	C1446.851440,581.230469 1445.248047,582.180298 1444.064209,583.504944 
	C1439.876953,588.190247 1436.199585,593.390381 1431.661255,597.690857 
	C1421.092285,607.706116 1410.371582,617.593018 1399.230835,626.958984 
	C1394.014893,631.343933 1387.684082,634.402710 1381.858521,638.062500 
	C1377.564941,635.329712 1373.271240,632.596863 1368.586304,629.614990 
	C1371.880615,623.563416 1374.866699,618.078125 1378.060059,612.389954 
z"/>
<path fill="#DFCBB1" opacity="1.000000" stroke="none" 
	d="
M1124.568848,225.730957 
	C1130.420654,229.455856 1136.272339,233.180771 1142.500122,237.145050 
	C1102.739258,264.010284 1087.031738,304.326294 1078.026611,349.089600 
	C1061.494629,347.742371 1045.756470,343.693451 1030.339111,336.578827 
	C1032.707275,330.676361 1035.277344,325.295227 1038.015625,320.001007 
	C1048.062866,300.575867 1060.683228,282.959076 1075.558228,266.948181 
	C1090.196167,251.192413 1107.167603,238.204590 1124.568848,225.730957 
z"/>
<path fill="#D0B48E" opacity="1.000000" stroke="none" 
	d="
M1313.895142,141.392700 
	C1313.897095,141.062988 1313.899170,140.733292 1314.214844,139.936401 
	C1314.627075,139.069550 1314.725586,138.669876 1314.824097,138.270203 
	C1318.448853,120.476776 1332.937256,111.012573 1352.605713,113.330643 
	C1384.820557,117.127419 1408.714722,134.584412 1428.124756,159.293030 
	C1429.143677,160.589966 1428.888672,163.730911 1428.079712,165.484238 
	C1422.493896,177.589859 1414.033203,187.651718 1404.432739,196.868927 
	C1403.076172,195.424194 1402.331055,193.781097 1401.067505,193.100250 
	C1389.010742,186.603500 1376.898438,180.206589 1364.708862,173.963013 
	C1363.050415,173.113556 1360.879028,173.265259 1358.945190,172.953415 
	C1357.976562,163.737747 1357.424683,154.450043 1355.849854,145.339172 
	C1355.143066,141.251389 1352.864014,137.192413 1350.467285,133.688980 
	C1344.986816,125.677948 1336.696899,125.125977 1329.569458,131.798523 
	C1324.526123,136.519943 1322.800659,142.683624 1321.404785,149.609924 
	C1318.089233,149.659058 1315.289185,149.323364 1312.489258,148.987671 
	C1312.478760,148.467789 1312.468384,147.947906 1312.682983,146.879211 
	C1312.952515,145.929214 1312.996948,145.528046 1313.041382,145.126877 
	C1313.063599,144.628601 1313.085693,144.130310 1313.382324,143.045746 
	C1313.736084,142.103882 1313.815674,141.748291 1313.895142,141.392700 
z"/>
<path fill="#E6D6C0" opacity="1.000000" stroke="none" 
	d="
M1439.572510,352.947449 
	C1442.106445,359.778900 1444.118164,366.615723 1446.324463,373.389221 
	C1454.042358,397.083984 1456.544189,421.525116 1454.783203,446.164490 
	C1453.169800,468.740356 1447.832275,490.661621 1438.776245,511.618652 
	C1429.654053,532.728210 1417.273926,551.644226 1402.062012,568.779236 
	C1400.914429,570.071838 1399.203735,570.864502 1397.408691,571.954224 
	C1403.754150,551.394653 1411.367676,531.016174 1416.940430,510.094147 
	C1427.766846,469.447754 1431.350098,427.866211 1429.611816,385.864990 
	C1429.186523,375.590698 1427.861572,365.353607 1426.904297,354.583038 
	C1431.022949,354.024506 1435.081177,353.474152 1439.572510,352.947449 
z"/>
<path fill="#D0B48E" opacity="1.000000" stroke="none" 
	d="
M1099.856079,197.313629 
	C1089.592163,188.073242 1081.410889,177.244629 1075.504883,164.773697 
	C1074.814453,163.315857 1074.765259,160.624023 1075.662720,159.481995 
	C1093.568726,136.699524 1115.304688,119.634384 1144.676147,114.378510 
	C1148.428589,113.707031 1152.260986,113.255791 1156.068115,113.157631 
	C1173.221924,112.715370 1182.509888,119.395851 1188.958252,136.966492 
	C1188.999878,137.398987 1189.044922,137.603058 1189.044922,137.603058 
	C1189.745117,140.398148 1190.445190,143.193268 1191.001587,146.770538 
	C1186.060669,151.183350 1184.616211,150.933411 1181.858521,145.995667 
	C1180.121216,142.074127 1178.961304,137.745270 1176.536865,134.308487 
	C1169.648071,124.542725 1158.888916,124.949806 1152.466553,134.993744 
	C1147.398804,142.919098 1145.854248,151.927597 1145.225708,161.115768 
	C1144.999146,164.425461 1145.147827,167.760849 1144.657104,171.559235 
	C1130.192627,179.100052 1116.167725,186.111176 1102.251587,193.331726 
	C1101.079834,193.939728 1100.637329,195.953140 1099.856079,197.313629 
z"/>
<path fill="#D8C1A1" opacity="1.000000" stroke="none" 
	d="
M1124.365601,225.446625 
	C1107.167603,238.204590 1090.196167,251.192413 1075.558228,266.948181 
	C1060.683228,282.959076 1048.062866,300.575867 1038.015625,320.001007 
	C1035.277344,325.295227 1032.707275,330.676361 1030.035645,336.367859 
	C1029.844971,336.708191 1029.662109,336.740601 1029.515015,336.682404 
	C1020.883911,333.270050 1020.561584,333.226044 1021.769775,324.226776 
	C1024.489380,303.968719 1027.561157,283.757904 1030.750000,263.029175 
	C1031.010376,262.530487 1031.033447,262.085388 1031.033447,262.085388 
	C1031.033447,262.085388 1030.991577,262.040253 1031.379639,262.016174 
	C1033.392578,260.946320 1035.319824,260.179840 1036.588989,258.805573 
	C1041.638062,253.338577 1045.988159,247.130356 1051.496704,242.202072 
	C1066.405151,228.863770 1081.773438,216.039444 1096.959351,203.011292 
	C1106.026978,210.394974 1115.094604,217.778641 1124.365601,225.446625 
z"/>
<path fill="#DFCBB2" opacity="1.000000" stroke="none" 
	d="
M1470.033447,338.247620 
	C1456.121094,344.595703 1441.370239,347.477203 1425.933594,349.273499 
	C1417.086060,304.599121 1400.688721,264.543091 1361.435547,237.209824 
	C1366.458130,233.976791 1371.315308,230.850189 1376.578613,227.985458 
	C1378.061157,229.439163 1378.988770,230.822327 1380.237305,231.792755 
	C1390.445801,239.727020 1401.245361,246.990845 1410.852905,255.589417 
	C1430.399292,273.082825 1446.912231,293.226410 1459.512207,316.346924 
	C1463.382690,323.449097 1466.546265,330.936554 1470.033447,338.247620 
z"/>
<path fill="#CFB38C" opacity="1.000000" stroke="none" 
	d="
M1263.084595,746.205200 
	C1268.254883,743.175720 1273.092651,740.312378 1278.375366,737.185669 
	C1286.075806,754.308044 1298.520386,767.514160 1313.480225,780.121460 
	C1301.517700,786.125183 1290.289185,791.760437 1278.645264,797.604248 
	C1273.918823,783.042114 1262.606812,779.889038 1250.288818,780.369385 
	C1239.531982,780.788879 1229.398682,784.036133 1225.580444,797.642090 
	C1213.980835,791.881775 1202.656738,786.258301 1190.384644,780.164062 
	C1205.511841,767.581726 1217.783813,754.264404 1225.563965,737.320374 
	C1231.751709,740.849976 1237.957642,743.767578 1243.454834,747.680786 
	C1250.552124,752.733093 1256.548706,750.022705 1263.084595,746.205200 
z"/>
<path fill="#CE1443" opacity="1.000000" stroke="none" 
	d="
M1667.000000,1275.000000 
	C1667.000000,1303.433838 1667.000000,1331.367798 1667.000000,1359.650146 
	C1657.295776,1359.650146 1647.928345,1359.650146 1638.278809,1359.650146 
	C1638.278809,1315.852173 1638.278809,1272.187988 1638.278809,1228.261841 
	C1647.763794,1228.261841 1657.013428,1228.261841 1667.000000,1228.261841 
	C1667.000000,1243.697021 1667.000000,1259.098511 1667.000000,1275.000000 
z"/>
<path fill="#DAC4A5" opacity="1.000000" stroke="none" 
	d="
M1470.413696,338.225037 
	C1466.546265,330.936554 1463.382690,323.449097 1459.512207,316.346924 
	C1446.912231,293.226410 1430.399292,273.082825 1410.852905,255.589417 
	C1401.245361,246.990845 1390.445801,239.727020 1380.237305,231.792755 
	C1378.988770,230.822327 1378.061157,229.439163 1376.921997,227.872375 
	C1383.031128,222.735291 1389.203125,217.973145 1396.039551,213.171204 
	C1409.520630,223.305496 1422.995483,232.766830 1434.984009,243.837494 
	C1449.357422,257.110352 1461.598267,272.455750 1472.380615,288.885498 
	C1474.122925,291.540405 1476.704956,293.644196 1478.898804,296.002747 
	C1480.183716,307.560181 1481.536499,319.111145 1482.636230,330.686157 
	C1482.733032,331.705475 1481.412109,333.326050 1480.339111,333.901398 
	C1477.270752,335.546539 1473.990723,336.796875 1470.413696,338.225037 
z"/>
<path fill="#D6BE9D" opacity="1.000000" stroke="none" 
	d="
M1409.765015,669.961731 
	C1407.201904,670.794861 1404.554565,670.876770 1402.569702,672.065308 
	C1377.925415,686.822510 1351.968262,698.487976 1324.114990,705.711426 
	C1320.951904,706.531677 1317.575073,706.527710 1313.814941,706.872925 
	C1326.147339,690.206787 1339.158203,673.719421 1351.683228,656.870850 
	C1356.921997,649.823547 1361.129150,642.009338 1366.138916,634.011169 
	C1380.863037,646.085083 1398.014771,652.831299 1416.865234,657.030701 
	C1414.376343,661.625000 1412.182495,665.674866 1409.765015,669.961731 
z"/>
<path fill="#D7BF9D" opacity="1.000000" stroke="none" 
	d="
M1189.533691,705.503418 
	C1183.576172,704.530457 1177.329102,703.651062 1171.347290,701.877014 
	C1146.229980,694.427490 1122.638916,683.582336 1100.567139,669.426392 
	C1098.235352,667.930969 1095.454224,667.136292 1092.515869,666.005859 
	C1090.822021,663.031921 1089.493896,660.068481 1088.816528,657.044800 
	C1089.963379,656.764648 1090.459351,656.544678 1090.955444,656.324646 
	C1091.411133,656.181946 1091.866821,656.039185 1092.830566,655.939331 
	C1093.543457,655.937195 1093.715454,655.836121 1093.854370,655.678894 
	C1109.612061,650.992065 1124.745483,645.024963 1137.663818,633.946106 
	C1153.613403,658.864807 1168.434326,684.258789 1189.533691,705.503418 
z"/>
<path fill="#D9C3A4" opacity="1.000000" stroke="none" 
	d="
M1045.785522,550.434204 
	C1047.681152,551.387939 1050.215942,552.345154 1051.339233,554.170776 
	C1060.876953,569.671814 1071.767334,584.252563 1084.745850,596.860718 
	C1096.011597,607.805115 1108.892822,617.091858 1121.122314,627.034607 
	C1123.692627,629.124268 1126.534424,630.879883 1129.569214,632.876831 
	C1117.250854,643.072632 1102.323364,647.940796 1086.866699,651.409729 
	C1085.738647,651.662903 1083.407471,649.526611 1082.645508,647.997864 
	C1069.879761,622.387756 1059.560059,595.788025 1050.977905,568.506348 
	C1049.135864,562.651001 1047.500854,556.730591 1045.785522,550.434204 
z"/>
<path fill="#D5BB99" opacity="1.000000" stroke="none" 
	d="
M1478.965332,295.574524 
	C1476.704956,293.644196 1474.122925,291.540405 1472.380615,288.885498 
	C1461.598267,272.455750 1449.357422,257.110352 1434.984009,243.837494 
	C1422.995483,232.766830 1409.520630,223.305496 1396.362061,213.066589 
	C1402.070312,207.045395 1408.120605,201.089005 1414.784912,195.178864 
	C1430.467773,208.181290 1445.502197,221.177963 1460.663818,234.024536 
	C1462.025391,235.178207 1464.209595,235.360977 1466.011719,235.994659 
	C1470.051270,253.411591 1474.114746,270.823029 1478.101074,288.252106 
	C1478.615967,290.503357 1478.731445,292.846008 1478.965332,295.574524 
z"/>
<path fill="#D0B590" opacity="1.000000" stroke="none" 
	d="
M1096.844727,202.698257 
	C1081.773438,216.039444 1066.405151,228.863770 1051.496704,242.202072 
	C1045.988159,247.130356 1041.638062,253.338577 1036.588989,258.805573 
	C1035.319824,260.179840 1033.392578,260.946320 1031.407959,262.004272 
	C1035.329346,239.693985 1042.499634,218.287277 1052.293335,197.830002 
	C1057.294922,187.382767 1063.325562,177.428192 1069.579956,165.991150 
	C1076.921021,180.707031 1086.237793,192.003601 1096.844727,202.698257 
z"/>
<path fill="#CEB28C" opacity="1.000000" stroke="none" 
	d="
M1216.233643,37.679550 
	C1212.054443,36.902466 1214.227661,34.694317 1214.869385,33.178268 
	C1221.815308,16.769026 1239.732910,7.526306 1258.380371,10.406518 
	C1273.057129,12.673432 1283.451660,20.385784 1289.459595,33.977100 
	C1289.726562,34.580894 1289.934570,35.219372 1290.086060,35.861523 
	C1290.153076,36.145432 1290.010132,36.478848 1289.963745,36.781033 
	C1265.263306,44.799736 1265.090210,44.913677 1251.837036,62.094952 
	C1243.635864,48.771332 1232.280273,40.069965 1216.233643,37.679550 
z"/>
<path fill="#D3BA97" opacity="1.000000" stroke="none" 
	d="
M1448.161377,607.356201 
	C1453.488770,607.161255 1455.043457,602.534363 1457.492676,599.566956 
	C1471.908325,582.102234 1483.684692,562.932800 1493.345093,542.447449 
	C1494.129272,540.784790 1495.705566,539.495667 1497.250488,538.010742 
	C1490.401733,569.298889 1480.432373,599.714111 1467.983154,629.697083 
	C1465.645264,631.028259 1463.171265,631.662659 1461.460205,633.165588 
	C1451.057983,642.302063 1440.909180,651.727356 1430.477661,660.829346 
	C1428.330566,662.702759 1425.345581,663.615784 1422.375488,664.989258 
	C1430.656006,645.870117 1439.307739,626.733154 1448.161377,607.356201 
z"/>
<path fill="#D3BA97" opacity="1.000000" stroke="none" 
	d="
M1005.748718,535.336670 
	C1007.580933,537.080566 1009.961670,538.922485 1011.041260,541.344421 
	C1020.158630,561.798096 1032.155151,580.472473 1045.850952,598.081970 
	C1048.014404,600.863647 1051.287598,602.782227 1054.444580,605.194092 
	C1058.782593,615.066162 1062.389038,624.996582 1066.758911,634.578796 
	C1071.187744,644.290466 1076.370972,653.658020 1081.289307,663.533936 
	C1077.331177,661.509766 1072.836914,659.666931 1069.373413,656.643555 
	C1059.673950,648.176819 1050.430786,639.188843 1040.927002,630.494568 
	C1039.407471,629.104431 1037.472412,628.168579 1035.367188,627.014221 
	C1035.004883,627.005737 1034.995605,626.999451 1034.970703,626.826782 
	C1034.877686,626.431091 1034.752686,626.246704 1034.570679,626.100952 
	C1026.082397,600.639709 1017.539001,575.196533 1009.156982,549.700256 
	C1007.660156,545.147400 1006.831360,540.374756 1005.748718,535.336670 
z"/>
<path fill="#D3BA97" opacity="1.000000" stroke="none" 
	d="
M1013.975525,322.277496 
	C1011.622253,325.704132 1008.603333,328.532837 1007.295227,332.005920 
	C999.909607,351.615356 993.199341,371.441345 990.774780,392.440826 
	C990.556641,394.330688 988.875183,396.051666 987.523254,397.925720 
	C987.662231,373.180023 987.998657,348.355255 988.731750,323.542206 
	C988.956177,315.947388 990.269165,308.384796 991.230835,300.407104 
	C993.573547,298.009460 996.299255,296.359467 997.873840,293.955536 
	C1005.280640,282.647217 1012.330566,271.105804 1019.626831,259.723785 
	C1020.540466,258.298492 1022.159424,257.325317 1023.807007,256.115417 
	C1022.859924,262.221008 1021.283203,268.310822 1020.312805,274.495758 
	C1018.404175,286.660889 1016.795227,298.873779 1015.144226,311.078003 
	C1014.655212,314.691986 1014.440430,318.343079 1013.975525,322.277496 
z"/>
<path fill="#D3BA97" opacity="1.000000" stroke="none" 
	d="
M1517.056763,393.587250 
	C1512.218750,377.627167 1507.746338,361.223419 1502.738403,344.984924 
	C1500.500000,337.726379 1497.286987,330.756042 1494.278198,323.757233 
	C1493.646484,322.287537 1491.970337,321.266815 1490.416016,320.019775 
	C1488.428223,308.205109 1486.938599,296.388458 1485.121704,284.622314 
	C1483.918335,276.829865 1482.245850,269.109833 1480.800049,260.682129 
	C1480.653809,259.686768 1480.490723,259.366608 1480.327637,259.046509 
	C1480.196167,258.614685 1480.064697,258.182861 1479.949585,257.249725 
	C1479.932495,256.530731 1479.846680,256.336273 1479.708252,256.165039 
	C1479.521606,255.687637 1479.334839,255.210236 1479.157959,254.343933 
	C1480.787598,255.147903 1482.920410,256.007446 1483.946045,257.586273 
	C1492.384766,270.577271 1500.596680,283.715363 1508.948608,296.763367 
	C1509.712891,297.957642 1510.973755,298.834229 1512.324585,299.927612 
	C1512.789795,301.057037 1512.934448,302.117157 1513.038330,303.705902 
	C1513.009888,304.406464 1513.054321,304.569641 1513.130859,304.724121 
	C1513.441895,306.854492 1513.752808,308.984833 1513.817871,311.742767 
	C1513.737305,312.918701 1513.902832,313.467072 1514.068359,314.015472 
	C1515.176025,337.918640 1516.299316,361.821136 1517.367920,385.726044 
	C1517.479126,388.213593 1517.266602,390.715607 1517.056763,393.587250 
z"/>
<path fill="#CEB28C" opacity="1.000000" stroke="none" 
	d="
M1255.506348,847.648071 
	C1253.178833,850.634827 1251.023682,850.930054 1248.789551,848.095886 
	C1239.264893,836.013550 1233.364502,822.574585 1232.928589,806.946777 
	C1232.514771,792.112976 1239.635132,787.932922 1255.233643,788.390015 
	C1256.546753,788.428406 1257.869751,788.783997 1259.151855,789.127441 
	C1267.651367,791.403931 1270.297363,794.667542 1270.822876,803.517273 
	C1271.699707,818.287842 1266.756836,831.297363 1258.698608,843.348450 
	C1257.774780,844.730103 1256.731689,846.031921 1255.506348,847.648071 
z"/>
<path fill="#D7BF9F" opacity="1.000000" stroke="none" 
	d="
M1358.964111,172.953339 
	C1360.879028,173.265259 1363.050415,173.113556 1364.708862,173.963013 
	C1376.898438,180.206589 1389.010742,186.603500 1401.067505,193.100250 
	C1402.331055,193.781097 1403.076172,195.424194 1404.117676,197.004456 
	C1393.347656,206.223419 1382.521484,215.058746 1371.353882,223.953888 
	C1370.015015,222.678391 1369.303711,220.794586 1367.972168,220.099976 
	C1361.130615,216.530777 1354.087280,213.350037 1347.215698,209.835510 
	C1345.604248,209.011261 1344.385498,207.419067 1342.929688,205.789352 
	C1350.680664,202.063309 1353.842285,195.172424 1355.983276,187.725510 
	C1357.206787,183.469788 1357.699097,179.003845 1358.739746,174.070282 
	C1359.017578,173.316101 1359.014282,173.125259 1358.948853,172.935501 
	C1358.948853,172.935501 1358.983032,172.953278 1358.964111,172.953339 
z"/>
<path fill="#D7BF9F" opacity="1.000000" stroke="none" 
	d="
M1099.992432,197.610413 
	C1100.637329,195.953140 1101.079834,193.939728 1102.251587,193.331726 
	C1116.167725,186.111176 1130.192627,179.100052 1144.562988,172.014404 
	C1144.684937,180.351700 1146.556030,188.261078 1151.033203,195.266098 
	C1153.268188,198.762909 1156.629517,201.539841 1159.729004,204.870880 
	C1158.869751,206.487213 1158.046509,208.409302 1156.608276,209.172729 
	C1149.470215,212.961548 1142.150635,216.406662 1134.947632,220.076157 
	C1133.843750,220.638489 1133.014160,221.738998 1131.960693,222.942902 
	C1121.285522,214.832520 1110.707153,206.369858 1099.992432,197.610413 
z"/>
<path fill="#D7C0A0" opacity="1.000000" stroke="none" 
	d="
M1382.047119,638.350342 
	C1387.684082,634.402710 1394.014893,631.343933 1399.230835,626.958984 
	C1410.371582,617.593018 1421.092285,607.706116 1431.661255,597.690857 
	C1436.199585,593.390381 1439.876953,588.190247 1444.064209,583.504944 
	C1445.248047,582.180298 1446.851440,581.230469 1448.598389,580.054932 
	C1440.283691,601.597290 1431.649292,623.199890 1422.959229,644.780090 
	C1422.031006,647.085388 1420.778198,649.259888 1419.438843,651.976135 
	C1406.330444,649.537354 1393.888794,645.236877 1382.047119,638.350342 
z"/>
<path fill="#D5BD9C" opacity="1.000000" stroke="none" 
	d="
M1199.875977,157.389343 
	C1200.334961,156.083878 1200.984375,155.161819 1200.932861,154.280762 
	C1200.745972,151.086090 1202.105713,150.211761 1205.258789,149.888458 
	C1215.212036,148.867935 1225.116089,147.368164 1235.447510,146.025391 
	C1238.793335,174.693588 1211.750000,201.696884 1184.206055,196.369705 
	C1194.180786,185.185669 1198.811157,172.181366 1199.875977,157.389343 
z"/>
<path fill="#D6BE9D" opacity="1.000000" stroke="none" 
	d="
M1267.977417,147.223328 
	C1278.061646,148.073639 1288.048706,149.059341 1298.005737,150.289093 
	C1299.853516,150.517319 1301.579712,151.728790 1303.628906,152.721893 
	C1303.689941,166.555252 1307.290283,179.028000 1314.984375,190.272491 
	C1316.340454,192.254333 1317.838623,194.138931 1319.415771,196.263321 
	C1295.384399,202.242050 1267.469116,176.969818 1267.812988,149.361694 
	C1267.973267,148.371246 1267.966919,148.147278 1267.960693,147.923309 
	C1267.960693,147.923309 1267.869995,147.442902 1267.977417,147.223328 
z"/>
<path fill="#CFB38E" opacity="1.000000" stroke="none" 
	d="
M1466.041260,235.597488 
	C1464.209595,235.360977 1462.025391,235.178207 1460.663818,234.024536 
	C1445.502197,221.177963 1430.467773,208.181290 1415.092285,195.057022 
	C1421.309814,185.945892 1427.834106,177.002884 1434.560913,167.782150 
	C1448.705811,188.213272 1458.703125,211.079239 1466.041260,235.597488 
z"/>
<path fill="#CCB493" opacity="1.000000" stroke="none" 
	d="
M1181.785156,146.401276 
	C1184.616211,150.933411 1186.060669,151.183350 1190.958252,147.193542 
	C1193.383911,163.540680 1190.137573,178.707214 1177.753296,190.808487 
	C1170.247803,198.142471 1160.829590,196.537766 1156.322021,187.130249 
	C1149.276489,172.425491 1149.706299,157.408936 1156.999512,142.906357 
	C1158.342896,140.234894 1161.899170,137.502777 1164.782837,137.057251 
	C1168.996582,136.406250 1171.537964,140.226212 1172.807007,144.014374 
	C1175.579712,152.292252 1176.365845,160.698914 1172.096558,168.715408 
	C1171.165283,170.463776 1168.698486,171.394318 1166.939087,172.701569 
	C1165.875854,170.794571 1163.870117,168.846283 1163.951416,166.989349 
	C1164.106445,163.447754 1165.612061,159.986282 1166.233765,156.434967 
	C1166.530884,154.737640 1166.088501,152.910843 1165.981079,151.142700 
	C1164.019165,151.507965 1161.650879,151.325226 1160.210449,152.393539 
	C1158.787842,153.448746 1157.864014,155.679260 1157.483032,157.549316 
	C1155.837646,165.626617 1156.728394,173.497665 1160.588257,180.837601 
	C1164.086914,187.490570 1169.069702,187.955276 1173.795532,181.951416 
	C1179.569336,174.616409 1181.670410,165.894943 1182.152344,156.768539 
	C1182.326660,153.464966 1181.876831,150.128403 1181.785156,146.401276 
z"/>
<path fill="#CCB493" opacity="1.000000" stroke="none" 
	d="
M1312.366089,149.366333 
	C1315.289185,149.323364 1318.089233,149.659058 1321.286377,149.991333 
	C1321.490601,159.240570 1322.443848,168.309067 1326.814087,176.642838 
	C1329.120239,181.040222 1331.528442,186.463501 1337.383789,185.877350 
	C1343.300293,185.285080 1344.867188,179.353928 1345.632324,174.628769 
	C1346.593506,168.693069 1346.260742,162.499222 1345.972900,156.441193 
	C1345.892212,154.744415 1344.331299,152.657669 1342.842041,151.632416 
	C1341.629761,150.797852 1339.158569,150.677277 1337.918213,151.397766 
	C1337.118164,151.862564 1337.202881,154.474289 1337.466675,156.025925 
	C1338.150757,160.048859 1339.503174,163.988052 1339.843872,168.023590 
	C1339.967529,169.487030 1338.278931,171.802643 1336.842163,172.447098 
	C1335.920898,172.860291 1333.531616,171.262985 1332.517578,169.993820 
	C1327.427734,163.622787 1328.001587,146.490555 1333.309326,140.078522 
	C1336.914185,135.723602 1342.043213,135.304016 1345.010620,140.056702 
	C1347.844360,144.595184 1349.927368,149.859985 1351.159180,155.084045 
	C1353.324097,164.264771 1352.896851,173.594574 1349.730225,182.588211 
	C1347.752319,188.205338 1345.038818,193.622955 1338.504272,194.874466 
	C1331.622437,196.192444 1326.618286,192.373535 1322.682739,187.314865 
	C1314.086426,176.265259 1311.348267,163.484940 1312.366089,149.366333 
z"/>
<path fill="#CE1443" opacity="1.000000" stroke="none" 
	d="
M1639.308594,1204.804688 
	C1630.715942,1198.534180 1630.882568,1181.481567 1639.139526,1175.285645 
	C1646.319458,1169.898071 1653.840454,1169.765259 1661.795898,1172.913452 
	C1667.068604,1175.000122 1670.691895,1181.676147 1671.069092,1188.570557 
	C1671.521606,1196.840576 1669.126099,1203.544678 1661.332031,1207.119873 
	C1653.860962,1210.546875 1646.423462,1210.038452 1639.308594,1204.804688 
z"/>
<path fill="#D9C3A4" opacity="1.000000" stroke="none" 
	d="
M1278.926147,194.665070 
	C1274.834229,195.076065 1270.580688,195.251450 1266.325928,195.296158 
	C1256.545044,195.398956 1246.763428,195.481094 1236.982178,195.481461 
	C1233.213379,195.481598 1229.444458,195.237137 1225.260010,195.017471 
	C1238.361572,184.587311 1244.387329,170.695465 1244.379272,153.452332 
	C1249.111816,153.007858 1253.743774,153.009293 1258.807251,152.981781 
	C1259.897095,158.018936 1260.162842,163.174637 1261.294189,168.132797 
	C1263.776733,179.012207 1269.618652,187.836227 1278.926147,194.665070 
z"/>
<path fill="#D3BA97" opacity="1.000000" stroke="none" 
	d="
M987.810181,413.250427 
	C988.120422,414.143494 988.321533,415.308289 988.306519,416.715820 
	C987.960632,415.813049 987.830811,414.667603 987.810181,413.250427 
z"/>
<path fill="#D7BF9F" opacity="1.000000" stroke="none" 
	d="
M1339.780029,205.835876 
	C1339.166382,206.137848 1338.318604,206.331970 1337.261719,206.320648 
	C1337.883545,205.986145 1338.714722,205.857086 1339.780029,205.835876 
z"/>
<path fill="#D7BF9F" opacity="1.000000" stroke="none" 
	d="
M1313.787354,205.994019 
	C1313.402344,206.215195 1312.854492,206.304276 1312.160156,206.200455 
	C1312.550659,205.959015 1313.087524,205.910477 1313.787354,205.994019 
z"/>
<path fill="#CFB38D" opacity="1.000000" stroke="none" 
	d="
M1514.171631,313.828674 
	C1513.902832,313.467072 1513.737305,312.918701 1513.754639,312.201385 
	C1514.049805,312.568939 1514.162354,313.105438 1514.171631,313.828674 
z"/>
<path fill="#DDC8AD" opacity="1.000000" stroke="none" 
	d="
M1445.773438,351.748901 
	C1445.461914,352.045471 1444.900391,352.259705 1444.198486,352.309387 
	C1444.546509,351.985382 1445.035034,351.825989 1445.773438,351.748901 
z"/>
<path fill="#D3BA97" opacity="1.000000" stroke="none" 
	d="
M1516.162231,413.774231 
	C1515.919067,413.402161 1515.824219,412.805450 1515.922363,412.097717 
	C1516.180420,412.507629 1516.245605,413.028595 1516.162231,413.774231 
z"/>
<path fill="#D3BA97" opacity="1.000000" stroke="none" 
	d="
M988.788940,428.158539 
	C989.089539,428.519989 989.273010,429.062622 989.282959,429.782166 
	C988.963623,429.419312 988.817688,428.879517 988.788940,428.158539 
z"/>
<path fill="#D3BA97" opacity="1.000000" stroke="none" 
	d="
M1024.322266,255.968887 
	C1024.214844,255.619827 1024.322510,255.069504 1024.591675,254.287537 
	C1024.681274,254.626480 1024.609375,255.197052 1024.322266,255.968887 
z"/>
<path fill="#D1B58F" opacity="1.000000" stroke="none" 
	d="
M1090.674683,656.268005 
	C1090.459351,656.544678 1089.963379,656.764648 1089.188965,656.970703 
	C1089.404907,656.708191 1089.899414,656.459778 1090.674683,656.268005 
z"/>
<path fill="#CCB493" opacity="1.000000" stroke="none" 
	d="
M1312.890625,145.290131 
	C1312.996948,145.528046 1312.952515,145.929214 1312.851562,146.523804 
	C1312.776611,146.295929 1312.758179,145.874649 1312.890625,145.290131 
z"/>
<path fill="#D3BA97" opacity="1.000000" stroke="none" 
	d="
M1449.831543,603.096008 
	C1450.001343,603.230225 1449.945557,603.441162 1449.719238,603.759155 
	C1449.440063,603.635864 1449.459106,603.404724 1449.831543,603.096008 
z"/>
<path fill="#CCB493" opacity="1.000000" stroke="none" 
	d="
M1189.142578,137.564316 
	C1189.044922,137.603058 1188.999878,137.398987 1188.974854,137.352661 
	C1188.949951,137.306351 1189.240356,137.525574 1189.142578,137.564316 
z"/>
<path fill="#CCB493" opacity="1.000000" stroke="none" 
	d="
M1313.678223,141.591522 
	C1313.815674,141.748291 1313.736084,142.103882 1313.519531,142.695343 
	C1313.408691,142.550934 1313.434937,142.170624 1313.678223,141.591522 
z"/>
<path fill="#CCB493" opacity="1.000000" stroke="none" 
	d="
M1314.571533,138.481903 
	C1314.725586,138.669876 1314.627075,139.069550 1314.347656,139.720215 
	C1314.217529,139.545334 1314.268311,139.119476 1314.571533,138.481903 
z"/>
<path fill="#CFB38D" opacity="1.000000" stroke="none" 
	d="
M1267.814697,148.056000 
	C1267.966919,148.147278 1267.973267,148.371246 1267.929199,148.928009 
	C1267.775635,149.031326 1267.647827,148.808731 1267.579956,148.569168 
	C1267.548828,148.459610 1267.635376,148.316574 1267.814697,148.056000 
z"/>
<path fill="#D1B58F" opacity="1.000000" stroke="none" 
	d="
M1093.698853,655.683044 
	C1093.715454,655.836121 1093.543457,655.937195 1093.186279,655.990356 
	C1093.140137,655.790405 1093.309937,655.686584 1093.698853,655.683044 
z"/>
<path fill="#D0B48E" opacity="1.000000" stroke="none" 
	d="
M1358.805176,173.046051 
	C1359.014282,173.125259 1359.017578,173.316101 1358.896240,173.638199 
	C1358.557373,173.626205 1358.499878,173.422272 1358.805176,173.046051 
z"/>
<path fill="#CFB38D" opacity="1.000000" stroke="none" 
	d="
M1034.531860,626.285156 
	C1034.752686,626.246704 1034.877686,626.431091 1034.971924,626.821594 
	C1034.729492,626.913086 1034.561157,626.739807 1034.531860,626.285156 
z"/>
<path fill="#CFB38D" opacity="1.000000" stroke="none" 
	d="
M1479.614014,256.330078 
	C1479.846680,256.336273 1479.932495,256.530731 1479.968262,256.909668 
	C1479.706543,256.968018 1479.556152,256.776062 1479.614014,256.330078 
z"/>
<path fill="#CFB38D" opacity="1.000000" stroke="none" 
	d="
M1480.284058,259.330994 
	C1480.490723,259.366608 1480.653809,259.686768 1480.831787,260.281586 
	C1480.644531,260.242676 1480.442505,259.929108 1480.284058,259.330994 
z"/>
<path fill="#D0B590" opacity="1.000000" stroke="none" 
	d="
M1030.897949,262.154480 
	C1031.033447,262.085388 1031.010376,262.530487 1030.955322,262.628601 
	C1030.900146,262.726746 1030.683105,262.515808 1030.683105,262.515808 
	C1030.683105,262.515808 1030.762451,262.223541 1030.897949,262.154480 
z"/>
<path fill="#CFB38D" opacity="1.000000" stroke="none" 
	d="
M1513.238403,304.604309 
	C1513.054321,304.569641 1513.009888,304.406464 1513.005127,304.107300 
	C1513.251343,304.064056 1513.362427,304.232178 1513.238403,304.604309 
z"/>
<path fill="#D3BA97" opacity="1.000000" stroke="none" 
	d="
M1003.838013,527.412109 
	C1003.942444,527.343201 1004.050476,527.638062 1004.050659,527.716919 
	C1003.836365,527.800110 1003.730591,527.695190 1003.838013,527.412109 
z"/>
<path fill="#D3BA97" opacity="1.000000" stroke="none" 
	d="
M1004.404663,530.293335 
	C1004.670349,530.263977 1004.812683,530.501343 1004.903320,530.991211 
	C1004.620605,531.066833 1004.430481,530.838989 1004.404663,530.293335 
z"/>
<path fill="#D3BA97" opacity="1.000000" stroke="none" 
	d="
M1498.126221,535.861572 
	C1497.984985,535.940308 1498.057251,535.450867 1498.114258,535.340576 
	C1498.409790,535.378418 1498.441895,535.562561 1498.126221,535.861572 
z"/>
<path fill="#FEFCFD" opacity="1.000000" stroke="none" 
	d="
M1186.023315,453.921173 
	C1192.758179,482.854858 1199.423096,511.377289 1206.088013,539.899719 
	C1206.405762,539.913696 1206.723511,539.927612 1207.041260,539.941589 
	C1219.580444,459.164520 1232.119629,378.387482 1244.638550,297.740631 
	C1253.210083,295.766602 1253.351196,295.890320 1255.046997,304.017090 
	C1271.410034,382.436157 1287.787231,460.852264 1304.167969,539.267639 
	C1304.437378,540.557495 1304.800049,541.827881 1305.914185,543.204590 
	C1307.208252,537.827454 1308.546997,532.460571 1309.789307,527.071533 
	C1322.696289,471.082794 1335.588013,415.090637 1348.478638,359.098145 
	C1348.777344,357.800629 1349.083252,356.498108 1349.263916,355.181244 
	C1350.425293,346.720764 1346.589966,342.411957 1338.163452,342.684326 
	C1336.848755,342.726837 1335.536011,342.832581 1333.866699,342.929749 
	C1333.866699,337.006927 1333.866699,331.273041 1333.866699,325.178528 
	C1351.998535,325.178528 1370.059204,325.178528 1388.469482,325.178528 
	C1388.469482,331.116272 1388.469482,337.018066 1388.469482,343.097260 
	C1387.525513,343.169678 1386.718628,343.283325 1385.911499,343.285431 
	C1378.475952,343.304840 1375.606689,345.517334 1374.026489,352.654205 
	C1366.033936,388.752625 1358.065063,424.856232 1350.085938,460.957642 
	C1334.774658,530.233948 1319.463135,599.510193 1304.143555,668.784668 
	C1303.791626,670.376221 1303.342285,671.946106 1302.974365,673.385620 
	C1293.457886,674.346863 1293.442139,674.349915 1291.744995,665.622925 
	C1277.851196,594.180237 1263.965332,522.736023 1250.064575,451.294708 
	C1249.756348,449.711029 1249.298462,448.156494 1248.141479,446.662872 
	C1245.139038,466.198181 1242.121948,485.731232 1239.137085,505.269196 
	C1230.760742,560.099670 1222.377686,614.929077 1214.087646,669.772644 
	C1213.669434,672.540527 1212.957520,674.087952 1209.832397,673.781372 
	C1206.308838,673.435608 1202.603638,675.056580 1201.268433,669.185364 
	C1190.373291,621.280029 1179.127563,573.454407 1167.982422,525.606018 
	C1154.759155,468.836060 1141.428711,412.090759 1128.427612,355.269989 
	C1126.737427,347.882874 1123.704224,342.930023 1115.528076,342.321442 
	C1115.528076,336.516479 1115.528076,331.106262 1115.528076,325.257019 
	C1135.745483,325.257019 1155.968018,325.257019 1176.579102,325.257019 
	C1176.579102,330.632721 1176.579102,336.205048 1176.579102,341.871307 
	C1176.446045,341.962616 1176.183594,342.300537 1175.935547,342.290283 
	C1165.438354,341.856232 1161.147949,346.983948 1163.605591,357.658539 
	C1170.965942,389.629456 1178.491943,421.562256 1186.023315,453.921173 
z"/>
</svg>