<svg xmlns="http://www.w3.org/2000/svg" version="1.1" id="Layer_1" x="0" y="0" style="enable-background:new 0 0 432 216" xml:space="preserve" viewBox="26.1 28.4 379.8 159.2"><style>.st0{fill:#fff}</style><path class="st0" d="M199.8 161.8v-12.3h3.8c5.4 0 11.4.2 11.4 5.8 0 5.8-5.8 6.5-12.5 6.5h-2.7m0 6.7h5l15 18h15.6l-18.3-19.6c3.9-1.2 11.9-3.5 11.9-11.8 0-12-16.2-12.2-24.2-12.2h-16.9c-1.7 0-2.2.1-2.2 1.3v42.3H199.8v-18zM308.1 180.9c-7.8 0-11.1-6.3-11.1-16.2 0-10 3.3-16.2 11.1-16.2s11.1 6.2 11.1 16.2-3.3 16.2-11 16.2m25.8-16.2c0-15.4-9.9-23-25.9-23-16 0-25.9 7.5-25.9 23 0 15.4 9.8 22.9 26 22.9 16 0 25.8-7.5 25.8-22.9zM154 167.1h19.7v-6.8h-19.6v-10.6H176l3-6.9h-37c-1.4 0-1.9.2-2 1v42.7h38.5v-6.9H154v-12.5zM386.8 142.8h-9.7l.2 28.4-23.4-27.5c-.6-.7-.8-.9-2.4-.9h-8.8c-1.3 0-1.8.2-1.9 1v42.7h11.9v-30l24.9 29.1c1 1 2.4.9 2.4.9h9v-43.7h-2.2zM40.1 167.1h19.7v-6.8H40v-10.6h22l3-6.9H28c-1.6 0-2 .3-2 1.3v42.4h38.4v-6.9H40.1v-12.5zM101.7 169.7l-16.7-26c-.6-.7-.8-.8-2.4-.8H72v43.6h12v-24.3l-.1-4.9s16.4 26.4 18 28.3h.2c1.6-2 17.2-28.3 17.2-28.3v29.2H131V143h-10.7c-1.6 0-1.8 0-2.4.8l-15.9 26h-.4zM270.6 163c-8.6-4.2-20.4-4.5-20.4-9.4 0-3.8 3.8-5 8.4-5 7 0 13.1 2.8 13.7 2.8.4 0 .8-.2 1.1-.6l.7-.9 3.5-4.4h-.1a28 28 0 0 0-3-1.3c-3.5-1.2-10-2.4-16.3-2.4-11.4 0-21.6 3.8-21.6 13 0 5.2 2.4 8.6 7.6 10.6 10 4 20 3.8 20 9.4 0 4-2.4 5.9-7.9 5.9-8.4 0-15.7-2.8-16.3-2.8-.4 0-.9.3-1 .6l-1.2 2-1.8 3.5 1.5.6a63 63 0 0 0 19.2 3c12.4 0 21.5-4 21.2-13.5a12 12 0 0 0-7.3-11.1z"/><linearGradient id="SVGID_1_" gradientUnits="userSpaceOnUse" x1="713" y1="385.6" x2="713" y2="385.6" gradientTransform="matrix(.438 .2558 -.1751 .2999 -14.7 -201.8)"><stop offset="0" style="stop-color:#fff"/></linearGradient><path d="M230.1 96.2z" style="fill:url(#SVGID_1_)"/><linearGradient id="SVGID_00000103958484436140407040000006317206025462538931_" gradientUnits="userSpaceOnUse" x1="607.7" y1="339.1" x2="713" y2="339.1" gradientTransform="matrix(.438 .2558 -.1751 .2999 -14.7 -201.8)"><stop offset="0" style="stop-color:#fff"/></linearGradient><path style="fill:url(#SVGID_00000103958484436140407040000006317206025462538931_)" d="m234.3 84.3-.3-.3-15.7-19.2v-.1L203 46c-3-3.5-2.7-4.2-2.6-4.5l-5.4 9.2c0 .1-.2.3 0 .6 0 .5.6 1.3 1.2 2.1l.3.4L212.3 73l15.2 18.6c2.8 3.4 2.9 4 2.6 4.5l5.5-9.3c.3-.5-.4-1.4-1.3-2.6z"/><linearGradient id="SVGID_00000013892320708157456630000011705091348161766021_" gradientUnits="userSpaceOnUse" x1="198.4" y1="41.3" x2="247.9" y2="70.2"><stop offset="0" style="stop-color:#fff"/></linearGradient><path style="fill:url(#SVGID_00000013892320708157456630000011705091348161766021_)" d="m242 71.2-.2-.4L226 51.6 210.8 33c-3-3.5-2.7-4.2-2.6-4.6l-5.5 9.3v.6c.2.5.7 1.2 1.3 2l.3.4L220.1 60v.1l15.3 18.6c2.7 3.3 2.8 4 2.5 4.4l5.5-9.3c.3-.4-.4-1.3-1.3-2.5z"/><linearGradient id="SVGID_00000114766039931283180830000011081941719516074637_" gradientUnits="userSpaceOnUse" x1="713" y1="385.6" x2="713" y2="385.6" gradientTransform="matrix(.438 .2558 -.1751 .2999 -6.9 -215)"><stop offset="0" style="stop-color:#fff"/></linearGradient><path style="fill:url(#SVGID_00000114766039931283180830000011081941719516074637_)" d="M238 83h-.1z"/><linearGradient id="SVGID_00000130647545290280234780000014917061654568803760_" gradientUnits="userSpaceOnUse" x1="607.7" y1="339.1" x2="713" y2="339.1" gradientTransform="matrix(.438 .2558 -.1751 .2999 -30.2 -175.5)"><stop offset="0" style="stop-color:#fff"/></linearGradient><path style="fill:url(#SVGID_00000130647545290280234780000014917061654568803760_)" d="M220 113.3v-.7c-.1-.5-.7-1.2-1.3-2l-.3-.3L202.7 91V91l-15.2-18.6c-3-3.5-2.7-4.2-2.5-4.5l-5.6 9.3c-.2.4.4 1.4 1.3 2.6l.4.4 15.6 19.2L212 118c2.8 3.4 2.8 4 2.5 4.5l5.5-9.2z"/><linearGradient id="SVGID_00000090253039316126906270000002191602365333940925_" gradientUnits="userSpaceOnUse" x1="713" y1="385.6" x2="713" y2="385.6" gradientTransform="matrix(.438 .2558 -.1751 .2999 -30.2 -175.5)"><stop offset="0" style="stop-color:#fff"/></linearGradient><path style="fill:url(#SVGID_00000090253039316126906270000002191602365333940925_)" d="M214.6 122.5z"/><linearGradient id="SVGID_00000042736777439344386240000005186751571494581142_" gradientUnits="userSpaceOnUse" x1="713" y1="385.6" x2="713" y2="385.6" gradientTransform="matrix(.438 .2558 -.1751 .2999 -38 -162.4)"><stop offset="0" style="stop-color:#fff"/></linearGradient><path style="fill:url(#SVGID_00000042736777439344386240000005186751571494581142_)" d="M206.8 135.6z"/><linearGradient id="SVGID_00000014617412352459408570000012514610274240505232_" gradientUnits="userSpaceOnUse" x1="607.7" y1="339.1" x2="713" y2="339.1" gradientTransform="matrix(.438 .2558 -.1751 .2999 -38 -162.4)"><stop offset="0" style="stop-color:#fff"/></linearGradient><path style="fill:url(#SVGID_00000014617412352459408570000012514610274240505232_)" d="M212.2 126.5s.2-.3 0-.7a9 9 0 0 0-1.3-2l-.3-.4-15.6-19.2h-.1l-15.2-18.7c-3-3.4-2.7-4.1-2.5-4.5l-5.5 9.3c-.3.5.3 1.5 1.3 2.7l.3.3 15.6 19.2.1.1 15.2 18.6c2.8 3.3 2.8 4 2.6 4.4l5.4-9.1z"/><linearGradient id="SVGID_00000003076826302336023990000000513508934858854825_" gradientUnits="userSpaceOnUse" x1="607.7" y1="339.2" x2="713" y2="339.2" gradientTransform="matrix(.438 .2558 -.1751 .2999 -22.4 -188.7)"><stop offset="0" style="stop-color:#fff"/></linearGradient><path style="fill:url(#SVGID_00000003076826302336023990000000513508934858854825_)" d="m204.6 86.3 15.2 18.6c2.9 3.5 2.8 4 2.5 4.5l5.6-9.4c.2-.4-.4-1.4-1.4-2.5l-.3-.4-15.7-19.2-15.2-18.7c-3-3.5-2.7-4.1-2.5-4.5l-5.6 9.3c-.2.5.4 1.5 1.3 2.7l.3.3 15.7 19.2.1.1z"/><linearGradient id="SVGID_00000019640896360112085080000006943882646186876346_" gradientUnits="userSpaceOnUse" x1="174.9" y1="80.7" x2="224.5" y2="109.7"><stop offset=".2" style="stop-color:#00488e"/></linearGradient><path style="fill:url(#SVGID_00000019640896360112085080000006943882646186876346_)" d="m223 99.2-21-8.7-21.7-9-.3-.2c-.7-.2-2.1-.7-2.8-.3l-.1.2-5.4 9.1c.2-.3.8-.8 4.8 1l21 8.6 21.7 9 .3.2c.6.2 2.1.7 2.7.3l.3-.3 5.3-9c-.2.3-.9.8-4.8-.9z"/><linearGradient id="SVGID_00000016071490741985845040000007710237084903850421_" gradientUnits="userSpaceOnUse" x1="182.7" y1="67.6" x2="232.3" y2="96.6"><stop offset=".2" style="stop-color:#00488e"/></linearGradient><path style="fill:url(#SVGID_00000016071490741985845040000007710237084903850421_)" d="m230.8 86-21-8.6v-.1l-21.7-9-.3-.1c-.7-.3-2.2-.7-2.8-.4l-.1.2-5.5 9.2c.3-.3 1-.8 4.9.9l21 8.7 21.6 9 .4.1c.6.3 2 .7 2.7.4l.3-.3 5.3-9c-.2.2-.9.8-4.8-1z"/><linearGradient id="SVGID_00000067208138440205661830000000760086785034694580_" gradientUnits="userSpaceOnUse" x1="190.5" y1="54.4" x2="240.1" y2="83.4"><stop offset=".2" style="stop-color:#00488e"/></linearGradient><path style="fill:url(#SVGID_00000067208138440205661830000000760086785034694580_)" d="m238.6 73-21-8.8-21.7-9-.3-.2c-.7-.2-2.2-.7-2.8-.3l-.1.1-5.5 9.2c.3-.3 1-.8 4.9 1l21 8.6 21.6 9 .4.2c.6.2 2.1.7 2.7.3l.3-.3 5.3-9c-.2.3-.9.8-4.8-.9z"/><path class="st0" d="M397 181.5v5h-.8v-5h-2v-.5h4.7v.5H397zM405.1 186.6v-5.1l-2 5h-.7l-2-5v5h-.6V181h1.2l2 4.8 1.8-4.8h1.1v5.6h-.8z"/></svg>