<svg xmlns="http://www.w3.org/2000/svg" xmlns:xlink="http://www.w3.org/1999/xlink" version="1.1" id="layer" x="0px" y="0px" style="enable-background:new 0 0 652 652;" xml:space="preserve" viewBox="21.2 207.1 599.97 227.3">
<style type="text/css">
	.st0{fill:#BA122B;}
</style>
<polygon class="st0" points="461,207.1 409.1,207.1 402.4,238.4 454.4,238.4 "/>
<g>
	<path class="st0" d="M536.9,282.5c19.8,0,29.1,6.7,30.3,18.6h53.9c1.8-38.9-29.8-52.9-77.6-52.9c-49.5,0-86.9,17.8-102.6,53.8   l10.3-48.4h-52l-9.6,45c-2.3-31.2-26-48.4-64.3-48.4c-21.1,0-41.1,7.6-55,21.1h-0.5l3.7-17.6h-50.5L203,348.7H87.5l5.5-29.8h103   l7.7-36.3h-103l5.6-29.2h116.9l8-37.7H56L21.2,386.4h173.7l-10.2,48h52l12.8-60h0.5c6.7,9.8,22.8,17.4,45.8,17.4   c39.4,0,69.8-20.3,84.4-48.4l-9.1,43h52l10.1-47.8c0.3,36.2,29.1,53.2,79.9,53.2c57.3,0,87.5-20.8,103.6-57.5h-54.9   c-7.3,15.5-21.7,23.2-40.4,23.2c-25,0-36.3-13.5-31.2-37.5C495.1,296,512.7,282.5,536.9,282.5 M334.7,320.3   c-4.7,22.1-20.2,33.8-43.9,33.8c-24.3,0-34.2-13.2-29.8-33.8c4.4-20.6,19.9-33.8,44.2-33.8C328.9,286.5,339.4,298.2,334.7,320.3"/>
</g>
</svg>