<svg version="1.1" id="Layer_1" xmlns="http://www.w3.org/2000/svg" xmlns:xlink="http://www.w3.org/1999/xlink" x="0px" y="0px"
	 width="100%" viewBox="0 0 2586 2106" enable-background="new 0 0 2586 2106" xml:space="preserve">
<path fill="#FAA819" opacity="1.000000" stroke="none" 
	d="
M767.111694,2.000003 
	C767.591431,2.626574 766.686401,3.606389 766.845032,3.829409 
	C778.859924,20.716951 778.879272,40.301796 778.058350,59.487679 
	C775.568237,117.685417 785.972656,173.264572 809.504150,226.466751 
	C829.706482,272.142151 858.138000,312.075500 894.669067,345.995850 
	C948.985901,396.430908 1012.744385,428.074982 1086.020874,440.379578 
	C1117.006714,445.582733 1148.231201,446.733124 1179.458130,445.491486 
	C1228.731934,443.532166 1277.310425,436.772186 1324.167480,420.395935 
	C1367.177856,405.364014 1405.899170,383.389709 1437.956177,350.559387 
	C1462.982788,324.928955 1481.431030,295.125397 1493.300049,261.384094 
	C1497.590454,249.187225 1500.635498,236.550415 1504.160645,224.089371 
	C1504.498169,222.896179 1504.205566,221.524719 1504.205566,219.579758 
	C1496.438110,220.540482 1489.019653,221.280991 1481.659424,222.404587 
	C1465.439331,224.880798 1449.888062,221.812714 1434.928101,216.087631 
	C1411.921265,207.283127 1392.875854,193.174667 1380.497559,171.374420 
	C1377.590454,166.254349 1375.347046,160.517853 1374.052734,154.781876 
	C1372.401978,147.466812 1375.161377,143.473969 1382.688477,141.778244 
	C1387.787476,140.629486 1393.229248,140.235809 1398.451416,140.562912 
	C1408.692261,141.204346 1418.868408,143.196274 1429.105225,143.504898 
	C1441.963745,143.892593 1454.195190,140.710526 1464.912231,133.226303 
	C1470.084473,129.614166 1475.227051,125.836723 1479.807007,121.522667 
	C1492.940796,109.151550 1507.615234,108.831383 1523.243042,115.382950 
	C1538.860596,121.930191 1554.379517,128.712448 1569.198853,135.072830 
	C1580.402466,129.356583 1590.648804,122.972160 1601.715942,118.728279 
	C1623.304565,110.449661 1646.069092,109.356728 1668.578247,113.291420 
	C1692.092285,117.401718 1715.262695,123.471878 1738.593506,128.639038 
	C1747.669312,130.649094 1756.843384,132.253769 1765.850952,134.525757 
	C1793.751953,141.563248 1816.646973,156.062592 1831.647705,181.114777 
	C1835.653320,187.804535 1837.685547,195.724426 1840.248047,203.208145 
	C1841.418579,206.626984 1841.666260,210.360107 1842.352295,213.946945 
	C1848.117676,244.093246 1865.754150,262.256958 1896.219971,267.829071 
	C1927.885498,273.620544 1959.500610,279.688629 1991.128662,285.682861 
	C1994.055908,286.237671 1997.000366,286.906006 1999.795166,287.914520 
	C2006.789673,290.438446 2010.016113,295.296936 2010.445801,303.007812 
	C2014.039795,367.508545 1973.639282,411.804657 1919.530151,428.031311 
	C1892.355591,436.180664 1864.542236,437.324005 1836.540405,436.060547 
	C1818.646118,435.253082 1800.803833,433.341858 1782.915894,432.316833 
	C1774.636719,431.842468 1766.303833,432.302429 1756.477051,431.846619 
	C1750.133423,430.229218 1745.356323,428.793457 1740.474243,428.034637 
	C1722.969849,425.314056 1705.788940,421.404999 1689.723999,413.759094 
	C1679.974121,409.118774 1671.886353,402.567078 1666.125977,392.953918 
	C1663.559448,388.670746 1659.064575,384.887054 1654.575928,382.534882 
	C1641.189819,375.520020 1626.785400,377.048462 1612.622559,379.658051 
	C1608.164307,380.479492 1603.754028,382.621704 1599.813232,384.980499 
	C1590.239136,390.710846 1589.270630,402.499268 1597.453857,410.070862 
	C1598.665527,411.192017 1600.218750,411.936829 1601.479248,413.013580 
	C1612.088257,422.075104 1623.235962,430.602905 1633.076660,440.436981 
	C1641.289062,448.643738 1648.645264,458.286346 1649.642090,470.480804 
	C1650.312378,478.677979 1649.998779,487.204407 1648.502075,495.282776 
	C1644.210205,518.447388 1644.673096,541.008240 1654.692017,562.707031 
	C1657.978760,569.825378 1660.588867,577.580261 1667.911621,582.009216 
	C1681.279297,616.225525 1709.846558,626.847168 1742.983765,630.315857 
	C1784.305298,634.641174 1824.394409,627.261414 1863.968628,616.660767 
	C1890.311401,609.604431 1916.691162,602.623291 1943.890991,600.657043 
	C1967.133179,598.976868 1990.402466,599.870728 2012.358765,609.868225 
	C2034.770508,620.072937 2048.509033,637.615173 2055.896240,660.465820 
	C2061.363281,677.377075 2063.715332,694.922058 2062.172607,712.630127 
	C2060.164551,735.682434 2049.219238,754.146484 2031.122925,768.503296 
	C2014.169189,781.953552 1995.130005,789.624756 1973.323608,789.640198 
	C1959.242920,789.650208 1948.528564,784.655945 1942.330200,770.776306 
	C1937.746216,760.511292 1931.754272,750.781860 1925.584351,741.339966 
	C1916.246216,727.049438 1902.836182,720.971130 1886.035278,725.585632 
	C1869.724731,730.065369 1853.371216,734.706665 1837.583862,740.715149 
	C1780.745361,762.346985 1724.052246,784.369629 1667.493774,806.724365 
	C1649.892944,813.681152 1632.957153,822.305420 1615.583252,829.859314 
	C1609.530518,832.490967 1603.106445,834.294556 1596.797363,836.304626 
	C1587.376221,839.306335 1578.995483,836.459412 1571.599121,830.776611 
	C1557.761597,820.144958 1546.576538,806.998108 1536.547119,792.777893 
	C1527.161255,779.470337 1517.520996,766.341736 1507.937256,753.174866 
	C1506.977661,751.856384 1505.632568,750.818542 1504.049316,748.354797 
	C1502.364990,744.001160 1501.454346,740.730164 1499.775391,737.917969 
	C1482.212769,708.502136 1464.549194,679.146484 1446.828491,649.825562 
	C1445.554565,647.717712 1443.613770,646.012756 1441.868286,643.987244 
	C1434.926025,648.176147 1434.037842,654.718506 1432.389526,660.604187 
	C1425.659668,684.635254 1419.194336,708.739014 1408.543091,731.448242 
	C1402.564697,744.194336 1395.515625,756.458435 1384.877197,765.683533 
	C1361.863525,785.639832 1334.237305,794.403503 1304.209595,795.940979 
	C1275.408203,797.415710 1247.074707,793.916382 1219.429565,785.801636 
	C1199.647461,779.994995 1179.931152,773.958984 1162.627197,761.935425 
	C1155.254028,756.812073 1152.842529,750.783691 1154.858643,742.307983 
	C1156.550903,735.194397 1158.065918,728.019165 1159.191284,720.798340 
	C1159.759399,717.153442 1159.290649,713.346924 1159.290649,707.325806 
	C1155.395386,710.592041 1153.215088,711.968262 1151.608887,713.837646 
	C1136.678101,731.213684 1121.569458,748.450562 1107.151733,766.245789 
	C1102.759155,771.667480 1095.728149,775.994751 1096.227417,784.517944 
	C1084.595093,793.476807 1075.113037,804.461670 1065.252441,815.303589 
	C1028.260010,855.977173 986.704102,890.209717 931.188782,902.711853 
	C910.982910,907.262329 890.562012,908.650940 869.846558,907.883240 
	C836.591125,906.650696 803.903992,900.876221 771.005371,896.702942 
	C753.241272,894.449524 735.357544,892.987366 717.486084,891.789734 
	C707.304871,891.107483 697.015381,891.228943 686.817871,891.783508 
	C670.171936,892.688782 656.834045,899.901123 647.917786,914.359314 
	C639.013062,928.798767 630.822998,943.725159 621.202209,957.666931 
	C602.587646,984.641602 581.404297,1009.760010 553.560303,1027.429810 
	C511.211121,1054.304443 465.885864,1058.152222 419.067474,1039.523926 
	C409.035248,1035.532227 400.408661,1029.099365 393.485321,1020.813416 
	C382.121216,1007.212769 379.643036,991.988220 385.480347,975.099854 
	C390.529022,960.492981 399.816315,950.698730 414.696228,946.215149 
	C423.609985,943.529114 432.440125,940.566650 441.319122,937.764160 
	C479.092773,925.841431 503.369995,900.372620 515.737610,863.187134 
	C521.084167,847.111755 525.184265,830.591919 531.146606,814.762146 
	C534.969849,804.611633 540.357239,794.804932 546.484985,785.828186 
	C554.657654,773.855774 566.791748,767.768005 581.532654,768.402161 
	C596.444153,769.043579 611.324951,770.830139 626.231689,770.996826 
	C635.732544,771.103088 645.422058,769.968506 654.740601,768.020447 
	C694.143799,759.783264 731.450378,745.993652 765.005371,723.361938 
	C779.161255,713.814392 791.794922,702.494019 799.493713,686.663940 
	C804.663208,676.034607 805.108582,665.262817 802.951355,653.651550 
	C799.991272,637.717957 796.435303,621.481018 796.710754,605.435486 
	C797.657104,550.300598 813.378357,500.051453 850.610168,457.934204 
	C855.010132,452.956909 859.522522,448.078979 864.396606,442.698151 
	C857.034302,436.069916 849.517944,429.252197 841.946777,422.495880 
	C815.159973,398.592102 792.996826,370.825317 774.430298,340.247375 
	C745.043701,291.849426 727.053284,239.422668 719.523804,183.254257 
	C716.371033,159.735306 715.441284,136.161926 716.543701,112.610313 
	C717.950928,82.547066 724.624451,53.450497 736.822937,25.759785 
	C740.649658,17.072981 746.315308,9.783282 752.499146,2.591634 
	C756.741150,2.000000 761.482239,2.000000 767.111694,2.000003 
z"/>
<path fill="#300C39" opacity="1.000000" stroke="none" 
	d="
M604.937256,2108.000000 
	C601.963013,2106.680176 600.058777,2104.505127 597.869690,2104.165283 
	C541.762756,2095.458008 491.137329,2073.850342 445.769653,2039.833618 
	C419.771484,2020.340332 399.891388,1995.554688 383.708527,1967.588745 
	C364.220367,1933.910645 354.342987,1897.135742 348.045044,1859.097290 
	C343.447174,1831.327148 342.352936,1803.330322 344.487976,1775.461182 
	C347.168152,1740.476562 355.149780,1706.485596 368.828949,1673.917847 
	C384.646362,1636.259644 406.220428,1602.629395 436.190552,1574.663330 
	C462.605835,1550.014282 493.060059,1531.963013 526.848145,1519.321289 
	C555.395752,1508.640381 584.877991,1501.348267 615.101990,1498.668823 
	C666.815308,1494.084106 717.395752,1499.360962 765.534302,1520.677490 
	C790.027893,1531.523804 813.184570,1544.463135 833.699341,1561.810547 
	C857.807678,1582.196289 878.238464,1605.628174 893.798340,1633.289673 
	C913.662292,1668.602905 925.579834,1706.552490 931.392761,1746.396362 
	C935.441040,1774.145386 935.649902,1802.118652 932.086609,1830.018677 
	C931.153381,1837.325439 930.812378,1837.536133 923.315674,1837.837891 
	C920.321106,1837.958374 917.318054,1837.872437 914.318909,1837.872437 
	C775.356689,1837.873291 636.394531,1837.871826 497.432312,1837.874512 
	C482.158173,1837.874756 482.248810,1837.875488 483.778107,1852.917603 
	C489.323669,1907.463501 527.246765,1960.731934 590.189392,1978.507690 
	C609.782043,1984.041016 629.649475,1987.278076 650.098328,1988.420044 
	C685.542175,1990.399292 718.810181,1983.671631 750.403931,1967.754517 
	C768.101807,1958.838257 783.413879,1946.531250 798.777161,1934.270142 
	C801.638855,1931.986328 804.479736,1929.667114 807.449463,1927.529785 
	C813.371887,1923.267090 813.754211,1923.222168 819.195007,1928.464722 
	C828.072205,1937.018555 836.737000,1945.792480 845.593201,1954.368286 
	C859.224243,1967.568115 873.018372,1980.600098 886.595276,1993.854858 
	C895.833740,2002.874023 895.632080,2002.904175 886.944763,2011.879272 
	C841.210083,2059.129395 785.876160,2088.280029 721.232300,2099.897461 
	C712.719971,2101.427246 704.152588,2102.653076 695.647400,2104.218750 
	C693.831238,2104.553223 692.174683,2105.754639 690.222290,2107.278320 
	C661.958191,2108.000000 633.916443,2108.000000 604.937256,2108.000000 
M647.035034,1615.872437 
	C638.096558,1616.536743 629.076416,1616.650024 620.233398,1617.959106 
	C577.611572,1624.267944 540.635864,1641.326538 513.217529,1675.784302 
	C501.314362,1690.743530 491.137024,1706.701660 488.007019,1726.079956 
	C485.744324,1740.088867 485.849304,1740.123535 500.421204,1740.124512 
	C592.658936,1740.130249 684.896606,1740.128052 777.134338,1740.124634 
	C779.797913,1740.124512 782.463257,1740.010742 785.124695,1740.075806 
	C790.306152,1740.202393 792.290344,1737.450928 792.057251,1732.599487 
	C791.961365,1730.604492 792.042603,1728.583618 791.750916,1726.617920 
	C788.600220,1705.388306 780.875366,1685.911133 766.661316,1669.822266 
	C735.524414,1634.578247 696.634155,1615.499268 647.035034,1615.872437 
z"/>
<path fill="#300C39" opacity="1.000000" stroke="none" 
	d="
M1582.937256,2108.000000 
	C1579.969971,2106.668945 1578.092651,2104.554688 1575.886841,2104.124268 
	C1543.955933,2097.892090 1513.350098,2087.914795 1484.741577,2072.258057 
	C1448.746826,2052.558594 1417.043213,2027.637085 1390.492798,1996.103271 
	C1353.034302,1951.614258 1332.667236,1900.076416 1325.880859,1842.800171 
	C1324.161865,1828.292114 1321.988525,1813.628418 1322.444702,1799.112305 
	C1323.694824,1759.331421 1329.077637,1720.129639 1345.460205,1683.294556 
	C1384.368408,1595.812256 1448.564209,1536.577271 1541.003296,1509.294922 
	C1568.876587,1501.068237 1597.370605,1496.991821 1626.528442,1495.561523 
	C1669.101196,1493.473511 1710.030884,1499.909912 1749.900635,1514.258911 
	C1782.505127,1525.993164 1812.129150,1543.014160 1838.487671,1565.552002 
	C1846.579224,1572.470337 1854.466431,1579.650391 1862.130127,1587.039551 
	C1869.653076,1594.292725 1869.585327,1596.676880 1862.304199,1604.401978 
	C1856.590942,1610.463623 1850.566284,1616.230591 1844.769775,1622.215454 
	C1827.160767,1640.396606 1809.625732,1658.649536 1791.997437,1676.811890 
	C1785.430054,1683.578125 1784.590210,1683.513306 1777.572998,1676.762817 
	C1745.223022,1645.642456 1706.629517,1626.915161 1662.143433,1622.594482 
	C1612.703369,1617.792603 1566.566895,1628.674805 1526.453125,1659.252197 
	C1496.245361,1682.278687 1476.712280,1712.876587 1467.793701,1749.683228 
	C1456.204712,1797.509521 1459.219482,1844.333008 1481.463013,1888.868652 
	C1501.745972,1929.478638 1533.389526,1957.653198 1576.692261,1971.909668 
	C1636.311523,1991.538330 1693.076172,1984.625244 1746.237305,1951.437134 
	C1758.286865,1943.914551 1768.729736,1933.816772 1779.901367,1924.890869 
	C1781.434570,1923.665771 1782.904541,1922.361450 1785.229492,1920.395630 
	C1794.544189,1929.741821 1803.747192,1938.766113 1812.713501,1948.019775 
	C1827.543091,1963.324829 1842.100586,1978.894409 1856.996338,1994.134033 
	C1871.231445,2008.697754 1871.246948,2008.494507 1856.249756,2022.864136 
	C1823.294434,2054.440918 1785.851074,2078.831787 1742.227905,2092.759033 
	C1726.746704,2097.701416 1710.529419,2100.328857 1694.672485,2104.115234 
	C1692.530640,2104.626465 1690.531982,2105.738037 1688.233643,2107.285889 
	C1653.291504,2108.000000 1618.583130,2108.000000 1582.937256,2108.000000 
z"/>
<path fill="#300C39" opacity="1.000000" stroke="none" 
	d="
M2.000000,1514.937256 
	C28.663454,1513.958374 55.326912,1513.919312 81.990356,1513.870972 
	C84.656189,1513.866089 87.322136,1513.816162 89.987648,1513.766602 
	C94.103180,1513.689941 96.000145,1511.474731 96.031380,1507.465942 
	C96.041763,1506.133179 96.076859,1504.800293 96.117699,1503.468018 
	C96.749695,1482.851196 96.764214,1462.192505 98.148247,1441.626099 
	C100.997986,1399.279419 113.968498,1360.446289 142.944000,1328.627808 
	C166.375580,1302.897217 196.571091,1288.757324 230.514572,1281.930664 
	C261.454590,1275.708252 292.680847,1275.052612 324.000793,1276.319458 
	C334.930481,1276.761719 345.791565,1278.792236 356.697998,1279.967163 
	C361.535400,1280.488525 363.829590,1283.008545 363.820068,1287.815552 
	C363.809509,1293.148071 363.874573,1298.480713 363.875824,1303.813232 
	C363.882202,1330.810669 363.878601,1357.808105 363.878540,1384.805542 
	C363.878510,1388.391479 363.878510,1391.977417 363.878510,1395.284668 
	C350.862305,1395.284668 338.890045,1396.342285 327.181335,1395.036743 
	C309.643066,1393.080933 292.600555,1394.529175 275.795532,1399.130371 
	C259.218048,1403.669189 247.599274,1414.473389 242.341812,1430.694580 
	C238.996201,1441.017090 237.837555,1452.065186 235.929230,1462.828979 
	C235.060822,1467.727295 234.193054,1472.737305 234.304886,1477.674316 
	C234.538040,1487.966187 235.401443,1498.244507 236.053757,1508.525391 
	C236.249298,1511.607300 237.896286,1513.466064 241.067902,1513.647827 
	C243.726776,1513.800049 246.394058,1513.863892 249.057663,1513.865479 
	C277.054962,1513.881714 305.052368,1513.833618 333.049500,1513.901733 
	C343.337006,1513.926758 343.830353,1514.396362 343.849426,1524.586304 
	C343.914917,1559.582764 343.917694,1594.579712 343.845673,1629.576172 
	C343.825745,1639.264648 343.279968,1639.810547 333.667206,1639.839355 
	C305.670166,1639.923218 277.672699,1639.868652 249.675400,1639.879395 
	C247.009857,1639.880493 244.342285,1639.908691 241.679306,1640.015259 
	C238.113846,1640.157959 236.156067,1642.055054 236.028793,1645.636963 
	C235.910461,1648.966309 235.884720,1652.300293 235.884460,1655.632324 
	C235.877319,1748.623413 236.364380,1841.618530 235.579269,1934.602905 
	C235.347092,1962.101196 233.240112,1989.729980 224.992554,2016.481323 
	C211.554108,2060.069092 181.349182,2084.273926 137.872162,2093.931152 
	C107.639099,2100.646729 77.686081,2097.802979 47.705200,2092.220947 
	C42.630634,2091.276611 39.998150,2088.660889 39.143997,2083.929932 
	C38.614826,2080.999023 38.178772,2078.002441 38.171371,2075.034180 
	C38.099041,2046.037109 38.080433,2017.039551 38.147285,1988.042480 
	C38.173405,1976.711792 38.937500,1976.222534 49.971767,1975.818848 
	C57.257591,1975.552490 64.610840,1975.232910 71.776459,1974.012573 
	C83.117462,1972.081299 90.122528,1964.706909 92.822060,1953.795776 
	C94.567871,1946.739258 95.963905,1939.375122 95.979904,1932.145508 
	C96.187035,1838.488281 96.118698,1744.830444 96.114815,1651.172852 
	C96.114746,1649.506958 96.044075,1647.841187 96.020317,1646.175171 
	C95.962532,1642.123047 93.934822,1640.038452 89.861832,1639.977905 
	C87.862602,1639.948120 85.863495,1639.878662 83.864349,1639.879272 
	C57.200680,1639.887817 30.537010,1639.905640 2.936670,1639.960571 
	C2.000000,1598.624878 2.000000,1557.249756 2.000000,1514.937256 
z"/>
<path fill="#300C39" opacity="1.000000" stroke="none" 
	d="
M1156.937256,2108.000000 
	C1155.170898,2104.057129 1151.706299,2104.564209 1148.949463,2103.684082 
	C1135.333862,2099.337891 1121.370483,2095.785889 1108.249023,2090.249023 
	C1082.349243,2079.320557 1062.150391,2061.249756 1047.722412,2037.081543 
	C1034.369629,2014.714355 1027.754272,1990.136963 1023.764038,1964.514282 
	C1018.446899,1930.371094 1020.336060,1896.069458 1019.870178,1861.805664 
	C1019.308716,1820.520874 1018.358032,1779.237793 1018.245911,1737.952026 
	C1018.172668,1711.002075 1019.293945,1684.048828 1019.870056,1657.096802 
	C1019.912781,1655.097900 1019.895264,1653.096924 1019.869690,1651.097290 
	C1019.731079,1640.255371 1019.481018,1639.936768 1008.557922,1639.892090 
	C991.892334,1639.823975 975.225891,1639.935425 958.560547,1639.844360 
	C948.388855,1639.788818 947.919739,1639.332031 947.901794,1629.015381 
	C947.841675,1594.350464 947.842834,1559.685425 947.899841,1525.020386 
	C947.917542,1514.258179 948.282715,1513.942627 959.286743,1513.894531 
	C974.952332,1513.826050 990.618652,1513.915283 1006.284363,1513.861084 
	C1017.913452,1513.820923 1018.099670,1513.672852 1018.105286,1502.174072 
	C1018.137085,1437.510498 1018.121094,1372.847046 1018.123047,1308.183472 
	C1018.123108,1305.516968 1018.027344,1302.844482 1018.168823,1300.185059 
	C1018.543884,1293.132812 1019.214966,1292.218750 1026.574951,1292.199341 
	C1067.572632,1292.090942 1108.570801,1292.089233 1149.568481,1292.203857 
	C1156.844727,1292.224243 1157.471436,1293.135498 1157.834351,1300.328491 
	C1157.968628,1302.988647 1157.877075,1305.660522 1157.877197,1308.327026 
	C1157.878540,1371.990601 1157.874512,1435.654175 1157.881226,1499.317749 
	C1157.882690,1513.859131 1157.899292,1513.869995 1172.859131,1513.873291 
	C1205.190918,1513.880615 1237.522583,1513.873169 1269.854370,1513.880127 
	C1272.520264,1513.880737 1275.186157,1513.944214 1277.852051,1513.979858 
	C1281.919556,1514.034058 1283.964600,1516.104736 1284.022095,1520.163574 
	C1284.050415,1522.162964 1284.118652,1524.162109 1284.119019,1526.161377 
	C1284.125000,1560.159790 1284.125244,1594.158081 1284.117432,1628.156494 
	C1284.116943,1630.155518 1284.071533,1632.156006 1283.987305,1634.153198 
	C1283.834717,1637.772217 1281.833130,1639.589966 1278.295044,1639.733887 
	C1275.632080,1639.842163 1272.964355,1639.866211 1270.298706,1639.866943 
	C1237.633667,1639.875366 1204.968506,1639.867310 1172.303467,1639.881592 
	C1169.306274,1639.882935 1166.101196,1639.381348 1163.380737,1640.283691 
	C1161.365234,1640.952148 1159.263794,1643.255737 1158.502563,1645.312866 
	C1157.627686,1647.676636 1158.133057,1650.571411 1158.132690,1653.235596 
	C1158.123169,1736.898193 1157.836792,1820.562744 1158.417603,1904.221313 
	C1158.510986,1917.666382 1160.791138,1931.647095 1165.030151,1944.392334 
	C1172.693970,1967.434937 1190.229980,1980.323242 1214.440674,1981.693970 
	C1230.642212,1982.611328 1246.992310,1980.860474 1263.277954,1980.366943 
	C1267.512939,1980.238525 1271.755249,1980.347534 1276.942261,1980.347534 
	C1277.294067,1985.014038 1277.830933,1988.883423 1277.839111,1992.753906 
	C1277.906982,2025.085449 1277.894409,2057.417236 1277.869141,2089.749023 
	C1277.859375,2102.256592 1277.805176,2102.191895 1265.661133,2104.221924 
	C1263.845825,2104.525635 1262.187988,2105.771240 1260.228760,2107.290527 
	C1225.958252,2108.000000 1191.916382,2108.000000 1156.937256,2108.000000 
z"/>
<path fill="#2E0B36" opacity="1.000000" stroke="none" 
	d="
M2588.000000,1577.062744 
	C2578.582275,1576.692383 2578.356689,1576.578247 2578.140625,1567.940552 
	C2577.967773,1561.024658 2578.105957,1554.101074 2577.152100,1546.983887 
	C2573.016846,1551.272705 2572.286133,1556.879639 2570.339111,1561.911499 
	C2569.139404,1565.010864 2568.278320,1568.239502 2567.153320,1571.369873 
	C2566.008545,1574.555298 2563.685547,1575.992432 2560.260498,1576.024780 
	C2556.761230,1576.057861 2554.584961,1574.516968 2553.563965,1571.248657 
	C2551.679199,1565.215820 2549.860107,1559.161743 2547.919189,1553.147095 
	C2547.446045,1551.680664 2546.605713,1550.332764 2544.258057,1549.118408 
	C2544.139404,1552.900269 2544.194580,1556.697632 2543.855469,1560.459717 
	C2543.469238,1564.744507 2542.947754,1569.041626 2542.090576,1573.253052 
	C2541.065186,1578.293335 2537.715820,1578.159668 2532.985596,1576.529297 
	C2533.996826,1563.440552 2535.009521,1550.593018 2535.968750,1537.741577 
	C2536.232422,1534.211426 2537.928955,1532.101929 2541.541504,1532.035400 
	C2545.423340,1531.963745 2549.895996,1530.801514 2551.990479,1535.603760 
	C2553.582764,1539.254883 2554.713623,1543.107300 2556.051025,1546.869751 
	C2557.357422,1550.545044 2558.665527,1554.219727 2561.903809,1557.955566 
	C2563.796143,1552.787231 2565.738037,1547.636475 2567.571045,1542.447021 
	C2571.330811,1531.804077 2571.306641,1531.790771 2582.229980,1531.912109 
	C2583.561035,1531.926880 2584.890869,1532.025635 2587.110840,1532.042725 
	C2588.000000,1546.708496 2588.000000,1561.416992 2588.000000,1577.062744 
z"/>
<path fill="#300C39" opacity="1.000000" stroke="none" 
	d="
M2072.450195,1744.887573 
	C2072.172852,1784.796875 2071.935547,1823.789917 2071.897705,1862.783325 
	C2071.828613,1933.776245 2071.878174,2004.769287 2071.877441,2075.762207 
	C2071.877441,2078.095215 2071.935547,2080.430420 2071.854492,2082.760742 
	C2071.564453,2091.085938 2071.040771,2091.806885 2062.480713,2091.825684 
	C2023.151489,2091.911377 1983.821899,2091.872559 1944.492676,2091.810791 
	C1942.239624,2091.807129 1939.987671,2091.201660 1938.394775,2090.971680 
	C1937.556152,2090.200195 1937.270752,2090.003906 1937.076904,2089.740479 
	C1936.884644,2089.479004 1936.719116,2089.162842 1936.655518,2088.847900 
	C1936.394165,2087.552002 1935.971069,2086.247803 1935.970825,2084.946533 
	C1935.920898,1823.972900 1935.901733,1562.999268 1935.892456,1302.025635 
	C1935.892334,1300.363037 1935.958618,1298.690308 1936.154663,1297.041504 
	C1936.269409,1296.076538 1936.703491,1295.149414 1937.335571,1293.095215 
	C1940.489990,1292.795898 1944.003906,1292.178955 1947.518799,1292.172485 
	C1985.181519,1292.102417 2022.844482,1292.127808 2060.507324,1292.132446 
	C2062.173340,1292.132690 2063.839355,1292.198242 2065.505371,1292.212158 
	C2069.517578,1292.245850 2071.731689,1294.131226 2071.778564,1298.266968 
	C2071.812500,1301.266113 2071.873779,1304.265137 2071.874023,1307.264282 
	C2071.879395,1396.255371 2071.878418,1485.246582 2071.878662,1574.237671 
	C2071.878662,1577.815918 2071.878662,1581.394043 2071.878662,1584.972290 
	C2072.439453,1585.224121 2073.000244,1585.475952 2073.561035,1585.727783 
	C2075.765869,1583.039429 2078.203125,1580.508301 2080.139893,1577.639282 
	C2108.179199,1536.107056 2148.403320,1514.534180 2196.756348,1506.106201 
	C2215.852783,1502.777466 2235.076416,1501.101807 2254.415039,1502.189819 
	C2301.524170,1504.840454 2344.520752,1518.495361 2381.079102,1549.666016 
	C2409.429688,1573.838135 2426.549072,1604.952393 2437.864990,1639.688843 
	C2445.217041,1662.257446 2449.474854,1685.470947 2450.267090,1709.270142 
	C2450.665039,1721.227539 2451.759277,1733.174194 2451.805908,1745.128662 
	C2452.043701,1806.120728 2451.848877,1867.115234 2452.326660,1928.104858 
	C2452.401367,1937.617554 2454.393799,1947.313965 2456.864502,1956.560669 
	C2460.225586,1969.139038 2469.570557,1975.633057 2482.736084,1976.057495 
	C2489.395996,1976.272339 2496.067383,1976.230347 2502.731934,1976.148926 
	C2507.745605,1976.087769 2510.101562,1978.450928 2510.068115,1983.399780 
	C2510.047607,1986.398926 2510.121094,1989.398560 2510.121582,1992.397949 
	C2510.126221,2019.728638 2510.137451,2047.059204 2510.118652,2074.389893 
	C2510.107178,2091.081787 2509.775635,2091.553223 2493.653564,2094.534180 
	C2468.242188,2099.232666 2442.576904,2100.488525 2417.161133,2095.974365 
	C2361.842773,2086.149902 2331.159180,2055.120117 2320.071533,2003.266479 
	C2315.889404,1983.706909 2314.077881,1963.843506 2314.083740,1943.796387 
	C2314.102783,1877.137573 2314.715332,1810.465698 2313.555908,1743.825562 
	C2312.973877,1710.376953 2302.904297,1679.347778 2277.907227,1655.249146 
	C2258.387939,1636.431519 2234.537109,1627.031860 2207.557129,1625.947510 
	C2177.028564,1624.720337 2148.617432,1631.887207 2123.519531,1649.686401 
	C2094.116211,1670.538940 2078.148438,1699.485962 2073.873535,1735.095093 
	C2073.517578,1738.062866 2073.014404,1741.013184 2072.450195,1744.887573 
z"/>
<path fill="#2D0B35" opacity="1.000000" stroke="none" 
	d="
M2506.020508,1546.770996 
	C2504.504639,1543.978271 2503.339844,1541.622559 2501.447510,1540.344116 
	C2499.976074,1539.350098 2497.438232,1540.073242 2495.676758,1539.323120 
	C2494.445801,1538.798950 2492.976562,1537.068359 2492.987305,1535.889282 
	C2492.998047,1534.700439 2494.552246,1532.716431 2495.697510,1532.501465 
	C2498.926758,1531.895142 2502.291992,1531.904297 2505.605469,1531.877197 
	C2512.258301,1531.822754 2518.913818,1531.836670 2525.565430,1531.964722 
	C2528.281738,1532.016968 2531.537109,1532.440674 2530.979736,1536.042847 
	C2530.752686,1537.510376 2528.030029,1539.305542 2526.180908,1539.689087 
	C2516.289551,1541.740234 2516.238525,1541.602173 2516.156982,1551.312866 
	C2516.104004,1557.633789 2516.182373,1563.956055 2516.096191,1570.276367 
	C2516.049805,1573.663330 2515.995850,1577.356934 2511.275879,1577.500610 
	C2506.564941,1577.643921 2506.175049,1574.124756 2506.142822,1570.627686 
	C2506.072266,1562.976074 2506.081299,1555.323975 2506.020508,1546.770996 
z"/>
</svg>