<svg xmlns="http://www.w3.org/2000/svg" version="1.0" viewBox="200.5 590.5 1599.54 319.21"><path fill="red" d="M251.7 592.6c-4.2 8.3-51.7 118.7-51.2 119.3.2.4 7.3-.5 15.7-2 8.3-1.6 15.4-2.6 15.6-2.4.3.2-2.3 17.8-5.8 39-3.4 21.3-5.9 38.9-5.6 39.3.4.3 1 .1 1.6-.4 1.1-1.1 59-120.4 59-121.6 0-1.3-1.7-1-15.7 2.4-7.3 1.8-13.4 3-13.7 2.7-.3-.3.3-17.8 1.4-38.9 1-21.2 1.5-38.9 1-39.4-.5-.4-1.5.4-2.3 2z"></path><path fill="#FFF" d="M1217.8 598c-28.1 4.8-48.6 22.7-54.9 48-3.4 13.8-.8 34.5 5.9 46 3.3 5.7 12.2 15.2 17.9 18.9l4.4 2.9-6.3 3.4c-18.7 9.9-29.2 28.9-29 52.8.2 29.6 14.9 51.5 41.6 61.5 19.6 7.4 55.4 7.6 76 .5 26-8.9 41.7-29.9 43.3-58 1.5-25.3-9.3-46.1-29.5-56.8l-6.3-3.4 4.3-2.8c17.8-12 26.7-30.5 25.6-53.4-1.6-31-22.9-53.6-56.2-59.5-6.8-1.2-29.8-1.3-36.8-.1zm31.8 32.8c11.7 6 17.1 18 16.2 36.1-1.1 21.5-13.5 33.5-32.6 31.8-18.1-1.7-26.8-14.3-26.1-37.5.8-22.4 11.2-33.6 30.4-32.9 5.7.3 9.2 1 12.1 2.5zm3 102.7c13.5 6.6 20.4 23.4 17.6 42.6-3.1 20.9-15.4 30.8-36.6 29.7-14.8-.8-24.1-6.8-28.8-18.6-3.3-8.5-3.4-30.4 0-37.6 6.6-14.4 16.8-20.1 34.1-19.1 6.3.3 9.7 1.1 13.7 3zm116.9-126c-2.5 2.4-2.5 2.4-2.5 31V667h-14.1c-7.7 0-14.9.4-15.9 1-2.9 1.5-4 6.5-4 18.2 0 18.5 1.4 19.8 21.6 19.8h12.3l.3 41.7c.4 35.6.7 42.7 2.1 47.8 5.8 20.2 17.8 32.2 38.2 38.1 4.7 1.3 11.3 1.8 30.2 2.1 31.2.6 29.3 1.9 29.3-19.5 0-20.7 1.2-19.6-21.2-20.2-20-.6-22.5-1.4-26.8-9.1-2.5-4.4-2.5-4.4-2.8-42.7l-.3-38.2h19.9c20.6 0 25.4-.7 27.2-4 .6-1 1-8.3 1-16.3 0-20 1.8-18.7-26.3-18.7h-21.6l-.3-28.6c-.4-36.4 1.8-33.4-24.9-33.4-18.8 0-19 0-21.4 2.5zM298.4 660.7c-2.3.2-4.8 1.2-5.6 2.1-.8.9-13.1 25.5-27.3 54.6-28.7 58.6-27.1 53.8-22.9 68.3 9.4 32.6 31.5 48.7 66.4 48.7 19.5 0 31.9-4.1 44.5-14.5l5-4.1.3 13.5c.7 33.3-7.2 43.2-34.3 43.2-16.3 0-22.5-3.7-29.5-17.5-1.6-3.3-3.9-6.4-4.9-7-1.2-.6-10.3-1-22.6-1-20.7 0-20.7 0-23.6 2.9-3.5 3.6-3.6 4.3-.4 13.8 6.8 20.2 26.3 36.5 52 43.5 12.9 3.5 48.1 3.3 61.7-.4 30.3-8.2 48.5-28.4 52.8-58.6.7-5.2 1-35.1.8-94-.3-86.4-.3-86.4-2.7-88.3-2.1-1.7-4.1-1.9-22-1.9-24.3 0-24.1-.1-24.1 12.5v7.9l-5.2-5.1c-15.4-14.9-33.9-20.8-58.4-18.6zm42.4 43.8c13.3 7.3 18.2 19 18.2 43.7 0 26.4-7.3 40.5-23.2 45.3-14.4 4.2-29.6.2-37.2-9.8-12-15.7-11-58.9 1.6-73.2 6.9-7.8 11.6-9.5 25.3-9.2 8.9.2 10.6.6 15.3 3.2zM510 664c-45.5 4.6-72 37.1-72 88 0 28.4 7.5 49.6 23 65 11.8 11.9 24.5 18.2 42.3 21 9.9 1.6 36.2.8 43.9-1.4 23.5-6.5 41.2-18.8 48.6-33.6 3.7-7.3 4-11.2 1.2-14-1.9-1.9-3.3-2-23.1-2h-21l-7.5 7c-9.7 9.2-13.5 11-24.4 11-18.7 0-28.1-10.4-31.4-34.8l-.6-4.2h53.4c33 0 54.5-.4 56.1-1 4.9-1.9 5.9-6.6 4.7-22-2.6-31.8-13.8-53.3-35-67.1-14.4-9.5-37-14.1-58.2-11.9zm24.7 35.6c9.8 4.7 16 15.2 17.1 28.6l.5 6.8H489l.6-4.8c1.3-11.5 3.9-18.3 9.6-24.7 8-9.2 23.2-11.7 35.5-5.9zm189-35.6c-14.7 1.8-27.8 7.7-38.4 17.4l-5.3 4.8v-6.1c0-6.5-1.8-11.4-4.5-12.5-.9-.3-10.1-.6-20.5-.6-17 0-19 .2-21.1 1.9-2.4 1.9-2.4 1.9-2.4 82.6 0 80.7 0 80.7 2.4 82.6 3.6 2.9 41.6 2.9 45.2 0 2.4-1.9 2.4-1.9 2.9-53.8.6-58.2.5-57.7 8.5-67.1 10.8-12.5 34.5-13.8 46.5-2.6 9.7 9.1 9.4 7.3 10 67.6.5 52.6.5 52.6 2.9 55.2 2.4 2.6 2.4 2.6 23 2.6 22.2-.1 23.1-.3 25.1-5.4 1.4-3.7 1.3-92.6-.1-105.3-4.7-42.2-33.8-66.2-74.2-61.3zm174.3 0c-43.9 4.4-69.5 33.6-71.7 81.5-1.8 42 12.2 71 41.2 85 14.6 7 19.9 8 42.5 8 18.4-.1 20-.3 28.5-2.9 22.7-6.9 39.6-19.5 46.4-34.7 2.7-5.8 2.6-9.1-.2-11.7-2.2-2.1-3.2-2.2-23.1-2.2h-20.7l-7.5 7c-9.7 9.2-13.5 11-24.4 11-18.3 0-28.7-11.2-31.4-33.8l-.7-5.2h53.6c58.4 0 58.7 0 60.1-5.6 1.3-5.3-.4-30.6-2.6-38.8-11-40.6-44.8-62.2-90-57.6zm25 35.8c9.6 4.8 15.5 14.9 16.7 28.4l.6 6.8h-31.7c-24.6 0-31.6-.3-31.6-1.3.1-9.3 5-23 10.3-28.5 8.7-9.1 23.5-11.4 35.7-5.4zm637.5-35.7c-34.2 3.2-58.3 21.5-67.4 51.3-4.8 15.7-5.4 50.9-1.1 68.6 6.5 26.7 24.2 44.6 51.5 52.2 11.9 3.3 47.1 3.3 59 0 26.4-7.3 43-23.4 51.2-49.7 2.7-8.9 2.7-9.4 2.7-35s0-26.1-2.7-35c-11.8-37.9-45.5-56.9-93.2-52.4zm28.6 39.5c6.8 3.7 11.3 9.6 14.1 18.7 3.4 10.8 3.4 47.6 0 58.4-4.8 15.4-13.7 21.8-30.2 21.8-17.4-.1-26.6-7.6-31.1-25.5-1.9-7.6-1.9-43.4 0-51 4.7-18.5 15-26.5 33.2-25.7 7.2.4 9.6.9 14 3.3zm-567.2-34.7c-2.4 1.9-2.4 1.9-2.7 82-.2 80.2-.2 80.2 2.2 82.6 2.5 2.5 2.5 2.5 22.9 2.5 18.7 0 20.7-.2 22.8-1.9 2.4-1.9 2.4-1.9 2.9-51.8.5-49.4.5-49.8 2.8-54.9 2.9-6.4 7.2-10.6 13.7-13.6 4.5-2 6.9-2.2 25.8-2.6 26.6-.5 24.7 1.1 24.7-22.2 0-22.8.7-22-17.9-22-21.1 0-33.8 4-45.8 14.5l-5.1 4.5-.4-7c-.3-5.6-.8-7.4-2.8-9.5-2.3-2.5-2.3-2.5-21.6-2.5-17.4 0-19.4.2-21.5 1.9zm663.1.1c-1.1 1.1-2.2 3-2.5 4.2-.3 1.3-.4 37.6-.3 80.6.3 78.4.3 78.4 2.7 80.3 3.6 2.9 41.6 2.9 45.2 0 2.4-1.9 2.4-1.9 2.9-51.8.5-49.8.5-49.8 3.3-55.5 3.1-6.4 7-10.1 13.7-13.2 3.9-1.7 7-2 25-2.4 27-.5 25 1.3 25-22.2 0-23 .8-22-18.2-22-20.8 0-32.2 3.6-44.7 14l-6.1 5.1V680c0-6.4-1.8-11.3-4.5-12.4-.9-.3-10.2-.6-20.6-.6-17.5 0-19 .1-20.9 2z"></path></svg>