<svg version="1.1" id="Layer_1" xmlns="http://www.w3.org/2000/svg" xmlns:xlink="http://www.w3.org/1999/xlink" x="0px" y="0px"
	 width="100%" viewBox="0 0 1024 528" enable-background="new 0 0 1024 528" xml:space="preserve">
<path fill="#FFFFFF" opacity="1.000000" stroke="none" 
	d="
M1025.000000,348.531342 
	C1022.763000,348.063568 1020.403076,348.365570 1018.086609,348.364380 
	C972.945374,348.341156 927.804138,348.342377 882.662903,348.322662 
	C875.829712,348.319672 875.803833,348.269073 875.791870,341.282837 
	C875.785034,337.285339 875.851013,333.287659 875.836731,329.290253 
	C875.827820,326.798462 876.997314,325.616364 879.495361,325.682617 
	C880.993103,325.722351 882.493225,325.664886 883.992249,325.664886 
	C921.304565,325.664917 958.616882,325.670013 995.929199,325.665405 
	C1002.629700,325.664551 1002.708252,325.645966 1002.644775,319.103607 
	C1002.511719,305.408386 1004.352417,307.403229 991.108337,307.380920 
	C946.633484,307.306030 902.158508,307.351166 857.683533,307.355133 
	C851.166565,307.355713 851.154053,307.367645 851.154175,314.059082 
	C851.155029,359.200256 851.158630,404.341431 851.169495,449.482605 
	C851.171204,456.651550 851.190063,456.659027 858.180847,456.659210 
	C910.817871,456.660553 963.454834,456.656891 1016.091858,456.663147 
	C1018.755798,456.663452 1021.419800,456.740814 1024.541870,456.891144 
	C1025.000000,464.354248 1025.000000,471.708496 1025.000000,479.531372 
	C1022.578308,479.134766 1020.058960,479.393494 1017.570862,479.392853 
	C956.771667,479.377411 895.972534,479.375702 835.173340,479.367798 
	C827.675598,479.366821 827.660522,479.357056 827.659729,472.060638 
	C827.653198,411.927795 827.650574,351.794922 827.653137,291.662079 
	C827.653442,284.631042 827.670959,284.609619 834.867249,284.608917 
	C896.166077,284.602905 957.464966,284.608002 1018.763794,284.591766 
	C1020.584412,284.591278 1022.405090,284.392822 1024.612793,284.143341 
	C1025.000000,305.354218 1025.000000,326.708466 1025.000000,348.531342 
z"/>
<path fill="#FFFFFF" opacity="1.000000" stroke="none" 
	d="
M1.000000,213.468536 
	C3.637737,206.556686 5.679045,199.828629 11.635096,195.295090 
	C22.562195,186.977768 36.389397,186.096893 48.092819,193.209534 
	C48.938755,193.723633 49.793110,194.223892 50.579834,194.692612 
	C52.226601,194.101364 51.360886,192.526077 52.043884,191.654877 
	C54.113617,189.014877 56.943867,188.268616 60.073181,188.778122 
	C63.658855,189.361938 62.988621,192.378571 62.995308,194.739624 
	C63.040619,210.738495 62.965248,226.737686 63.001938,242.736618 
	C63.007084,244.980606 62.398876,247.354172 63.919838,249.803848 
	C67.640121,246.362885 69.796768,242.053680 72.099777,237.936646 
	C78.924675,225.735916 86.674034,214.034683 92.222412,201.140045 
	C93.206535,198.852936 94.212204,196.514572 94.722176,194.097397 
	C95.598679,189.942917 98.124336,188.855347 101.992348,189.162949 
	C106.218704,189.499069 106.399292,192.206940 106.365562,195.481522 
	C106.247124,206.979645 106.308243,218.479523 106.219452,229.978104 
	C106.191719,233.568909 106.869545,236.940216 108.681686,240.032700 
	C111.771339,245.305313 117.430542,247.397995 123.274155,245.504837 
	C129.398270,243.520782 134.001816,239.371750 137.817490,234.489273 
	C144.616226,225.789825 149.959976,216.182877 154.238190,205.997025 
	C155.308578,203.448578 155.540405,201.378479 153.403610,198.775375 
	C149.320419,193.801132 150.015259,184.667999 154.142639,179.619370 
	C157.321121,175.731445 161.710251,175.963303 165.048325,180.294128 
	C165.845276,181.328110 166.479004,182.563568 166.893005,183.804718 
	C169.529114,191.707733 169.501907,191.716812 178.119293,190.884949 
	C193.997894,189.352127 197.140488,192.232849 197.234146,208.031799 
	C197.283432,216.347412 196.842270,224.665649 198.197815,232.966095 
	C200.093475,244.573792 207.719223,248.943390 218.394669,243.976257 
	C227.190933,239.883453 233.201202,232.822754 237.998489,224.618668 
	C240.100555,221.023773 241.863434,217.205460 244.213196,213.786041 
	C248.331039,207.793716 249.829529,201.743561 248.840927,194.203735 
	C244.672226,162.409866 245.523041,130.387054 245.834030,98.421303 
	C245.914810,90.116631 247.318771,81.845963 249.949127,73.886620 
	C252.457901,66.295288 257.031311,60.452499 265.212067,58.902779 
	C274.350616,57.171619 281.779877,60.598907 287.730499,67.702469 
	C295.307343,76.747353 297.635345,87.552711 298.230164,98.838676 
	C299.061920,114.620041 294.664703,129.495392 289.441864,144.131470 
	C282.431763,163.776062 273.752960,182.691025 263.796295,201.008835 
	C262.041168,204.237808 261.414154,207.218979 262.160736,210.934509 
	C263.933533,219.757568 265.522949,228.601807 269.511139,236.766144 
	C274.190643,246.345703 280.737152,248.177246 289.914795,242.606216 
	C295.030792,239.500671 298.828491,235.044449 301.939667,230.098999 
	C311.727966,214.539948 323.310364,200.336685 334.822540,186.078568 
	C336.185944,184.389954 337.083405,181.393311 339.970856,182.107361 
	C342.847565,182.818756 343.660492,185.739624 344.619751,188.213577 
	C344.954712,189.077377 344.886719,190.097427 344.995422,190.986526 
	C370.163727,195.117828 377.013367,209.498077 368.937439,240.964783 
	C370.693573,242.512543 372.397400,241.274979 373.995636,240.698532 
	C381.282806,238.070190 387.192078,233.572708 391.276581,226.969513 
	C393.534760,223.318863 396.261688,223.475693 399.273438,225.452728 
	C402.358734,227.478027 402.514404,229.931335 400.334656,233.052734 
	C391.162964,246.186646 378.967133,254.275635 362.711487,253.940887 
	C357.523865,253.834061 352.747345,254.426025 347.757568,255.272156 
	C331.836517,257.971802 319.630676,250.164459 314.916626,234.647034 
	C314.694794,233.916794 314.523132,233.171310 314.162689,231.806732 
	C309.995331,237.795715 306.246002,243.257126 301.298523,247.758331 
	C297.531525,251.185547 293.349091,253.765854 288.461731,255.219330 
	C277.037903,258.616699 268.158203,255.245850 261.952271,245.029297 
	C257.696838,238.023819 255.339096,230.222473 252.739899,221.507980 
	C249.516403,226.679962 246.905991,231.224945 243.951614,235.534103 
	C237.853333,244.428833 229.809982,251.024719 219.603958,254.666763 
	C203.283951,260.490570 191.047653,253.414139 187.770432,236.468018 
	C186.880936,231.868530 186.573624,227.237961 186.611725,222.555710 
	C186.655075,217.227570 186.549423,211.896652 186.419128,206.569122 
	C186.315826,202.344742 184.156708,200.594650 179.962250,201.535904 
	C179.637375,201.608795 179.300781,201.759888 178.985489,201.726227 
	C169.163956,200.677444 165.117157,205.985107 161.851990,214.699203 
	C157.483871,226.356918 151.103912,237.252777 141.662674,245.916153 
	C137.172623,250.036240 132.198242,253.363464 126.345726,255.057404 
	C109.166573,260.029694 95.544479,249.706894 94.894676,231.320633 
	C94.771828,227.844437 94.778831,224.357651 95.102348,220.718201 
	C88.758568,230.944595 82.423386,241.176331 76.065430,251.393906 
	C74.305176,254.222702 72.820580,257.319977 70.615952,259.757141 
	C64.006714,267.063507 62.542599,275.525970 62.858128,285.104919 
	C63.400818,301.580139 63.081718,318.086914 62.967979,334.579346 
	C62.905769,343.600006 61.742172,352.539673 59.225990,361.202393 
	C57.110039,368.487244 53.929390,375.341400 47.149696,379.569489 
	C35.129169,387.066040 21.197657,382.586182 16.582266,369.235718 
	C10.915472,352.843964 11.931718,336.498627 19.094376,320.649841 
	C26.614885,304.009216 36.752552,288.931274 47.459816,274.248413 
	C50.578560,269.971680 52.215431,265.711975 51.772808,260.430664 
	C51.445473,256.524933 51.708473,252.569733 51.708473,247.961685 
	C44.582409,252.546219 38.175842,256.533752 30.028017,256.430084 
	C16.684708,256.260376 6.877654,249.570923 2.272872,236.929550 
	C1.988456,236.148758 1.636136,235.392715 1.157704,234.312576 
	C1.000000,227.312363 1.000000,220.624710 1.000000,213.468536 
M256.918457,100.168053 
	C256.719482,102.487068 256.399933,104.803001 256.340363,107.125595 
	C255.827728,127.121658 256.676666,147.102127 257.503052,167.067139 
	C257.738556,172.756424 257.650696,178.642944 259.412170,185.076263 
	C263.644592,178.364899 266.360138,171.785126 269.198212,165.299683 
	C277.419006,146.513855 285.410767,127.594627 287.220123,106.872070 
	C288.223602,95.379608 286.886688,84.153923 279.387299,74.683014 
	C276.653290,71.230240 273.134155,68.419617 268.223328,69.427147 
	C263.355927,70.425743 261.295898,74.255432 259.925018,78.545219 
	C257.775482,85.271622 257.194458,92.229843 256.918457,100.168053 
M51.712337,314.500031 
	C51.712337,306.172791 51.712337,297.845581 51.712337,288.554779 
	C43.396519,298.268768 30.300005,320.781525 26.779964,331.221008 
	C23.123278,342.065796 23.033003,353.091064 25.934763,364.078552 
	C26.994520,368.091309 29.419321,371.279022 34.137352,371.695587 
	C38.677204,372.096436 42.219528,370.546234 44.777332,366.667206 
	C47.389885,362.705200 48.779518,358.352661 49.709961,353.737335 
	C52.261871,341.079071 51.648457,328.276306 51.712337,314.500031 
M20.162937,202.585526 
	C10.460117,207.550232 8.426234,229.796463 14.797724,237.912125 
	C18.827778,243.045395 23.962896,246.134735 30.670595,245.675110 
	C47.212246,244.541550 58.017265,223.647675 49.470150,209.447998 
	C43.493935,199.519455 31.559834,196.489960 20.162937,202.585526 
M350.807465,202.551941 
	C341.759552,198.821274 338.630768,199.539825 332.519684,206.753433 
	C330.367126,209.294342 328.383514,212.006546 326.020844,214.334015 
	C323.187042,217.125549 322.729340,220.362595 323.423492,223.963242 
	C324.345001,228.742981 325.941040,233.265076 328.730682,237.321167 
	C333.450836,244.184265 339.869263,246.361252 347.901428,243.956375 
	C356.582581,241.357193 360.506195,234.852539 361.444305,226.566147 
	C362.523682,217.031891 361.060364,208.146729 350.807465,202.551941 
z"/>
<path fill="#FFFFFF" opacity="1.000000" stroke="none" 
	d="
M528.354126,208.801819 
	C528.988831,216.729324 529.375122,224.214737 531.304443,231.491592 
	C531.687500,232.936493 532.108032,234.382660 532.656799,235.770691 
	C536.812561,246.281555 543.892090,248.210678 552.280640,240.874954 
	C559.366028,234.678818 563.488953,226.495667 566.709290,217.812805 
	C567.269043,216.303558 567.013733,215.116882 565.981140,213.703125 
	C561.795105,207.971848 561.657227,198.421249 565.435730,192.554092 
	C568.596130,187.646713 573.259949,187.420639 576.808228,192.094009 
	C579.433228,195.551270 580.324097,199.634796 580.261230,203.859802 
	C580.206604,207.526047 581.978088,208.229904 584.995178,207.289459 
	C592.918884,204.819565 599.693359,200.291412 606.201599,195.304169 
	C608.296387,193.698914 607.694214,191.373764 607.696350,189.281586 
	C607.728638,158.116821 607.691833,126.951965 607.740601,95.787247 
	C607.751648,88.750046 608.769897,81.834801 611.519653,75.296509 
	C616.449158,63.575134 627.285706,59.439991 638.574219,65.243660 
	C650.642029,71.447990 655.370056,82.330750 656.256531,95.153702 
	C657.297546,110.210770 652.315796,124.067314 646.791199,137.687759 
	C639.454895,155.774765 630.352539,173.017944 621.059631,190.158096 
	C619.351807,193.307938 619.397705,193.332809 619.667175,196.667831 
	C621.623169,197.115234 622.565735,195.377899 623.958008,194.641891 
	C625.722656,193.709015 627.388977,192.574783 629.195618,191.739182 
	C645.312744,184.284866 655.115356,190.055023 657.538940,207.681091 
	C658.862732,217.308838 657.389771,226.989609 659.109680,236.569107 
	C660.738647,245.642044 668.254272,249.627518 675.882080,244.404968 
	C684.534302,238.481049 691.398926,230.819321 693.126404,219.839264 
	C694.497559,211.123642 696.975769,203.006439 703.748474,196.732086 
	C713.679871,187.531555 728.671509,185.895935 739.705505,193.354202 
	C743.287354,195.775345 747.543152,198.327011 745.965149,204.035583 
	C745.850647,204.449539 745.919922,205.185501 746.192993,205.395294 
	C751.438721,209.424591 750.168762,215.197281 750.388550,220.601730 
	C750.517639,223.776596 755.802246,227.464111 758.694824,226.519623 
	C761.103699,225.733078 760.590393,223.639786 760.601013,221.900681 
	C760.657837,212.568222 760.778198,203.232468 760.584595,193.903915 
	C760.503479,189.996002 761.878235,188.480667 765.794495,188.690796 
	C770.115051,188.922638 774.463440,188.878021 778.788940,188.696289 
	C782.313721,188.548203 783.664307,190.088486 783.356506,193.453430 
	C783.280945,194.279526 783.353210,195.118912 783.353210,195.952179 
	C783.352173,287.946655 783.351746,379.941162 783.346741,471.935638 
	C783.346313,479.365143 783.331665,479.379486 776.100769,479.379730 
	C714.937805,479.381744 653.774780,479.380249 592.611816,479.373291 
	C585.688965,479.372498 585.646301,479.353882 585.645203,472.540436 
	C585.635437,411.877411 585.681946,351.214294 585.562073,290.551514 
	C585.553162,286.054993 586.805847,284.509308 591.459961,284.524384 
	C637.456726,284.673431 683.454224,284.658875 729.451172,284.550171 
	C733.691895,284.540131 735.628784,285.713287 735.291382,290.211823 
	C734.993103,294.189606 735.056458,298.214966 735.259644,302.204102 
	C735.459106,306.119232 733.854614,307.445374 729.983765,307.414124 
	C712.652588,307.274231 695.319641,307.353455 677.987366,307.349731 
	C656.655334,307.345154 635.322327,307.440430 613.992065,307.243835 
	C609.658936,307.203857 608.228699,308.438385 608.242737,312.884705 
	C608.390381,359.714783 608.403198,406.545593 608.266541,453.375671 
	C608.253235,457.924896 609.893555,458.961426 614.102112,458.952209 
	C661.098999,458.849274 708.096436,458.850769 755.093140,459.004303 
	C759.583618,459.018951 760.724182,457.489563 760.717590,453.213440 
	C760.609131,383.217834 760.609009,313.221954 760.714661,243.226303 
	C760.720703,239.213181 759.950317,237.024933 755.465820,236.843460 
	C753.070251,236.746536 750.719910,235.528976 747.865234,234.671875 
	C743.277649,245.886780 735.892029,254.236404 723.519287,256.048553 
	C711.103455,257.867035 701.993225,252.119110 695.034119,240.504837 
	C692.564148,243.365738 690.688293,245.879395 688.467651,248.038513 
	C684.092957,252.292007 679.089355,255.559540 672.827759,256.237183 
	C657.111633,257.938019 648.591675,250.607956 647.752808,234.532745 
	C647.336792,226.560303 647.657654,218.575104 646.851746,210.590942 
	C645.697937,199.159546 641.876404,196.759735 632.118774,202.615295 
	C623.896057,207.549759 618.162048,214.101318 618.896179,224.831070 
	C619.474915,233.290146 618.844360,241.825226 619.043518,250.319702 
	C619.149353,254.833755 616.798279,255.403488 613.089905,255.422974 
	C609.367737,255.442551 607.614380,254.417664 607.670654,250.351685 
	C607.839050,238.188141 607.744019,226.020630 607.703918,213.854828 
	C607.698059,212.067017 608.129395,210.210983 607.235352,208.475555 
	C605.624817,207.912537 604.753601,209.186676 603.693298,209.861053 
	C597.013428,214.109451 589.872803,217.232635 582.011475,218.404205 
	C579.021790,218.849762 577.467834,220.246658 576.383728,223.101028 
	C572.805054,232.523331 567.908997,241.194412 560.558960,248.278610 
	C557.154297,251.560104 553.273987,254.105453 548.740906,255.534042 
	C539.139465,258.559906 530.142273,255.028885 525.406494,246.179718 
	C523.710632,243.010986 522.540527,239.560898 520.963318,235.845230 
	C518.729126,239.879639 516.883667,243.752472 514.559204,247.312561 
	C506.163177,260.171936 490.119080,259.356232 482.670502,245.801529 
	C477.147858,235.751511 476.230652,224.567795 474.693359,213.538467 
	C474.150909,209.646500 473.925568,205.687775 472.006195,201.594696 
	C466.854797,206.175552 463.991882,211.842850 460.567810,217.059753 
	C458.376648,220.398193 456.358337,223.867493 454.504181,227.404800 
	C452.689423,230.866913 450.132294,230.724091 447.436615,229.012955 
	C444.933228,227.423874 443.085846,225.433395 445.072937,222.003540 
	C450.001801,213.495911 454.737549,204.856369 460.742096,197.049866 
	C464.215820,192.533707 468.223511,187.715500 474.703400,189.160843 
	C480.992798,190.563675 482.483276,196.451111 483.590851,201.900345 
	C485.642700,211.995407 487.367859,222.156418 489.321869,232.272049 
	C489.992279,235.742661 491.410980,238.948013 493.681122,241.708649 
	C497.970001,246.924332 503.006195,246.726395 506.764282,241.073441 
	C511.488739,233.966751 513.158997,225.782150 514.642517,217.578018 
	C516.033264,209.887207 517.211243,202.160217 517.147339,194.308441 
	C517.113464,190.147995 520.276733,190.071533 523.053406,189.907028 
	C525.986816,189.733231 528.317505,190.646210 528.271301,194.335129 
	C528.212952,198.997437 528.319397,203.661789 528.354126,208.801819 
M626.458008,159.016083 
	C634.796326,141.227753 642.794800,123.329338 645.303406,103.553627 
	C646.374146,95.112541 644.733826,87.300949 639.834534,80.344849 
	C637.134033,76.510559 633.399231,73.760323 628.459778,74.464226 
	C623.485535,75.173080 621.651855,79.272614 620.323486,83.559334 
	C619.226074,87.100700 619.048828,90.752411 619.044006,94.414764 
	C619.012695,118.370964 618.995544,142.327194 619.002991,166.283401 
	C619.003540,167.930283 618.719299,169.691528 619.816711,171.551498 
	C622.696777,167.616730 624.201904,163.542099 626.458008,159.016083 
M709.271912,241.245987 
	C719.446472,250.435120 732.197144,243.107758 736.402771,233.036118 
	C737.769165,229.763626 738.821350,226.915909 736.246033,223.359268 
	C733.093628,219.005753 732.037231,213.733963 735.110107,208.783020 
	C737.078857,205.611099 735.931763,203.853043 733.384338,202.244965 
	C727.460571,198.505646 721.339783,198.634735 715.384338,201.949539 
	C703.269592,208.692612 699.881165,228.933060 709.271912,241.245987 
z"/>
<path fill="#FFFFFF" opacity="1.000000" stroke="none" 
	d="
M478.000061,284.599060 
	C497.665497,284.597656 516.832092,284.711639 535.995300,284.506348 
	C540.138977,284.461975 541.412598,285.652832 541.404724,289.824768 
	C541.288574,351.153839 541.278625,412.483246 541.405945,473.812256 
	C541.415161,478.264252 539.997437,479.461426 535.677063,479.453064 
	C473.348083,479.332123 411.018738,479.323059 348.689758,479.445557 
	C344.012299,479.454742 342.755890,477.844513 342.764709,473.354584 
	C342.883728,412.692139 342.843262,352.029419 342.856079,291.366760 
	C342.857513,284.703705 342.959717,284.595551 349.508514,284.594086 
	C392.172363,284.584412 434.836212,284.595642 478.000061,284.599060 
M366.335876,395.499939 
	C366.335907,413.998505 366.451569,432.498352 366.249786,450.994720 
	C366.202881,455.293335 367.363556,456.762024 371.851379,456.748535 
	C419.513763,456.605194 467.176910,456.602875 514.839233,456.758636 
	C519.547791,456.774017 520.754883,455.207642 520.741455,450.705170 
	C520.604675,404.875946 520.598877,359.045990 520.746582,313.216858 
	C520.761292,308.654083 519.499390,307.241638 514.839905,307.257019 
	C467.344269,307.414001 419.847656,307.417938 372.352112,307.245758 
	C367.447845,307.227997 366.190796,308.771576 366.226929,313.507294 
	C366.432861,340.503540 366.332733,367.502106 366.335876,395.499939 
z"/>
<path fill="#FFFFFF" opacity="1.000000" stroke="none" 
	d="
M183.000061,284.599731 
	C219.996353,284.596558 256.493378,284.706940 292.988129,284.466003 
	C298.271667,284.431122 299.723938,286.152985 299.254761,291.042725 
	C298.890198,294.841949 299.013672,298.708252 299.185486,302.532867 
	C299.353485,306.274048 297.694611,307.693909 294.106049,307.382355 
	C292.617523,307.253082 291.108246,307.364319 289.608398,307.364136 
	C236.780426,307.357056 183.952469,307.348999 131.124496,307.343353 
	C124.216080,307.342590 124.200714,307.348267 124.200615,314.116821 
	C124.199997,359.445526 124.202255,404.774231 124.215225,450.102936 
	C124.217102,456.646332 124.246033,456.658203 130.862335,456.658508 
	C184.523560,456.660858 238.184784,456.656708 291.846008,456.659393 
	C299.175598,456.659729 299.177795,456.672089 299.169434,464.155762 
	C299.165344,467.822021 299.091217,471.489380 299.160980,475.154144 
	C299.215576,478.024200 298.121887,479.584778 295.059326,479.384186 
	C293.898132,479.308136 292.727142,479.385986 291.560638,479.385895 
	C230.400177,479.381805 169.239716,479.377563 108.079247,479.371185 
	C100.844002,479.370422 100.828468,479.364838 100.828423,472.287781 
	C100.828018,412.293854 100.830803,352.299957 100.841202,292.306030 
	C100.842537,284.613098 100.865356,284.598053 108.508743,284.596436 
	C133.172516,284.591217 157.836273,284.598114 183.000061,284.599731 
z"/>
<path fill="#FFFFFF" opacity="1.000000" stroke="none" 
	d="
M108.219269,157.061249 
	C102.296066,161.956345 97.721855,162.181595 94.707352,157.891846 
	C92.234543,154.372925 92.144157,150.788528 95.197464,147.517883 
	C97.964439,144.553955 103.566307,143.597809 106.597153,145.740387 
	C110.784851,148.700790 110.335098,152.654602 108.219269,157.061249 
z"/>
</svg>