<svg width="480.2" height="129.9" viewBox="0 0 127.1 34.4" xmlns="http://www.w3.org/2000/svg"><defs><clipPath id="a"><path d="M0 576h576V0H0z"/></clipPath></defs><g clip-path="url(#a)" transform="matrix(.35278 0 0 -.35278 -38 68)"><path d="M177.3 151H147c-.8 0-1.4-.6-1.4-1.4v-14.8c0-.8.6-1.4 1.4-1.4h11.8V115s-2.6-1-10-1c-8.6 0-20.7 3.3-20.7 29.8 0 26.6 12.6 30 24.4 30 10.2 0 14.6-1.7 17.4-2.6 1-.3 1.7.6 1.7 1.4l3.4 14.3c0 .4-.1.8-.5 1.1-1.2.8-8.1 4.7-25.7 4.7-20.2 0-40.9-8.6-40.9-50 0-41.2 23.7-47.4 43.7-47.4 16.6 0 26.6 7 26.6 7 .4.3.5.9.5 1.1v46.2c0 .8-.6 1.4-1.4 1.4m156 36.8c0 .7-.7 1.4-1.4 1.4h-17c-.9 0-1.5-.7-1.5-1.4v-33h-26.6v33c0 .7-.6 1.4-1.4 1.4h-17c-.8 0-1.4-.7-1.4-1.4V98.5c0-.8.6-1.5 1.4-1.5h17c.8 0 1.4.7 1.4 1.5v38.1h26.6v-38c0-.8.6-1.5 1.4-1.5h17c.8 0 1.5.7 1.5 1.5zM209.4 176a11 11 0 0 1-11 11.1 11 11 0 0 1 0-22.2c6.1 0 11 5 11 11.2m-1.2-58.7v41.2c0 .7-.6 1.4-1.4 1.4h-17c-.8 0-1.5-.8-1.5-1.6v-59c0-1.7 1.1-2.2 2.5-2.2h15.3c1.7 0 2.1.8 2.1 2.2zM398 159.8h-16.9c-.8 0-1.4-.6-1.4-1.4v-43.7s-4.3-3.2-10.4-3.2-7.7 2.8-7.7 8.8v38.1c0 .8-.6 1.4-1.4 1.4H343c-.7 0-1.4-.6-1.4-1.4v-41c0-17.7 10-22 23.5-22 11.2 0 20.2 6 20.2 6s.4-3.2.6-3.5c.2-.4.7-.8 1.2-.8h11c.7 0 1.3.7 1.3 1.5v59.8c0 .8-.6 1.4-1.4 1.4m39.6-48.2c-5.9.2-9.9 2.8-9.9 2.8v28.3s4 2.4 8.8 2.8c6 .6 12-1.3 12-15.8 0-15.3-2.7-18.4-11-18.1m6.7 50.2a31 31 0 0 1-16-4.3v30.2c0 .8-.7 1.5-1.5 1.5h-17c-.9 0-1.5-.7-1.5-1.5V98.6c0-.8.6-1.5 1.4-1.5h11.9c.5 0 1 .3 1.2.8.3.5.7 4.1.7 4.1s7-6.6 20.2-6.6c15.6 0 24.5 7.9 24.5 35.4s-14.2 31-23.8 31M257.2 160h-12.8v16.9c0 .6-.3 1-1 1h-17.5c-.7 0-1-.4-1-1v-17.5l-9.4-2.3c-.5-.1-1-.7-1-1.3v-11c0-.8.7-1.4 1.4-1.4h9V117c0-19.6 13.7-21.5 23-21.5 4.2 0 9.3 1.4 10.1 1.7.5.1.8.7.8 1.2v12.1c0 .8-.6 1.4-1.4 1.4-.7 0-2.6-.3-4.6-.3-6.3 0-8.4 3-8.4 6.7v25.1h12.8c.8 0 1.4.6 1.4 1.4v13.8c0 .7-.6 1.4-1.4 1.4" fill="#fff"/></g></svg>