<?xml version="1.0" encoding="utf-8"?>
<!-- Generator: Adobe Illustrator 26.0.3, SVG Export Plug-In . SVG Version: 6.00 Build 0)  -->
<svg version="1.1" id="RBLX_x5F_WORDMARK_x5F_WHITE"
	 xmlns="http://www.w3.org/2000/svg" xmlns:xlink="http://www.w3.org/1999/xlink" x="0px" y="0px" viewBox="0 0 2970.69 549.11"
	 style="enable-background:new 0 0 2970.69 549.11;" xml:space="preserve">
<style type="text/css">
	.st0{fill:#FFFFFF;}
</style>
<g>
	<path class="st0" d="M358.15,357.2l85.5,156.75H285l-72.2-133.95h-68.4v133.95H0v-475h264.1c109.25,0,178.6,60.8,178.6,170.05
		C442.71,279.3,410.41,329.66,358.15,357.2z M144.4,162.45v94.05H247c30.4,0,49.4-18.05,49.4-47.5s-19-46.55-49.4-46.55H144.4z
		 M902.51,549.11L470.26,432.26L586.16,0l432.26,116.85L902.51,549.11z M820.81,230.85L700.16,197.6l-32.3,120.65l120.65,33.25
		L820.81,230.85z M1513.37,380.01c0,91.2-57.95,133.95-148.2,133.95h-283.1v-475h273.6c90.25,0,148.2,46.55,148.2,128.25
		c0,51.3-19,85.5-55.1,109.25C1489.62,294.5,1513.37,330.61,1513.37,380.01z M1222.67,152.95v70.3h94.05
		c25.65,0,40.85-11.4,40.85-36.1c0-22.8-15.2-34.2-40.85-34.2H1222.67z M1222.67,399.96h105.45c24.7,0,38.95-13.3,38.95-36.1
		c0-24.7-14.25-36.1-38.95-36.1h-105.45V399.96z M1584.62,38.95h144.4v334.4h207.1v140.6h-351.5V38.95z M2467.18,276.46
		c0,136.8-110.2,247-247,247s-247-110.21-247-247c0-136.8,110.2-247,247-247S2467.18,139.65,2467.18,276.46z M2322.78,276.46
		c0-58.9-46.55-105.45-102.6-105.45s-102.6,46.55-102.6,105.45c0,58.9,46.55,105.45,102.6,105.45S2322.78,335.35,2322.78,276.46z
		 M2814.88,268.85l155.81,245.1h-171.95l-85.5-139.65l-88.35,139.65h-174.8l162.45-239.4l-149.15-235.6h171.95l78.85,128.25
		l76-128.25h171L2814.88,268.85z"/>
</g>
</svg>
