<svg xmlns="http://www.w3.org/2000/svg" viewBox="84.8 176.3 441.9 217.2"><path d="M233.2 298.6a1.2 1.2 0 0 0-.9-.4h-23c-.6 0-1.1.4-1.2 1l-13.4 85.2a1.2 1.2 0 0 0 1.1 1.4h23c.7 0 1.2-.5 1.3-1l13.4-85.2a1.2 1.2 0 0 0-.3-1zm42.1 64.3a1.2 1.2 0 0 0-.9-.4h-11.9a8 8 0 0 1-5.9-3.1c-2.6-3.3-3.4-9.6-2.2-17.3.6-3.7 2.6-12.8 8.3-17.7a13 13 0 0 1 8.3-3h10.3c.6 0 1-.5 1.2-1l3.2-20.8a1.2 1.2 0 0 0-1.1-1.4h-11.3c-3 0-13.7.6-24 8a52 52 0 0 0-20 36c-2.3 14.7 0 26.5 6.5 34.2 5.2 6 12.7 9.3 21.7 9.3h13.6c.6 0 1.1-.5 1.2-1l3.3-20.8a1.2 1.2 0 0 0-.3-1zm-73-42.5 3.2-20.8a1.2 1.2 0 0 0-1.2-1.4h-49a1 1 0 0 0-1 1l-3.4 20.8a1.2 1.2 0 0 0 1.2 1.4h11.3l-10 63a1.2 1.2 0 0 0 1.2 1.4h23c.6 0 1.1-.5 1.2-1l10-63.4H201c.6 0 1.1-.5 1.2-1zm-51-21.8a1.2 1.2 0 0 0-.9-.4h-18.3c-18.9 0-28.6 17.2-30.3 28a23 23 0 0 0 2.3 15.2 45.7 45.7 0 0 0 9.7 10.9 11.3 11.3 0 0 1 3 3c.8 1 1 2 .8 3.6-.2 1-.6 1.8-1.3 2.5-1.1 1-3 1-3.5 1H97c-.5 0-1 .5-1.1 1l-3.3 20.9a1.2 1.2 0 0 0 1.2 1.4h17a33 33 0 0 0 31.7-28.5c1-6 .4-10.9-1.9-15a34 34 0 0 0-9.6-10.4l-1.2-1.1c-.8-.7-1.6-1.4-2.1-2.1-1-1.4-1.5-2.6-1.2-3.7a3.8 3.8 0 0 1 1.3-2.4c1-1 2.2-1.1 2.8-1.1H147c.6 0 1.1-.5 1.2-1l3.3-20.8a1.2 1.2 0 0 0-.3-1zm355.9 0a1.2 1.2 0 0 0-1-.4H488c-18.9 0-28.7 17.2-30.4 28a23 23 0 0 0 2.3 15.2 45.7 45.7 0 0 0 9.7 10.9 11.3 11.3 0 0 1 3 3c.8 1 1 2 .8 3.6a4 4 0 0 1-1.3 2.5c-1 1-3 1-3.4 1h-15.8c-.6 0-1 .5-1.2 1l-2.5 16-9.6-29.6a27.4 27.4 0 0 0 16.3-21.9c1.5-9.4.1-16.3-4.1-21.3-5-5.7-13.6-8.4-27.1-8.4h-22.3c-.6 0-1.1.4-1.2 1l-13.4 85.2a1.2 1.2 0 0 0 1.1 1.4h23c.7 0 1.2-.5 1.3-1l3.6-22.8a156.3 156.3 0 0 0 .9-6.2l5.8 29c.1.6.6 1 1.2 1h25l.4-.1h16.5a33 33 0 0 0 31.8-28.5c1-6 .3-10.9-2-15a32.5 32.5 0 0 0-9.5-10.4 25 25 0 0 0-1.2-1.1 15 15 0 0 1-2.2-2.1c-1-1.4-1.4-2.6-1.2-3.7a3.8 3.8 0 0 1 1.4-2.4c1-1 2.1-1.1 2.8-1.1H503c.6 0 1-.5 1.2-1l3.3-20.8a1.2 1.2 0 0 0-.3-1zm-83.6 20.3c1.9 0 4.4.4 5.8 2.1 1.3 1.5 1.7 3.8 1.2 6.8-.7 4.9-4.3 9.8-9.9 9.8zm-97.5 21.8 24.6-40.7a1.2 1.2 0 0 0-1-1.8h-24.4c-.4 0-.8.2-1 .6l-15 29.9 4.5-29.1a1.2 1.2 0 0 0-1.2-1.4h-23c-.7 0-1.2.4-1.3 1L275 384.4a1.2 1.2 0 0 0 1.2 1.4h23c.6 0 1.1-.5 1.2-1l5.3-33 6.8 33c.1.6.6 1 1.2 1h24.7a1.2 1.2 0 0 0 1.2-1.6zm62 23a1.2 1.2 0 0 0-1-.4h-18.3l1.6-10.6h16.7c.6 0 1.1-.5 1.2-1l3.3-20.2a1.2 1.2 0 0 0-1.2-1.3h-16.3l1.4-9.5h18.8c.5 0 1-.4 1.1-1l3.2-20.1a1.2 1.2 0 0 0-1.2-1.4h-42.8c-.6 0-1 .4-1.2 1L340 384.4a1.2 1.2 0 0 0 1.2 1.4H384c.6 0 1-.5 1.2-1l3.1-20.2a1.2 1.2 0 0 0-.3-1z" fill="#ff5c39"/><path d="M260.1 234.2c0 5.6.6 11.1 1.3 16.6l-13.1-36.5h-21v63.4L214 214.3h-26.2l-18.2 76h23l1.7-9.5h11.3l1.5 9.4h41.8v-22.7c0-4.2-.3-8.4-.6-12.4l12.2 35.1h21.2v-75.9h-21.5zm-57.3 28.6h-5.6l2.5-15.7.7-4.3.5 4.2zm-23.4-48.5h-44.6v20.3h10.9v55.6h22.2v-55.6h11.5zm-61.1 0h-2.5c-17 0-23.2 15.1-23.2 24.6 0 5 1.3 9.3 4.1 13.1 2.7 3.7 6.4 6.6 10 9.4 1 .7 2.2 1.5 3 2.5.9 1 1.3 1.9 1.3 3.1v.1a3 3 0 0 1 0 .5h-.1a2.8 2.8 0 0 1-2.7 2.3H92.6v20.3h19.3v-.2a24 24 0 0 0 21-24.7c0-5.3-1.2-9.5-3.8-13a37 37 0 0 0-10.8-9.7l-2.4-2c-.7-.8-1-1.4-1.3-2a3.2 3.2 0 0 1-.2-.5 2.8 2.8 0 0 1 0-.6 1.5 1.5 0 0 0 0-.1v-.2a2.8 2.8 0 0 1 2.7-2.6h15.8v-20.3h-14.6zm397.4-29h-66.4a3.1 3.1 0 0 0-2.2 1l-4.8 4.7v-2.5a3.2 3.2 0 0 0-3.1-3.2h-20a3 3 0 0 0-2.2 1l-8.1 8A27.2 27.2 0 0 0 387 184h-1.5c-7.8 0-14.5 2.7-19.7 8l-24.4 24.4-.2.2a36 36 0 0 0-9 14.9c-5.7-11.1-16.8-17.2-31.5-17.2h-17.2v76H302c16.6 0 27.4-6.9 32-20.3 5 13.7 15 21.5 28 21.5 7.8 0 14.4-2.7 19.7-8l10.7-10.7c3.3 12.2 12.5 18.7 26.8 18.7 9.2 0 16.4-2.7 21.2-8l15.8-15.8V287a3.2 3.2 0 0 0 3.1 3.2h20c.8 0 1.6-.3 2.2-1l25-25a3.2 3.2 0 0 0 1-2.3v-42.8l10.4-10.4c.7-.7 1-1.5 1-2.4v-17.8a3.2 3.2 0 0 0-3.2-3.2zm-210 84.7v-35c4 .6 8.3 4.4 8.3 17.8 0 13.5-5 16.5-8.2 17z" fill="#fff"/><path d="M520.7 387.3a6 6 0 0 1 0-.7v-.7a6.4 6.4 0 0 0-.2-.7 2 2 0 0 0-.2-.6 1.4 1.4 0 0 0-.4-.4 1.6 1.6 0 0 0-.7-.3 2 2 0 0 0 1.2-1c.3-.4.4-.9.4-1.5 0-.8-.2-1.4-.7-1.8-.5-.5-1.3-.7-2.2-.7h-4.5v9.6h1.3v-4h3.9l.4.4.3.6a7.6 7.6 0 0 1 .2 2v.6a.8.8 0 0 0 .3.4h1.4a1.7 1.7 0 0 1-.3-.5 4.7 4.7 0 0 1-.2-.7zM519 383l-.7.3h-3.5V380h3.2c.6 0 1 .1 1.3.4.2.3.4.7.4 1.2 0 .4 0 .7-.2.9l-.5.5z" fill="#333f48"/><path d="M517 374a9.7 9.7 0 0 0-9.7 9.8 9.7 9.7 0 0 0 9.7 9.6 9.7 9.7 0 0 0 9.6-9.6 9.7 9.7 0 0 0-9.7-9.7zm0 18.2a8.4 8.4 0 1 1 0-16.9 8.4 8.4 0 0 1 0 16.9z" fill="#333f48"/><path d="M386.3 188c-20.2 0-28.1 20-28.1 38s7.9 38 28 38c20.3 0 28.1-20 28.1-38s-7.8-38-28-38zm0 18.5c7.5 0 7.8 14.9 7.8 19.5s-.3 19.5-7.8 19.5c-2.4 0-4-1.5-5.2-3.6a12.7 12.7 0 0 1-.3-.7c-.4-1-.8-2-1-3.2a28 28 0 0 1-.4-1.2 55 55 0 0 1-1-10.8c0-4.6.4-19.5 7.9-19.5zm86.4-17.3v18h11v55.5h19.8v-55.5H515v-18zm-24.1 0v46.3c0 1.9 0 4.4-.5 6.5-.5 2-1.8 3.5-4.6 3.5-2.7 0-4-1.6-4.6-3.6-.6-2-.5-4.5-.5-6.5v-46.2h-19.9v48c0 9 2 26.8 25 26.8s25-17.8 25-26.7v-48z" fill="#49c5b1"/></svg>