<?xml version="1.0" encoding="utf-8"?>
<!-- Generator: Adobe Illustrator 27.1.1, SVG Export Plug-In . SVG Version: 6.00 Build 0)  -->
<svg version="1.1" id="Layer_1" xmlns="http://www.w3.org/2000/svg" xmlns:xlink="http://www.w3.org/1999/xlink" x="0px" y="0px"
	 viewBox="0 0 224 93" style="enable-background:new 0 0 224 93;" xml:space="preserve">
<style type="text/css">
	.st0{fill:#FFFFFF;}
</style>
<g>
	<polygon class="st0" points="24.1,57.6 1.5,71.9 25.4,75.5 7.7,71.3 	"/>
	<path class="st0" d="M102.3,57.5L102.3,57.5c7.3,0.1,14.5-3,17.7-11c3.2-7.9-0.6-11.1-7.7-11.1H107l-9,22.1H102.3z"/>
	<path class="st0" d="M186.7,20l-27.4-9.9l-48.4-7.4L45.4,44.1L27.7,66.4h109.4l-99.2,5.9l25,9l50.2,7.6l71.5-45.3l13-17.8H88.3
		L186.7,20z M135.3,58.5c2.7,0,6.3-1.5,7.5-4.5c2.9-7.1-14.2-3-9.5-14.7c2.7-6.7,10-9.9,16-9.9c3.4,0,6.4,1,8,3.4l-5.9,4.5
		c-0.5-1.8-2.4-2.6-4.7-2.6c-2.7,0-5.8,1.2-7.1,4.2c-2.7,6.5,14.3,2.8,9.6,14.4c-2.9,7-9.8,10.4-16.2,10.4c-4.1,0-7.5-1.2-8.9-4.4
		l6.1-4.2C130.7,57.3,132.7,58.5,135.3,58.5z M116.1,30.3c8.6,0,14.4,5.2,9.9,16.3c-4.6,11.1-16.1,16.3-23.9,16.3H90l13.3-32.6
		H116.1z M97.5,30.3l-2.1,5.2h-10L74.2,62.9h-5.8l11.2-27.4h-10l2.1-5.2H97.5z"/>
	<polygon class="st0" points="222.5,19.7 197.4,15.9 216.6,20.4 206.1,30.1 	"/>
</g>
<g>
	<path class="st0" d="M164.7,61.2c1.9,0,3.4,1.5,3.4,3.4c0,1.9-1.6,3.4-3.4,3.4c-1.9,0-3.4-1.5-3.4-3.4
		C161.3,62.7,162.9,61.2,164.7,61.2z M164.7,67.5c1.6,0,2.9-1.3,2.9-2.9s-1.3-2.9-2.9-2.9c-1.6,0-2.9,1.2-2.9,2.9
		C161.8,66.3,163.1,67.5,164.7,67.5z M163.4,62.7h1.4c0.9,0,1.4,0.3,1.4,1.1c0,0.7-0.5,1-1,1.1l1.1,1.7h-0.6l-1.1-1.7H164v1.7h-0.5
		v-3.9H163.4z M164,64.4h0.7c0.5,0,1.1,0,1.1-0.6c0-0.5-0.5-0.6-0.9-0.6H164V64.4z"/>
</g>
<g>
	<path class="st0" d="M90.3,91.7L6.4,71.6l48.7-40.7l0.9,0.8l-27,34h108.1l0,1.2l-96.2,5.7l49.7,17.8L90.3,91.7z M9,71l70.7,16.9
		l-44.8-16l81.8-4.9H26.4l24.9-31.3L9,71z"/>
</g>
<g>
	<path class="st0" d="M171.5,62.7l-0.9-0.8l25.8-35.5H88.3l0-1.2l95.5-5.6l-49.6-18l0.3-1.2l83.4,19.7L171.5,62.7z M108.9,25.2h89.9
		l-23.6,32.5l40.2-37L144.3,4l45.4,16.5L108.9,25.2z"/>
</g>
</svg>
